<svg xmlns="http://www.w3.org/2000/svg" xmlns:xlink="http://www.w3.org/1999/xlink" xmlns:lucid="lucid" width="1498.89" height="1613.17"><g transform="translate(1226.2545190284236 415.60578395696564)" lucid:page-tab-id="0_0"><path d="M58.48 520.5h150.96v61.6H58.47z" fill="none"/><use xlink:href="#a" transform="matrix(1,0,0,1,78.47548097157642,543.4942160430343) translate(0 14.6)"/><path d="M-620.34 70.42l1.3.08 1.8.2 1.8.26 1.75.34 1.75.4 1.72.48 1.72.56 1.7.64 1.72.72 1.73.82 1.76.9 1.8 1.04 1.8 1.16 1.87 1.3 1.92 1.45 1.98 1.65 2.07 1.87 2.17 2.1 2.3 2.45 2.43 2.83 2.6 3.3 2.86 3.92 3.14 4.72 3.52 5.83 4.1 7.46 5.02 10.15 7.04 15.92 31.32 76.8 5.02 10.14 4.1 7.47 3.5 5.83 3.15 4.72 2.85 3.92 2.6 3.3 2.45 2.82 2.3 2.44 2.16 2.13 2.07 1.87 2 1.64 1.9 1.46 1.87 1.3 1.82 1.15 1.78 1.03 1.76.92 1.73.8 1.7.74 1.72.63 1.72.56 1.72.48 1.74.42 1.76.34 1.78.26 1.82.2 1.3.07" stroke="#635dff" stroke-width="5" stroke-linejoin="round" fill="none"/><path d="M-620.23 67.9l-.1 5-2.5-.05v-5zM-462.85 273.97v5h-2.56v-5z" stroke="#635dff" stroke-width=".05" fill="#635dff"/><path d="M-806.25 1070.15h142.36v61.6h-142.36z" fill="none"/><use xlink:href="#b" transform="matrix(1,0,0,1,-786.2545190284236,1093.154216043034) translate(0 14.6)"/><use xlink:href="#c" transform="matrix(1,0,0,1,-786.2545190284236,1093.154216043034) translate(39.6 14.6)"/><path d="M-130.87 93.25h155" stroke="#635dff" stroke-width="5" stroke-linejoin="round" fill="none"/><path d="M-130.8 95.75h-2.57v-5h2.56zM26.63 95.75h-2.57v-5h2.57z" stroke="#635dff" stroke-width=".05" fill="#635dff"/><path d="M-378.43-135.7l.92.07 1.64.17 1.63.24 1.6.3 1.6.38 1.57.44 1.57.5 1.6.6 1.58.67 1.6.75 1.63.85 1.67.96 1.7 1.07 1.73 1.2 1.8 1.38 1.85 1.54 1.94 1.74 2.02 2 2.15 2.28 2.28 2.65 2.44 3.07 2.64 3.65 2.9 4.37 3.22 5.32 3.68 6.7 4.32 8.73 5.42 12.22 8.07 20.52 29.5 80.6 5.42 12.22 4.33 8.74 3.67 6.7 3.22 5.33 2.9 4.36 2.64 3.64 2.44 3.1 2.28 2.63 2.15 2.3 2.04 1.98 1.94 1.76 1.86 1.54 1.8 1.36 1.73 1.2 1.7 1.08 1.65.96 1.63.85 1.6.76 1.6.67 1.57.6 1.57.5 1.57.45 1.6.37 1.6.3 1.62.23 1.64.18.93.07" stroke="#635dff" stroke-width="5" stroke-linejoin="round" fill="none"/><path d="M-378.32-138.22l-.1 5-2.5-.06v-5zM-220.94 90.75v5h-2.56v-5z" stroke="#635dff" stroke-width=".05" fill="#635dff"/><path d="M-59.62 1146.76h155" stroke="#e81313" stroke-width="5" stroke-linejoin="round" fill="none"/><path d="M-59.56 1149.26h-2.56v-5h2.56zM97.88 1149.26H95.3v-5h2.58z" stroke="#e81313" stroke-width=".05" fill="#e81313"/><path d="M-492.44 749.52h99v61.6h-99z" fill="none"/><use xlink:href="#d" transform="matrix(1,0,0,1,-472.44451902842366,772.5192160430341) translate(0 14.6)"/><a xlink:href="https://github.com/plotly/plotly.py" target="_blank"><path d="M-462.85-166.58h81.92v61.6h-81.92z" fill="none"/><use xlink:href="#e" transform="matrix(1,0,0,1,-442.84451902842363,-143.58078395696566) translate(0 14.6)"/><path class="lucid-link lucid-hotspot lucid-overlay-hotspot" d="M-462.85-166.58h81.92v61.6h-81.92z" fill="none"/></a><path d="M-179.53 383.08h78v61.6h-78z" fill="none"/><use xlink:href="#f" transform="matrix(1,0,0,1,-159.53451902842357,406.0792160430343) translate(0 14.6)"/><path d="M97.88 1115.96h154.75v61.6H97.88z" fill="none"/><use xlink:href="#g" transform="matrix(1,0,0,1,117.87548097157651,1138.9592160430338) translate(0 14.6)"/><path d="M-462.85 245.66h101.02v61.6h-101.02z" fill="none"/><use xlink:href="#h" transform="matrix(1,0,0,1,-442.84451902842363,268.66421604303434) translate(0 14.6)"/><path d="M-201.84 245.66h95.92v61.6h-95.92z" fill="none"/><use xlink:href="#i" transform="matrix(1,0,0,1,-181.83451902842364,268.66421604303434) translate(0 14.6)"/><path d="M-246 1115.96H-62.1v61.6H-246z" fill="none"/><use xlink:href="#j" transform="matrix(1,0,0,1,-225.98451902842362,1138.9592160430338) translate(0 14.6)"/><path d="M-220.94-395.6h102.97v61.6h-102.97z" fill="none"/><use xlink:href="#k" transform="matrix(1,0,0,1,-200.93451902842367,-372.60578395696564) translate(0 14.6)"/><path d="M58.48 245.66h80.96v61.6H58.47z" fill="none"/><use xlink:href="#l" transform="matrix(1,0,0,1,78.47548097157642,268.66421604303434) translate(0 14.6)"/><path d="M58.48 337.27h114.96v61.6H58.47z" fill="none"/><use xlink:href="#m" transform="matrix(1,0,0,1,78.47548097157642,360.27421604303447) translate(0 14.6)"/><path d="M58.48 154.05h98.9v61.6h-98.9z" fill="none"/><use xlink:href="#n" transform="matrix(1,0,0,1,78.47548097157642,177.05421604303422) translate(0 14.6)"/><path d="M-578 505.55l1.75.03 3.96.25 3.75.4 3.55.52 3.4.64 3.25.76 3.16.88 3.08 1 3 1.12 3 1.25 2.94 1.4 2.96 1.55 3 1.73 3.06 1.94 3.18 2.2 3.34 2.55 3.6 3 4.06 3.64 4.86 4.78 7.17 7.67 22.08 24.57 4.86 4.77 4.04 3.64 3.6 3 3.35 2.53 3.17 2.2 3.06 1.95 3 1.73 2.96 1.55 2.95 1.4 2.97 1.24 3 1.12 3.08 1 3.16.88 3.26.76 3.4.65 3.54.52 3.74.4 3.96.25 1.75.03" stroke="#ba23f6" stroke-width="5" stroke-linejoin="round" fill="none"/><path d="M-577.88 503.05l-.1 5-2.5-.06v-5zM-420.5 594.6v5h-2.56v-5z" stroke="#ba23f6" stroke-width=".05" fill="#ba23f6"/><path d="M-337.03 413.88h155" stroke="#ba23f6" stroke-width="5" stroke-linejoin="round" fill="none"/><path d="M-336.97 416.38h-2.56v-5h2.56zM-179.53 416.38h-2.57v-5h2.56z" stroke="#ba23f6" stroke-width=".05" fill="#ba23f6"/><path d="M-492.44 841.13h108v61.6h-108z" fill="none"/><use xlink:href="#o" transform="matrix(1,0,0,1,-472.44451902842366,864.1292160430343) translate(0 14.6)"/><path d="M-806.25 39.54h183.4v61.6h-183.4z" fill="none"/><use xlink:href="#p" transform="matrix(1,0,0,1,-786.2545190284236,62.5417160430344) translate(0 14.6)"/><use xlink:href="#q" transform="matrix(1,0,0,1,-786.2545190284236,62.5417160430344) translate(42.95 14.6)"/><path d="M-806.25 795.32h153.8v61.6h-153.8z" fill="none"/><use xlink:href="#r" transform="matrix(1,0,0,1,-786.2545190284236,818.3242160430342) translate(0 14.6)"/><use xlink:href="#s" transform="matrix(1,0,0,1,-786.2545190284236,818.3242160430342) translate(42.95 14.6)"/><path d="M-503.9 1024.35h102.96v61.6H-503.9z" fill="none"/><use xlink:href="#t" transform="matrix(1,0,0,1,-483.8945190284236,1047.3492160430342) translate(0 14.6)"/><path d="M-99.02 413.97l.92.06 1.65.17 1.63.24 1.6.3 1.6.38 1.57.44 1.57.5 1.58.6 1.6.67 1.6.75 1.62.85 1.66.96 1.7 1.06 1.73 1.2 1.8 1.38 1.86 1.53 1.94 1.75 2.03 2 2.15 2.28 2.28 2.65 2.44 3.08 2.65 3.65 2.9 4.37 3.22 5.33 3.68 6.7 4.32 8.73 5.42 12.23 8.06 20.53 29.5 80.6 5.42 12.22L7 599.92l3.68 6.7 3.22 5.33 2.9 4.37 2.65 3.64 2.44 3.1 2.27 2.63 2.15 2.28 2.03 2 1.94 1.74 1.85 1.54 1.8 1.36 1.73 1.2 1.7 1.08 1.65.96 1.63.85 1.6.77 1.6.66 1.57.6 1.58.5 1.58.44 1.6.38 1.6.3 1.62.24 1.65.17.93.06" stroke="#ba23f6" stroke-width="5" stroke-linejoin="round" fill="none"/><path d="M-98.9 411.44l-.1 5-2.53-.06v-5zM58.48 640.4v5H55.9v-5z" stroke="#ba23f6" stroke-width=".05" fill="#ba23f6"/><path d="M-420.5 383.08h80.96v61.6h-80.95z" fill="none"/><use xlink:href="#u" transform="matrix(1,0,0,1,-400.4945190284236,406.0792160430343) translate(0 14.6)"/><path d="M-420.5 566.3h79.96v61.6h-79.95z" fill="none"/><use xlink:href="#v" transform="matrix(1,0,0,1,-400.4945190284236,589.2992160430343) translate(0 14.6)"/><path d="M-963.76 585.83l.58.08.76.16.77.18.77.2.8.27.78.3.8.35.84.4.86.43.88.5.9.6.96.65 1 .75 1.03.87 1.1 1 1.16 1.13 1.25 1.33 1.33 1.55 1.46 1.83 1.57 2.16 1.72 2.6 1.9 3.16 2.14 3.9 2.4 4.86 2.78 6.25 3.24 8.2 3.87 11.17 4.76 15.9 6.2 24.33 9.04 43 48.72 281.8 6.2 24.35 4.78 15.9 3.87 11.15 3.24 8.2 2.78 6.25 2.42 4.88 2.13 3.88 1.9 3.17 1.73 2.6 1.57 2.16 1.45 1.83 1.33 1.55 1.26 1.33 1.16 1.15 1.1 1 1.04.85 1 .75.94.66.9.58.9.5.85.46.83.4.8.33.8.3.8.26.76.22.77.18.77.14.58.1" stroke="#e81313" stroke-width="5" stroke-linejoin="round" fill="none"/><path d="M-963.64 583.2l-.1 5-2.7-.05.2-2.5-.2-2.5zM-806.25 1098.46v5h-2.57v-5z" stroke="#e81313" stroke-width=".05" fill="#e81313"/><path d="M-420.5 474.7h135.92v61.6H-420.5z" fill="none"/><use xlink:href="#w" transform="matrix(1,0,0,1,-400.4945190284236,497.68921604303443) translate(0 14.6)"/><path d="M-403.48 1146.76h155" stroke="#e81313" stroke-width="5" stroke-linejoin="round" fill="none"/><path d="M-403.42 1149.26h-2.56v-5h2.56zM-246 1149.26h-2.55v-5h2.56z" stroke="#e81313" stroke-width=".05" fill="#e81313"/><path d="M58.48 428.88h87v61.6h-87z" fill="none"/><use xlink:href="#x" transform="matrix(1,0,0,1,78.47548097157642,451.88421604303437) translate(0 14.6)"/><path d="M-220.94-120.78h148.87v61.6h-148.87z" fill="none"/><use xlink:href="#y" transform="matrix(1,0,0,1,-200.93451902842367,-97.7757839569656) translate(0 14.6)"/><path d="M26.63 62.44H228.5v61.6H26.6z" fill="none"/><use xlink:href="#z" transform="matrix(1,0,0,1,46.62548097157628,85.44421604303432) translate(0 14.6)"/><path d="M-359.33 276.47h155" stroke="#635dff" stroke-width="5" stroke-linejoin="round" fill="none"/><path d="M-359.27 278.97h-2.56v-5h2.56zM-201.84 278.97h-2.56v-5h2.56z" stroke="#635dff" stroke-width=".05" fill="#635dff"/><path d="M-661.4 1101l5.7.13 7.2.45 6.46.67 5.87.87 5.44 1.04 5.1 1.2 4.9 1.36 4.82 1.56 4.82 1.8 5.08 2.14 5.7 2.7 7.8 4.08 25 13.8 5.7 2.7 5.1 2.14 4.82 1.8 4.8 1.56 4.9 1.37 5.12 1.2 5.44 1.03 5.87.87 6.45.68 7.2.45 5.7.1" stroke="#e81313" stroke-width="5" stroke-linejoin="round" fill="none"/><path d="M-661.28 1098.5l-.1 5-2.5-.04v-5zM-503.9 1144.26v5h-2.56v-5z" stroke="#e81313" stroke-width=".05" fill="#e81313"/><path d="M-220.94-29.17h63.97v61.6h-63.97z" fill="none"/><use xlink:href="#A" transform="matrix(1,0,0,1,-200.93451902842367,-6.165783956965697) translate(0 14.6)"/><path d="M-649.94 826.18h.36l2.73.18 2.64.28 2.53.37 2.47.48 2.42.57 2.36.66 2.33.77 2.32.86 2.3.96 2.28 1.07 2.3 1.2 2.32 1.34 2.36 1.5 2.4 1.68 2.48 1.88 2.56 2.12 2.68 2.42 2.84 2.77 3.03 3.24 3.32 3.85 3.7 4.7 4.4 6.06 5.73 8.66 30.98 50.8 4.4 6.05 3.72 4.72 3.32 3.84 3.04 3.24 2.83 2.78 2.7 2.4 2.55 2.13 2.47 1.9 2.4 1.67 2.37 1.5 2.3 1.33 2.3 1.2 2.3 1.08 2.3.97 2.3.86 2.33.76 2.36.66 2.4.57 2.48.46 2.55.38 2.63.27 2.74.2h.36" stroke="#d916a8" stroke-width="5" stroke-linejoin="round" fill="none"/><path d="M-649.83 823.68l-.1 5-2.52-.05v-5zM-492.44 961.04v5H-495v-5z" stroke="#d916a8" stroke-width=".05" fill="#d916a8"/><path d="M-492.44 657.9h93.95v61.62h-93.94z" fill="none"/><use xlink:href="#B" transform="matrix(1,0,0,1,-472.44451902842366,680.9092160430342) translate(0 14.6)"/><path d="M-492.44 932.74h81.9v61.6h-81.9z" fill="none"/><use xlink:href="#C" transform="matrix(1,0,0,1,-472.44451902842366,955.7392160430342) translate(0 14.6)"/><path d="M58.48 612.1h125.86v61.6H58.47z" fill="none"/><use xlink:href="#D" transform="matrix(1,0,0,1,78.47548097157642,635.1042160430344) translate(0 14.6)"/><path d="M-1206.26 585.65a40 40 0 0 1 40-40h160a40 40 0 0 1 40 40 40 40 0 0 1-40 40h-160a40 40 0 0 1-40-40z" fill="#fff"/><use xlink:href="#E" transform="matrix(1,0,0,1,-1206.2545190284236,545.6529660430342) translate(57.86111111111111 44)"/><use xlink:href="#F" transform="matrix(1,0,0,1,-1206.2545190284236,545.6529660430342) translate(106.63888888888889 44)"/><path d="M-220.94 62.44h87.56v61.6h-87.56z" fill="none"/><use xlink:href="#G" transform="matrix(1,0,0,1,-200.93451902842367,85.44421604303432) translate(0 14.6)"/><path d="M-462.85 154.05h107.97v61.6h-107.97z" fill="none"/><use xlink:href="#H" transform="matrix(1,0,0,1,-442.84451902842363,177.05421604303422) translate(0 14.6)"/><path d="M-503.9 1115.96h97.9v61.6h-97.9z" fill="none"/><use xlink:href="#I" transform="matrix(1,0,0,1,-483.8945190284236,1138.9592160430338) translate(0 14.6)"/><path d="M-806.25 474.7h225.75v61.6h-225.75z" fill="none"/><use xlink:href="#J" transform="matrix(1,0,0,1,-786.2545190284236,497.68921604303443) translate(0 14.6)"/><path d="M-220.94-212.4h106.97v61.62h-106.97z" fill="none"/><use xlink:href="#K" transform="matrix(1,0,0,1,-200.93451902842367,-189.3857839569656) translate(0 14.6)"/><path d="M-220.94-304h128.9l.02 61.6h-128.92z" fill="none"/><use xlink:href="#L" transform="matrix(1,0,0,1,-200.93451902842367,-280.9957839569656) translate(0 14.6)"/><path d="M-661.4 1100.9l5.7-.1 7.2-.46 6.46-.67 5.87-.87 5.44-1.04 5.1-1.2 4.9-1.36 4.82-1.56 4.82-1.8 5.08-2.14 5.7-2.7 7.8-4.08 25-13.8 5.7-2.7 5.1-2.14 4.82-1.8 4.8-1.56 4.9-1.37 5.12-1.2 5.44-1.04 5.87-.85 6.45-.68 7.2-.45 5.7-.12" stroke="#e81313" stroke-width="5" stroke-linejoin="round" fill="none"/><path d="M-661.28 1103.4l-2.62.06v-5l2.52-.05zM-503.9 1057.65h-2.56v-5h2.56z" stroke="#e81313" stroke-width=".05" fill="#e81313"/><path d="M-649.94 826.18l5.7.12 7.2.45 6.45.67 5.88.87 5.44 1.03 5.1 1.2 4.9 1.36 4.82 1.55 4.84 1.8 5.07 2.14 5.7 2.68 7.8 4.1 25 13.8 5.7 2.7 5.1 2.13 4.82 1.8 4.8 1.57 4.9 1.37 5.12 1.2 5.43 1.03 5.87.87 6.45.68 7.2.45 5.7.1" stroke="#d916a8" stroke-width="5" stroke-linejoin="round" fill="none"/><path d="M-649.83 823.68l-.1 5-2.52-.05v-5zM-492.44 869.43v5H-495v-5z" stroke="#d916a8" stroke-width=".05" fill="#d916a8"/><path d="M-620.34 70.4l.9.02 3.25.2 3.1.32 2.97.44 2.86.55 2.77.65 2.7.75 2.65.86 2.6.96 2.6 1.1 2.57 1.2 2.57 1.35 2.6 1.5 2.63 1.7 2.7 1.86 2.8 2.12 2.9 2.4 3.1 2.8 3.32 3.26 3.7 3.94 4.3 5 5.52 6.98 30.3 41.48 4.3 5 3.7 3.93 3.32 3.26 3.08 2.78 2.9 2.42 2.8 2.12 2.7 1.88 2.64 1.68 2.6 1.5 2.57 1.34 2.57 1.22 2.58 1.08 2.6.97 2.66.87 2.7.76 2.78.65 2.86.54 2.97.44 3.1.33 3.24.2h.92" stroke="#635dff" stroke-width="5" stroke-linejoin="round" fill="none"/><path d="M-620.23 67.9l-.1 5-2.5-.05v-5zM-462.85 182.36v5h-2.56v-5z" stroke="#635dff" stroke-width=".05" fill="#635dff"/><path d="M-578 505.5h155" stroke="#ba23f6" stroke-width="5" stroke-linejoin="round" fill="none"/><path d="M-577.93 508h-2.57v-5h2.57zM-420.5 508h-2.56v-5h2.56z" stroke="#ba23f6" stroke-width=".05" fill="#ba23f6"/><path d="M-378.43-135.72h.36l2.73.18 2.64.27 2.54.38 2.47.48 2.43.56 2.36.67 2.32.76 2.3.86 2.3.97 2.3 1.06 2.3 1.2 2.3 1.35 2.37 1.5 2.4 1.67 2.47 1.88 2.56 2.13 2.68 2.4 2.85 2.8 3.03 3.22 3.32 3.85 3.72 4.7 4.4 6.06 5.72 8.65 30.98 50.8 4.4 6.06 3.7 4.7 3.33 3.86 3.04 3.24 2.82 2.77 2.68 2.42 2.56 2.1 2.48 1.9 2.4 1.66 2.36 1.5 2.32 1.34 2.3 1.2 2.3 1.08 2.28.96 2.3.86 2.34.76 2.36.66 2.42.56 2.47.48 2.53.37 2.64.28 2.74.18h.37" stroke="#635dff" stroke-width="5" stroke-linejoin="round" fill="none"/><path d="M-378.32-138.22l-.1 5-2.5-.06v-5zM-220.94-.86v5h-2.56v-5z" stroke="#635dff" stroke-width=".05" fill="#635dff"/><path d="M-99.02 413.94h.36l2.73.18 2.64.27 2.55.37 2.47.47 2.42.56 2.36.67 2.33.75 2.3.86 2.3.97 2.3 1.07 2.3 1.2 2.3 1.35 2.37 1.5 2.4 1.66 2.48 1.88 2.56 2.14 2.68 2.4 2.84 2.8 3.03 3.22 3.3 3.85 3.73 4.72 4.4 6.05 5.72 8.64 30.98 50.82 4.4 6.05 3.7 4.7 3.33 3.85 3.04 3.24 2.83 2.77 2.68 2.42 2.57 2.12 2.47 1.88 2.4 1.67 2.37 1.5 2.33 1.34 2.3 1.2 2.3 1.08 2.28.96 2.32.86 2.33.76 2.36.66 2.43.56 2.47.48 2.54.37 2.64.27 2.73.17H56" stroke="#ba23f6" stroke-width="5" stroke-linejoin="round" fill="none"/><path d="M-98.9 411.44l-.1 5-2.53-.06v-5zM58.48 548.8v5H55.9v-5z" stroke="#ba23f6" stroke-width=".05" fill="#ba23f6"/><path d="M-963.75 585.74l.76.05 1.6.16 1.54.22 1.54.3 1.52.36 1.52.42 1.5.5 1.53.56 1.53.64 1.55.73 1.57.8 1.6.93 1.63 1.04 1.7 1.17 1.72 1.32 1.8 1.5 1.88 1.68 1.98 1.94 2.1 2.22 2.2 2.56 2.37 3 2.56 3.53 2.8 4.22 3.12 5.14 3.52 6.42 4.1 8.27 5 11.3 6.87 17.4L-865 765.04l5.02 11.3 4.1 8.28 3.52 6.42 3.1 5.15 2.82 4.22 2.56 3.52 2.37 3 2.2 2.57 2.08 2.2 1.98 1.94 1.88 1.7 1.8 1.48 1.74 1.32 1.68 1.17 1.63 1.05 1.6.92 1.56.83 1.55.72 1.54.65 1.52.56 1.5.5 1.53.42 1.5.35 1.55.3 1.55.23 1.58.16.77.04" stroke="#d916a8" stroke-width="5" stroke-linejoin="round" fill="none"/><path d="M-963.64 583.2l-.1 5-2.7-.05.2-2.5-.2-2.5zM-806.25 823.63v5h-2.57v-5z" stroke="#d916a8" stroke-width=".05" fill="#d916a8"/><path d="M-99.02 413.94l5.7.1 7.2.46 6.45.68 5.87.86 5.44 1.04 5.1 1.2 4.9 1.37 4.82 1.56 4.84 1.8 5.07 2.14 5.7 2.7 7.8 4.08 25 13.82 5.7 2.7 5.1 2.13 4.82 1.8 4.8 1.56 4.9 1.37 5.1 1.2 5.45 1.03 5.87.87 6.45.67 7.2.45 5.7.12" stroke="#ba23f6" stroke-width="5" stroke-linejoin="round" fill="none"/><path d="M-98.9 411.44l-.1 5-2.53-.06v-5zM58.48 457.2v5H55.9v-5z" stroke="#ba23f6" stroke-width=".05" fill="#ba23f6"/><path d="M-620.34 70.27l1.3-.08 1.8-.2 1.8-.27 1.75-.33 1.75-.4 1.72-.5 1.72-.55 1.7-.64 1.72-.7 1.73-.82 1.76-.92 1.8-1.03 1.8-1.16 1.87-1.3 1.92-1.45 1.98-1.65 2.07-1.86 2.17-2.12 2.3-2.44 2.43-2.83 2.6-3.3 2.86-3.9 3.14-4.72 3.52-5.83 4.1-7.46 5.02-10.16 7.04-15.92 31.32-76.8 5.02-10.14 4.1-7.46 3.5-5.83 3.15-4.73 2.85-3.9 2.6-3.3 2.45-2.84 2.3-2.44 2.16-2.14 2.07-1.86 2-1.65 1.9-1.46 1.87-1.3 1.82-1.16 1.78-1.03 1.76-.9 1.73-.82 1.7-.72 1.72-.64 1.72-.56 1.72-.48 1.74-.4 1.76-.34 1.78-.27 1.82-.2 1.3-.07" stroke="#635dff" stroke-width="5" stroke-linejoin="round" fill="none"/><path d="M-620.23 72.8l-2.62.05v-5l2.52-.06zM-462.85-133.28h-2.56v-5h2.55z" stroke="#635dff" stroke-width=".05" fill="#635dff"/><path d="M-649.94 826.08l5.7-.12 7.2-.45 6.45-.66 5.88-.87 5.44-1.04 5.1-1.2 4.9-1.36 4.82-1.56 4.84-1.8 5.07-2.13 5.7-2.7 7.8-4.08 25-13.82 5.7-2.7 5.1-2.13 4.82-1.8 4.8-1.56 4.9-1.38 5.12-1.2 5.43-1.04 5.87-.86 6.45-.68 7.2-.45 5.7-.13" stroke="#d916a8" stroke-width="5" stroke-linejoin="round" fill="none"/><path d="M-649.83 828.58l-2.62.05v-5l2.52-.05zM-492.44 782.82H-495v-5h2.56z" stroke="#d916a8" stroke-width=".05" fill="#d916a8"/><path d="M-578 505.44l1.75-.03 3.96-.24 3.75-.4 3.55-.52 3.4-.64 3.25-.77 3.16-.88 3.08-1 3-1.12 3-1.25 2.94-1.4 2.96-1.54 3-1.73 3.06-1.93 3.18-2.2 3.34-2.55 3.6-3 4.06-3.64 4.86-4.77 7.17-7.66 22.08-24.57 4.86-4.77 4.04-3.65 3.6-3 3.35-2.53 3.17-2.2 3.06-1.95 3-1.73 2.96-1.55 2.95-1.4 2.97-1.25 3-1.12 3.08-1 3.16-.88 3.26-.77 3.4-.64 3.54-.53 3.74-.38 3.96-.25 1.75-.03" stroke="#ba23f6" stroke-width="5" stroke-linejoin="round" fill="none"/><path d="M-577.88 507.94l-2.62.06v-5l2.52-.06zM-420.5 416.38h-2.56v-5h2.56z" stroke="#ba23f6" stroke-width=".05" fill="#ba23f6"/><path d="M-378.43-135.72l5.7.1 7.2.46 6.45.68 5.87.86 5.43 1.04 5.1 1.2 4.9 1.37 4.82 1.55 4.83 1.8 5.08 2.13 5.7 2.7 7.8 4.08 25 13.82 5.7 2.7 5.1 2.13 4.82 1.8 4.8 1.57 4.9 1.37 5.12 1.2 5.44 1.03 5.87.86 6.46.68 7.2.46 5.7.12" stroke="#635dff" stroke-width="5" stroke-linejoin="round" fill="none"/><path d="M-378.32-138.22l-.1 5-2.5-.06v-5zM-220.94-92.47v5h-2.56v-5z" stroke="#635dff" stroke-width=".05" fill="#635dff"/><path d="M-963.75 585.6l2.32-.05 4.47-.28 4.18-.44 3.93-.58 3.74-.7 3.57-.85 3.44-.96 3.36-1.1 3.27-1.2 3.23-1.36 3.22-1.5 3.23-1.7 3.3-1.9 3.42-2.18 3.6-2.5 3.94-3 4.5-3.73 5.87-5.3 27.7-26.7 4.5-3.73 3.94-3 3.6-2.5 3.4-2.16 3.3-1.9 3.25-1.7 3.2-1.5 3.24-1.37 3.27-1.2 3.35-1.1 3.44-.95 3.58-.84 3.74-.7 3.93-.6 4.18-.43 4.47-.28 2.33-.05" stroke="#ba23f6" stroke-width="5" stroke-linejoin="round" fill="none"/><path d="M-963.64 588.1l-2.8.06.2-2.5-.2-2.5 2.7-.06zM-806.25 508h-2.57v-5h2.57z" stroke="#ba23f6" stroke-width=".05" fill="#ba23f6"/><path d="M-99.02 413.83l5.7-.1 7.2-.46 6.45-.68 5.87-.88 5.44-1.03 5.1-1.2 4.9-1.38 4.82-1.56 4.84-1.8 5.07-2.13 5.7-2.7 7.8-4.1 25-13.8 5.7-2.7 5.1-2.13 4.82-1.8 4.8-1.56 4.9-1.37 5.1-1.2 5.45-1.03 5.87-.87 6.45-.67 7.2-.45 5.7-.12" stroke="#ba23f6" stroke-width="5" stroke-linejoin="round" fill="none"/><path d="M-98.9 416.33l-2.63.06v-5.02l2.52-.05zM58.48 370.58H55.9v-5h2.58z" stroke="#ba23f6" stroke-width=".05" fill="#ba23f6"/><path d="M-649.94 826.08h.36l2.73-.18 2.64-.28 2.53-.37 2.47-.48 2.42-.56 2.36-.65 2.33-.76 2.32-.87 2.3-.96 2.28-1.08 2.3-1.2 2.32-1.35 2.36-1.5 2.4-1.67 2.48-1.88 2.56-2.12 2.68-2.42 2.84-2.77 3.03-3.25 3.32-3.85 3.7-4.7 4.4-6.05 5.73-8.65 30.98-50.8 4.4-6.05 3.72-4.7 3.32-3.86 3.04-3.24 2.83-2.78 2.7-2.4 2.55-2.14 2.47-1.88 2.4-1.67 2.37-1.5 2.3-1.34 2.3-1.2 2.3-1.1 2.3-.95 2.3-.85 2.33-.75 2.36-.66 2.4-.57 2.48-.47 2.55-.38 2.63-.27 2.74-.18h.36" stroke="#d916a8" stroke-width="5" stroke-linejoin="round" fill="none"/><path d="M-649.83 828.58l-2.62.05v-5l2.52-.05zM-492.44 691.2H-495v-5h2.56z" stroke="#d916a8" stroke-width=".05" fill="#d916a8"/><path d="M-963.76 585.48l.58-.1.76-.13.77-.18.77-.22.8-.25.78-.3.8-.34.84-.4.86-.44.88-.5.9-.58.96-.66 1-.76 1.03-.86 1.1-1 1.16-1.13 1.25-1.33 1.33-1.55 1.46-1.82 1.57-2.17 1.72-2.6 1.9-3.15 2.14-3.88 2.4-4.88 2.78-6.24 3.24-8.2 3.87-11.16 4.76-15.9 6.2-24.34 9.04-43 48.72-281.8 6.2-24.35 4.78-15.9 3.87-11.14 3.24-8.2 2.78-6.24 2.42-4.88 2.13-3.9 1.9-3.15 1.73-2.6 1.57-2.16 1.45-1.82 1.33-1.55 1.26-1.33 1.16-1.14 1.1-1 1.04-.85 1-.76.94-.66.9-.58.9-.5.85-.45.83-.4.8-.33.8-.3.8-.25.76-.22.77-.18.77-.14.58-.08" stroke="#635dff" stroke-width="5" stroke-linejoin="round" fill="none"/><path d="M-963.64 588.1l-2.8.06.2-2.5-.2-2.5 2.7-.06zM-806.25 72.85h-2.57v-5h2.57z" stroke="#635dff" stroke-width=".05" fill="#635dff"/><path d="M-378.43-135.83l5.7-.1 7.2-.46 6.45-.67 5.87-.87 5.43-1.03 5.1-1.2 4.9-1.37 4.82-1.56 4.83-1.8 5.08-2.13 5.7-2.7 7.8-4.1 25-13.8 5.7-2.7 5.1-2.13 4.82-1.8 4.8-1.56 4.9-1.37 5.12-1.2 5.44-1.02 5.87-.87 6.46-.66 7.2-.45 5.7-.13" stroke="#635dff" stroke-width="5" stroke-linejoin="round" fill="none"/><path d="M-378.32-133.33l-2.62.06v-5l2.52-.06zM-220.94-179.08h-2.56v-5h2.56z" stroke="#635dff" stroke-width=".05" fill="#635dff"/><path d="M-99.02 413.83h.36l2.73-.18 2.64-.27 2.55-.38 2.47-.47 2.42-.57 2.36-.66 2.33-.75 2.3-.86 2.3-.98 2.3-1.08 2.3-1.2 2.3-1.34 2.37-1.5 2.4-1.67 2.48-1.88 2.56-2.12 2.68-2.4 2.84-2.8 3.03-3.23 3.3-3.84 3.73-4.7 4.4-6.06 5.72-8.64 30.98-50.8 4.4-6.06 3.7-4.7 3.33-3.85 3.04-3.24 2.83-2.76 2.68-2.42 2.57-2.12 2.47-1.88 2.4-1.67 2.37-1.5 2.33-1.34 2.3-1.2 2.3-1.07 2.28-.96 2.32-.86 2.33-.75 2.36-.66 2.43-.58 2.47-.47 2.54-.37 2.64-.28 2.73-.17H56" stroke="#ba23f6" stroke-width="5" stroke-linejoin="round" fill="none"/><path d="M-98.9 416.33l-2.63.06v-5.02l2.52-.05zM58.48 278.97H55.9v-5h2.58z" stroke="#ba23f6" stroke-width=".05" fill="#ba23f6"/><path d="M-378.43-135.83h.36l2.73-.18 2.64-.28 2.54-.38 2.47-.47 2.43-.57 2.36-.66 2.32-.75 2.3-.87 2.3-.97 2.3-1.07 2.3-1.22 2.3-1.34 2.37-1.5 2.4-1.67 2.47-1.88 2.56-2.13 2.68-2.4 2.85-2.8 3.03-3.22 3.32-3.85 3.72-4.7 4.4-6.06 5.72-8.64 30.98-50.8 4.4-6.06 3.7-4.7 3.33-3.85 3.04-3.25 2.82-2.77 2.68-2.42 2.56-2.12 2.48-1.88 2.4-1.67 2.36-1.5 2.32-1.35 2.3-1.2 2.3-1.08 2.28-.96 2.3-.85 2.34-.76 2.36-.67 2.42-.57 2.47-.47 2.53-.38 2.64-.28 2.74-.17h.37" stroke="#635dff" stroke-width="5" stroke-linejoin="round" fill="none"/><path d="M-378.32-133.33l-2.62.06v-5l2.52-.06zM-220.94-270.7h-2.56v-5h2.56z" stroke="#635dff" stroke-width=".05" fill="#635dff"/><path d="M-99.02 413.8l.92-.06 1.65-.17 1.63-.24 1.6-.3 1.6-.38 1.57-.44 1.57-.5 1.58-.6 1.6-.66 1.6-.75 1.62-.87 1.66-.95 1.7-1.08 1.73-1.2 1.8-1.37 1.86-1.54 1.94-1.75 2.03-2 2.15-2.28 2.28-2.65 2.44-3.08 2.65-3.65 2.9-4.38 3.22-5.34 3.68-6.7 4.32-8.72 5.42-12.23 8.06-20.52 29.5-80.6 5.42-12.22L7 227.85l3.68-6.7 3.22-5.33 2.9-4.37 2.65-3.64 2.44-3.08 2.27-2.64 2.15-2.3 2.03-1.98 1.94-1.75 1.85-1.54 1.8-1.35 1.73-1.2 1.7-1.08 1.65-.96 1.63-.84 1.6-.76 1.6-.67 1.57-.58 1.58-.52 1.58-.44 1.6-.38 1.6-.3 1.62-.24 1.65-.18.93-.06" stroke="#ba23f6" stroke-width="5" stroke-linejoin="round" fill="none"/><path d="M-98.9 416.33l-2.63.06v-5.02l2.52-.05zM58.48 187.36H55.9v-5h2.58z" stroke="#ba23f6" stroke-width=".05" fill="#ba23f6"/><path d="M-378.43-135.86l.92-.06 1.64-.17 1.63-.23 1.6-.3 1.6-.38 1.57-.45 1.57-.5 1.6-.6 1.58-.67 1.6-.75 1.63-.85 1.67-.96 1.7-1.08 1.73-1.2 1.8-1.37 1.85-1.54 1.94-1.74 2.02-2 2.15-2.3 2.28-2.64 2.44-3.1 2.64-3.63 2.9-4.37 3.22-5.34 3.68-6.7 4.32-8.72 5.42-12.22 8.07-20.53 29.5-80.6 5.42-12.23 4.33-8.73 3.67-6.7 3.22-5.34 2.9-4.37 2.64-3.65 2.44-3.1 2.28-2.63 2.15-2.3 2.04-1.98 1.94-1.75 1.86-1.55 1.8-1.36 1.73-1.22 1.7-1.07 1.65-.95 1.63-.85 1.6-.76 1.6-.66 1.57-.6 1.57-.5 1.57-.45 1.6-.37 1.6-.3 1.62-.25 1.64-.16.93-.06" stroke="#635dff" stroke-width="5" stroke-linejoin="round" fill="none"/><path d="M-378.32-133.33l-2.62.06v-5l2.52-.06zM-220.94-362.3h-2.56v-5h2.56z" stroke="#635dff" stroke-width=".05" fill="#635dff"/><path d="M58.48 520.5h150.96v61.6H58.47z" fill="none"/><use xlink:href="#a" transform="matrix(1,0,0,1,78.47548097157642,543.4942160430343) translate(0 14.6)"/><path d="M-620.34 70.42l1.3.08 1.8.2 1.8.26 1.75.34 1.75.4 1.72.48 1.72.56 1.7.64 1.72.72 1.73.82 1.76.9 1.8 1.04 1.8 1.16 1.87 1.3 1.92 1.45 1.98 1.65 2.07 1.87 2.17 2.1 2.3 2.45 2.43 2.83 2.6 3.3 2.86 3.92 3.14 4.72 3.52 5.83 4.1 7.46 5.02 10.15 7.04 15.92 31.32 76.8 5.02 10.14 4.1 7.47 3.5 5.83 3.15 4.72 2.85 3.92 2.6 3.3 2.45 2.82 2.3 2.44 2.16 2.13 2.07 1.87 2 1.64 1.9 1.46 1.87 1.3 1.82 1.15 1.78 1.03 1.76.92 1.73.8 1.7.74 1.72.63 1.72.56 1.72.48 1.74.42 1.76.34 1.78.26 1.82.2 1.3.07" stroke="#635dff" stroke-width="5" stroke-linejoin="round" fill="none"/><path d="M-620.23 67.9l-.1 5-2.5-.05v-5zM-462.85 273.97v5h-2.56v-5z" stroke="#635dff" stroke-width=".05" fill="#635dff"/><path d="M-806.25 1070.15h142.36v61.6h-142.36z" fill="none"/><use xlink:href="#b" transform="matrix(1,0,0,1,-786.2545190284236,1093.154216043034) translate(0 14.6)"/><use xlink:href="#c" transform="matrix(1,0,0,1,-786.2545190284236,1093.154216043034) translate(39.6 14.6)"/><path d="M-130.87 93.25h155" stroke="#635dff" stroke-width="5" stroke-linejoin="round" fill="none"/><path d="M-130.8 95.75h-2.57v-5h2.56zM26.63 95.75h-2.57v-5h2.57z" stroke="#635dff" stroke-width=".05" fill="#635dff"/><path d="M-378.43-135.7l.92.07 1.64.17 1.63.24 1.6.3 1.6.38 1.57.44 1.57.5 1.6.6 1.58.67 1.6.75 1.63.85 1.67.96 1.7 1.07 1.73 1.2 1.8 1.38 1.85 1.54 1.94 1.74 2.02 2 2.15 2.28 2.28 2.65 2.44 3.07 2.64 3.65 2.9 4.37 3.22 5.32 3.68 6.7 4.32 8.73 5.42 12.22 8.07 20.52 29.5 80.6 5.42 12.22 4.33 8.74 3.67 6.7 3.22 5.33 2.9 4.36 2.64 3.64 2.44 3.1 2.28 2.63 2.15 2.3 2.04 1.98 1.94 1.76 1.86 1.54 1.8 1.36 1.73 1.2 1.7 1.08 1.65.96 1.63.85 1.6.76 1.6.67 1.57.6 1.57.5 1.57.45 1.6.37 1.6.3 1.62.23 1.64.18.93.07" stroke="#635dff" stroke-width="5" stroke-linejoin="round" fill="none"/><path d="M-378.32-138.22l-.1 5-2.5-.06v-5zM-220.94 90.75v5h-2.56v-5z" stroke="#635dff" stroke-width=".05" fill="#635dff"/><path d="M-59.62 1146.76h155" stroke="#e81313" stroke-width="5" stroke-linejoin="round" fill="none"/><path d="M-59.56 1149.26h-2.56v-5h2.56zM97.88 1149.26H95.3v-5h2.58z" stroke="#e81313" stroke-width=".05" fill="#e81313"/><path d="M-492.44 749.52h99v61.6h-99z" fill="none"/><use xlink:href="#d" transform="matrix(1,0,0,1,-472.44451902842366,772.5192160430341) translate(0 14.6)"/><a xlink:href="https://github.com/plotly/plotly.py" target="_blank"><path d="M-462.85-166.58h81.92v61.6h-81.92z" fill="none"/><use xlink:href="#e" transform="matrix(1,0,0,1,-442.84451902842363,-143.58078395696566) translate(0 14.6)"/><path class="lucid-link lucid-hotspot lucid-overlay-hotspot" d="M-462.85-166.58h81.92v61.6h-81.92z" fill="none"/></a><path d="M-179.53 383.08h78v61.6h-78z" fill="none"/><use xlink:href="#f" transform="matrix(1,0,0,1,-159.53451902842357,406.0792160430343) translate(0 14.6)"/><path d="M97.88 1115.96h154.75v61.6H97.88z" fill="none"/><use xlink:href="#g" transform="matrix(1,0,0,1,117.87548097157651,1138.9592160430338) translate(0 14.6)"/><path d="M-462.85 245.66h101.02v61.6h-101.02z" fill="none"/><use xlink:href="#h" transform="matrix(1,0,0,1,-442.84451902842363,268.66421604303434) translate(0 14.6)"/><path d="M-201.84 245.66h95.92v61.6h-95.92z" fill="none"/><use xlink:href="#i" transform="matrix(1,0,0,1,-181.83451902842364,268.66421604303434) translate(0 14.6)"/><path d="M-246 1115.96H-62.1v61.6H-246z" fill="none"/><use xlink:href="#j" transform="matrix(1,0,0,1,-225.98451902842362,1138.9592160430338) translate(0 14.6)"/><path d="M-220.94-395.6h102.97v61.6h-102.97z" fill="none"/><use xlink:href="#k" transform="matrix(1,0,0,1,-200.93451902842367,-372.60578395696564) translate(0 14.6)"/><path d="M58.48 245.66h80.96v61.6H58.47z" fill="none"/><use xlink:href="#l" transform="matrix(1,0,0,1,78.47548097157642,268.66421604303434) translate(0 14.6)"/><path d="M58.48 337.27h114.96v61.6H58.47z" fill="none"/><use xlink:href="#m" transform="matrix(1,0,0,1,78.47548097157642,360.27421604303447) translate(0 14.6)"/><path d="M58.48 154.05h98.9v61.6h-98.9z" fill="none"/><use xlink:href="#n" transform="matrix(1,0,0,1,78.47548097157642,177.05421604303422) translate(0 14.6)"/><path d="M-578 505.55l1.75.03 3.96.25 3.75.4 3.55.52 3.4.64 3.25.76 3.16.88 3.08 1 3 1.12 3 1.25 2.94 1.4 2.96 1.55 3 1.73 3.06 1.94 3.18 2.2 3.34 2.55 3.6 3 4.06 3.64 4.86 4.78 7.17 7.67 22.08 24.57 4.86 4.77 4.04 3.64 3.6 3 3.35 2.53 3.17 2.2 3.06 1.95 3 1.73 2.96 1.55 2.95 1.4 2.97 1.24 3 1.12 3.08 1 3.16.88 3.26.76 3.4.65 3.54.52 3.74.4 3.96.25 1.75.03" stroke="#ba23f6" stroke-width="5" stroke-linejoin="round" fill="none"/><path d="M-577.88 503.05l-.1 5-2.5-.06v-5zM-420.5 594.6v5h-2.56v-5z" stroke="#ba23f6" stroke-width=".05" fill="#ba23f6"/><path d="M-337.03 413.88h155" stroke="#ba23f6" stroke-width="5" stroke-linejoin="round" fill="none"/><path d="M-336.97 416.38h-2.56v-5h2.56zM-179.53 416.38h-2.57v-5h2.56z" stroke="#ba23f6" stroke-width=".05" fill="#ba23f6"/><path d="M-492.44 841.13h108v61.6h-108z" fill="none"/><use xlink:href="#o" transform="matrix(1,0,0,1,-472.44451902842366,864.1292160430343) translate(0 14.6)"/><path d="M-806.25 39.54h183.4v61.6h-183.4z" fill="none"/><use xlink:href="#p" transform="matrix(1,0,0,1,-786.2545190284236,62.5417160430344) translate(0 14.6)"/><use xlink:href="#q" transform="matrix(1,0,0,1,-786.2545190284236,62.5417160430344) translate(42.95 14.6)"/><path d="M-806.25 795.32h153.8v61.6h-153.8z" fill="none"/><use xlink:href="#r" transform="matrix(1,0,0,1,-786.2545190284236,818.3242160430342) translate(0 14.6)"/><use xlink:href="#s" transform="matrix(1,0,0,1,-786.2545190284236,818.3242160430342) translate(42.95 14.6)"/><path d="M-503.9 1024.35h102.96v61.6H-503.9z" fill="none"/><use xlink:href="#t" transform="matrix(1,0,0,1,-483.8945190284236,1047.3492160430342) translate(0 14.6)"/><path d="M-99.02 413.97l.92.06 1.65.17 1.63.24 1.6.3 1.6.38 1.57.44 1.57.5 1.58.6 1.6.67 1.6.75 1.62.85 1.66.96 1.7 1.06 1.73 1.2 1.8 1.38 1.86 1.53 1.94 1.75 2.03 2 2.15 2.28 2.28 2.65 2.44 3.08 2.65 3.65 2.9 4.37 3.22 5.33 3.68 6.7 4.32 8.73 5.42 12.23 8.06 20.53 29.5 80.6 5.42 12.22L7 599.92l3.68 6.7 3.22 5.33 2.9 4.37 2.65 3.64 2.44 3.1 2.27 2.63 2.15 2.28 2.03 2 1.94 1.74 1.85 1.54 1.8 1.36 1.73 1.2 1.7 1.08 1.65.96 1.63.85 1.6.77 1.6.66 1.57.6 1.58.5 1.58.44 1.6.38 1.6.3 1.62.24 1.65.17.93.06" stroke="#ba23f6" stroke-width="5" stroke-linejoin="round" fill="none"/><path d="M-98.9 411.44l-.1 5-2.53-.06v-5zM58.48 640.4v5H55.9v-5z" stroke="#ba23f6" stroke-width=".05" fill="#ba23f6"/><path d="M-420.5 383.08h80.96v61.6h-80.95z" fill="none"/><use xlink:href="#u" transform="matrix(1,0,0,1,-400.4945190284236,406.0792160430343) translate(0 14.6)"/><path d="M-420.5 566.3h79.96v61.6h-79.95z" fill="none"/><use xlink:href="#v" transform="matrix(1,0,0,1,-400.4945190284236,589.2992160430343) translate(0 14.6)"/><path d="M-963.76 585.83l.58.08.76.16.77.18.77.2.8.27.78.3.8.35.84.4.86.43.88.5.9.6.96.65 1 .75 1.03.87 1.1 1 1.16 1.13 1.25 1.33 1.33 1.55 1.46 1.83 1.57 2.16 1.72 2.6 1.9 3.16 2.14 3.9 2.4 4.86 2.78 6.25 3.24 8.2 3.87 11.17 4.76 15.9 6.2 24.33 9.04 43 48.72 281.8 6.2 24.35 4.78 15.9 3.87 11.15 3.24 8.2 2.78 6.25 2.42 4.88 2.13 3.88 1.9 3.17 1.73 2.6 1.57 2.16 1.45 1.83 1.33 1.55 1.26 1.33 1.16 1.15 1.1 1 1.04.85 1 .75.94.66.9.58.9.5.85.46.83.4.8.33.8.3.8.26.76.22.77.18.77.14.58.1" stroke="#e81313" stroke-width="5" stroke-linejoin="round" fill="none"/><path d="M-963.64 583.2l-.1 5-2.7-.05.2-2.5-.2-2.5zM-806.25 1098.46v5h-2.57v-5z" stroke="#e81313" stroke-width=".05" fill="#e81313"/><path d="M-420.5 474.7h135.92v61.6H-420.5z" fill="none"/><use xlink:href="#w" transform="matrix(1,0,0,1,-400.4945190284236,497.68921604303443) translate(0 14.6)"/><path d="M-403.48 1146.76h155" stroke="#e81313" stroke-width="5" stroke-linejoin="round" fill="none"/><path d="M-403.42 1149.26h-2.56v-5h2.56zM-246 1149.26h-2.55v-5h2.56z" stroke="#e81313" stroke-width=".05" fill="#e81313"/><path d="M58.48 428.88h87v61.6h-87z" fill="none"/><use xlink:href="#x" transform="matrix(1,0,0,1,78.47548097157642,451.88421604303437) translate(0 14.6)"/><path d="M-220.94-120.78h148.87v61.6h-148.87z" fill="none"/><use xlink:href="#y" transform="matrix(1,0,0,1,-200.93451902842367,-97.7757839569656) translate(0 14.6)"/><path d="M26.63 62.44H228.5v61.6H26.6z" fill="none"/><use xlink:href="#z" transform="matrix(1,0,0,1,46.62548097157628,85.44421604303432) translate(0 14.6)"/><path d="M-359.33 276.47h155" stroke="#635dff" stroke-width="5" stroke-linejoin="round" fill="none"/><path d="M-359.27 278.97h-2.56v-5h2.56zM-201.84 278.97h-2.56v-5h2.56z" stroke="#635dff" stroke-width=".05" fill="#635dff"/><path d="M-661.4 1101l5.7.13 7.2.45 6.46.67 5.87.87 5.44 1.04 5.1 1.2 4.9 1.36 4.82 1.56 4.82 1.8 5.08 2.14 5.7 2.7 7.8 4.08 25 13.8 5.7 2.7 5.1 2.14 4.82 1.8 4.8 1.56 4.9 1.37 5.12 1.2 5.44 1.03 5.87.87 6.45.68 7.2.45 5.7.1" stroke="#e81313" stroke-width="5" stroke-linejoin="round" fill="none"/><path d="M-661.28 1098.5l-.1 5-2.5-.04v-5zM-503.9 1144.26v5h-2.56v-5z" stroke="#e81313" stroke-width=".05" fill="#e81313"/><path d="M-220.94-29.17h63.97v61.6h-63.97z" fill="none"/><use xlink:href="#A" transform="matrix(1,0,0,1,-200.93451902842367,-6.165783956965697) translate(0 14.6)"/><path d="M-649.94 826.18h.36l2.73.18 2.64.28 2.53.37 2.47.48 2.42.57 2.36.66 2.33.77 2.32.86 2.3.96 2.28 1.07 2.3 1.2 2.32 1.34 2.36 1.5 2.4 1.68 2.48 1.88 2.56 2.12 2.68 2.42 2.84 2.77 3.03 3.24 3.32 3.85 3.7 4.7 4.4 6.06 5.73 8.66 30.98 50.8 4.4 6.05 3.72 4.72 3.32 3.84 3.04 3.24 2.83 2.78 2.7 2.4 2.55 2.13 2.47 1.9 2.4 1.67 2.37 1.5 2.3 1.33 2.3 1.2 2.3 1.08 2.3.97 2.3.86 2.33.76 2.36.66 2.4.57 2.48.46 2.55.38 2.63.27 2.74.2h.36" stroke="#d916a8" stroke-width="5" stroke-linejoin="round" fill="none"/><path d="M-649.83 823.68l-.1 5-2.52-.05v-5zM-492.44 961.04v5H-495v-5z" stroke="#d916a8" stroke-width=".05" fill="#d916a8"/><path d="M-492.44 657.9h93.95v61.62h-93.94z" fill="none"/><use xlink:href="#B" transform="matrix(1,0,0,1,-472.44451902842366,680.9092160430342) translate(0 14.6)"/><path d="M-492.44 932.74h81.9v61.6h-81.9z" fill="none"/><use xlink:href="#C" transform="matrix(1,0,0,1,-472.44451902842366,955.7392160430342) translate(0 14.6)"/><path d="M58.48 612.1h125.86v61.6H58.47z" fill="none"/><use xlink:href="#D" transform="matrix(1,0,0,1,78.47548097157642,635.1042160430344) translate(0 14.6)"/><path d="M-1206.26 585.65a40 40 0 0 1 40-40h160a40 40 0 0 1 40 40 40 40 0 0 1-40 40h-160a40 40 0 0 1-40-40z" fill="#fff"/><use xlink:href="#E" transform="matrix(1,0,0,1,-1206.2545190284236,545.6529660430342) translate(57.86111111111111 44)"/><use xlink:href="#F" transform="matrix(1,0,0,1,-1206.2545190284236,545.6529660430342) translate(106.63888888888889 44)"/><path d="M-220.94 62.44h87.56v61.6h-87.56z" fill="none"/><use xlink:href="#G" transform="matrix(1,0,0,1,-200.93451902842367,85.44421604303432) translate(0 14.6)"/><path d="M-462.85 154.05h107.97v61.6h-107.97z" fill="none"/><use xlink:href="#H" transform="matrix(1,0,0,1,-442.84451902842363,177.05421604303422) translate(0 14.6)"/><path d="M-503.9 1115.96h97.9v61.6h-97.9z" fill="none"/><use xlink:href="#I" transform="matrix(1,0,0,1,-483.8945190284236,1138.9592160430338) translate(0 14.6)"/><path d="M-806.25 474.7h225.75v61.6h-225.75z" fill="none"/><use xlink:href="#J" transform="matrix(1,0,0,1,-786.2545190284236,497.68921604303443) translate(0 14.6)"/><path d="M-220.94-212.4h106.97v61.62h-106.97z" fill="none"/><use xlink:href="#K" transform="matrix(1,0,0,1,-200.93451902842367,-189.3857839569656) translate(0 14.6)"/><path d="M-220.94-304h128.9l.02 61.6h-128.92z" fill="none"/><use xlink:href="#L" transform="matrix(1,0,0,1,-200.93451902842367,-280.9957839569656) translate(0 14.6)"/><path d="M-661.4 1100.9l5.7-.1 7.2-.46 6.46-.67 5.87-.87 5.44-1.04 5.1-1.2 4.9-1.36 4.82-1.56 4.82-1.8 5.08-2.14 5.7-2.7 7.8-4.08 25-13.8 5.7-2.7 5.1-2.14 4.82-1.8 4.8-1.56 4.9-1.37 5.12-1.2 5.44-1.04 5.87-.85 6.45-.68 7.2-.45 5.7-.12" stroke="#e81313" stroke-width="5" stroke-linejoin="round" fill="none"/><path d="M-661.28 1103.4l-2.62.06v-5l2.52-.05zM-503.9 1057.65h-2.56v-5h2.56z" stroke="#e81313" stroke-width=".05" fill="#e81313"/><path d="M-649.94 826.18l5.7.12 7.2.45 6.45.67 5.88.87 5.44 1.03 5.1 1.2 4.9 1.36 4.82 1.55 4.84 1.8 5.07 2.14 5.7 2.68 7.8 4.1 25 13.8 5.7 2.7 5.1 2.13 4.82 1.8 4.8 1.57 4.9 1.37 5.12 1.2 5.43 1.03 5.87.87 6.45.68 7.2.45 5.7.1" stroke="#d916a8" stroke-width="5" stroke-linejoin="round" fill="none"/><path d="M-649.83 823.68l-.1 5-2.52-.05v-5zM-492.44 869.43v5H-495v-5z" stroke="#d916a8" stroke-width=".05" fill="#d916a8"/><path d="M-620.34 70.4l.9.02 3.25.2 3.1.32 2.97.44 2.86.55 2.77.65 2.7.75 2.65.86 2.6.96 2.6 1.1 2.57 1.2 2.57 1.35 2.6 1.5 2.63 1.7 2.7 1.86 2.8 2.12 2.9 2.4 3.1 2.8 3.32 3.26 3.7 3.94 4.3 5 5.52 6.98 30.3 41.48 4.3 5 3.7 3.93 3.32 3.26 3.08 2.78 2.9 2.42 2.8 2.12 2.7 1.88 2.64 1.68 2.6 1.5 2.57 1.34 2.57 1.22 2.58 1.08 2.6.97 2.66.87 2.7.76 2.78.65 2.86.54 2.97.44 3.1.33 3.24.2h.92" stroke="#635dff" stroke-width="5" stroke-linejoin="round" fill="none"/><path d="M-620.23 67.9l-.1 5-2.5-.05v-5zM-462.85 182.36v5h-2.56v-5z" stroke="#635dff" stroke-width=".05" fill="#635dff"/><path d="M-578 505.5h155" stroke="#ba23f6" stroke-width="5" stroke-linejoin="round" fill="none"/><path d="M-577.93 508h-2.57v-5h2.57zM-420.5 508h-2.56v-5h2.56z" stroke="#ba23f6" stroke-width=".05" fill="#ba23f6"/><path d="M-378.43-135.72h.36l2.73.18 2.64.27 2.54.38 2.47.48 2.43.56 2.36.67 2.32.76 2.3.86 2.3.97 2.3 1.06 2.3 1.2 2.3 1.35 2.37 1.5 2.4 1.67 2.47 1.88 2.56 2.13 2.68 2.4 2.85 2.8 3.03 3.22 3.32 3.85 3.72 4.7 4.4 6.06 5.72 8.65 30.98 50.8 4.4 6.06 3.7 4.7 3.33 3.86 3.04 3.24 2.82 2.77 2.68 2.42 2.56 2.1 2.48 1.9 2.4 1.66 2.36 1.5 2.32 1.34 2.3 1.2 2.3 1.08 2.28.96 2.3.86 2.34.76 2.36.66 2.42.56 2.47.48 2.53.37 2.64.28 2.74.18h.37" stroke="#635dff" stroke-width="5" stroke-linejoin="round" fill="none"/><path d="M-378.32-138.22l-.1 5-2.5-.06v-5zM-220.94-.86v5h-2.56v-5z" stroke="#635dff" stroke-width=".05" fill="#635dff"/><path d="M-99.02 413.94h.36l2.73.18 2.64.27 2.55.37 2.47.47 2.42.56 2.36.67 2.33.75 2.3.86 2.3.97 2.3 1.07 2.3 1.2 2.3 1.35 2.37 1.5 2.4 1.66 2.48 1.88 2.56 2.14 2.68 2.4 2.84 2.8 3.03 3.22 3.3 3.85 3.73 4.72 4.4 6.05 5.72 8.64 30.98 50.82 4.4 6.05 3.7 4.7 3.33 3.85 3.04 3.24 2.83 2.77 2.68 2.42 2.57 2.12 2.47 1.88 2.4 1.67 2.37 1.5 2.33 1.34 2.3 1.2 2.3 1.08 2.28.96 2.32.86 2.33.76 2.36.66 2.43.56 2.47.48 2.54.37 2.64.27 2.73.17H56" stroke="#ba23f6" stroke-width="5" stroke-linejoin="round" fill="none"/><path d="M-98.9 411.44l-.1 5-2.53-.06v-5zM58.48 548.8v5H55.9v-5z" stroke="#ba23f6" stroke-width=".05" fill="#ba23f6"/><path d="M-963.75 585.74l.76.05 1.6.16 1.54.22 1.54.3 1.52.36 1.52.42 1.5.5 1.53.56 1.53.64 1.55.73 1.57.8 1.6.93 1.63 1.04 1.7 1.17 1.72 1.32 1.8 1.5 1.88 1.68 1.98 1.94 2.1 2.22 2.2 2.56 2.37 3 2.56 3.53 2.8 4.22 3.12 5.14 3.52 6.42 4.1 8.27 5 11.3 6.87 17.4L-865 765.04l5.02 11.3 4.1 8.28 3.52 6.42 3.1 5.15 2.82 4.22 2.56 3.52 2.37 3 2.2 2.57 2.08 2.2 1.98 1.94 1.88 1.7 1.8 1.48 1.74 1.32 1.68 1.17 1.63 1.05 1.6.92 1.56.83 1.55.72 1.54.65 1.52.56 1.5.5 1.53.42 1.5.35 1.55.3 1.55.23 1.58.16.77.04" stroke="#d916a8" stroke-width="5" stroke-linejoin="round" fill="none"/><path d="M-963.64 583.2l-.1 5-2.7-.05.2-2.5-.2-2.5zM-806.25 823.63v5h-2.57v-5z" stroke="#d916a8" stroke-width=".05" fill="#d916a8"/><path d="M-99.02 413.94l5.7.1 7.2.46 6.45.68 5.87.86 5.44 1.04 5.1 1.2 4.9 1.37 4.82 1.56 4.84 1.8 5.07 2.14 5.7 2.7 7.8 4.08 25 13.82 5.7 2.7 5.1 2.13 4.82 1.8 4.8 1.56 4.9 1.37 5.1 1.2 5.45 1.03 5.87.87 6.45.67 7.2.45 5.7.12" stroke="#ba23f6" stroke-width="5" stroke-linejoin="round" fill="none"/><path d="M-98.9 411.44l-.1 5-2.53-.06v-5zM58.48 457.2v5H55.9v-5z" stroke="#ba23f6" stroke-width=".05" fill="#ba23f6"/><path d="M-620.34 70.27l1.3-.08 1.8-.2 1.8-.27 1.75-.33 1.75-.4 1.72-.5 1.72-.55 1.7-.64 1.72-.7 1.73-.82 1.76-.92 1.8-1.03 1.8-1.16 1.87-1.3 1.92-1.45 1.98-1.65 2.07-1.86 2.17-2.12 2.3-2.44 2.43-2.83 2.6-3.3 2.86-3.9 3.14-4.72 3.52-5.83 4.1-7.46 5.02-10.16 7.04-15.92 31.32-76.8 5.02-10.14 4.1-7.46 3.5-5.83 3.15-4.73 2.85-3.9 2.6-3.3 2.45-2.84 2.3-2.44 2.16-2.14 2.07-1.86 2-1.65 1.9-1.46 1.87-1.3 1.82-1.16 1.78-1.03 1.76-.9 1.73-.82 1.7-.72 1.72-.64 1.72-.56 1.72-.48 1.74-.4 1.76-.34 1.78-.27 1.82-.2 1.3-.07" stroke="#635dff" stroke-width="5" stroke-linejoin="round" fill="none"/><path d="M-620.23 72.8l-2.62.05v-5l2.52-.06zM-462.85-133.28h-2.56v-5h2.55z" stroke="#635dff" stroke-width=".05" fill="#635dff"/><path d="M-649.94 826.08l5.7-.12 7.2-.45 6.45-.66 5.88-.87 5.44-1.04 5.1-1.2 4.9-1.36 4.82-1.56 4.84-1.8 5.07-2.13 5.7-2.7 7.8-4.08 25-13.82 5.7-2.7 5.1-2.13 4.82-1.8 4.8-1.56 4.9-1.38 5.12-1.2 5.43-1.04 5.87-.86 6.45-.68 7.2-.45 5.7-.13" stroke="#d916a8" stroke-width="5" stroke-linejoin="round" fill="none"/><path d="M-649.83 828.58l-2.62.05v-5l2.52-.05zM-492.44 782.82H-495v-5h2.56z" stroke="#d916a8" stroke-width=".05" fill="#d916a8"/><path d="M-578 505.44l1.75-.03 3.96-.24 3.75-.4 3.55-.52 3.4-.64 3.25-.77 3.16-.88 3.08-1 3-1.12 3-1.25 2.94-1.4 2.96-1.54 3-1.73 3.06-1.93 3.18-2.2 3.34-2.55 3.6-3 4.06-3.64 4.86-4.77 7.17-7.66 22.08-24.57 4.86-4.77 4.04-3.65 3.6-3 3.35-2.53 3.17-2.2 3.06-1.95 3-1.73 2.96-1.55 2.95-1.4 2.97-1.25 3-1.12 3.08-1 3.16-.88 3.26-.77 3.4-.64 3.54-.53 3.74-.38 3.96-.25 1.75-.03" stroke="#ba23f6" stroke-width="5" stroke-linejoin="round" fill="none"/><path d="M-577.88 507.94l-2.62.06v-5l2.52-.06zM-420.5 416.38h-2.56v-5h2.56z" stroke="#ba23f6" stroke-width=".05" fill="#ba23f6"/><path d="M-378.43-135.72l5.7.1 7.2.46 6.45.68 5.87.86 5.43 1.04 5.1 1.2 4.9 1.37 4.82 1.55 4.83 1.8 5.08 2.13 5.7 2.7 7.8 4.08 25 13.82 5.7 2.7 5.1 2.13 4.82 1.8 4.8 1.57 4.9 1.37 5.12 1.2 5.44 1.03 5.87.86 6.46.68 7.2.46 5.7.12" stroke="#635dff" stroke-width="5" stroke-linejoin="round" fill="none"/><path d="M-378.32-138.22l-.1 5-2.5-.06v-5zM-220.94-92.47v5h-2.56v-5z" stroke="#635dff" stroke-width=".05" fill="#635dff"/><path d="M-963.75 585.6l2.32-.05 4.47-.28 4.18-.44 3.93-.58 3.74-.7 3.57-.85 3.44-.96 3.36-1.1 3.27-1.2 3.23-1.36 3.22-1.5 3.23-1.7 3.3-1.9 3.42-2.18 3.6-2.5 3.94-3 4.5-3.73 5.87-5.3 27.7-26.7 4.5-3.73 3.94-3 3.6-2.5 3.4-2.16 3.3-1.9 3.25-1.7 3.2-1.5 3.24-1.37 3.27-1.2 3.35-1.1 3.44-.95 3.58-.84 3.74-.7 3.93-.6 4.18-.43 4.47-.28 2.33-.05" stroke="#ba23f6" stroke-width="5" stroke-linejoin="round" fill="none"/><path d="M-963.64 588.1l-2.8.06.2-2.5-.2-2.5 2.7-.06zM-806.25 508h-2.57v-5h2.57z" stroke="#ba23f6" stroke-width=".05" fill="#ba23f6"/><path d="M-99.02 413.83l5.7-.1 7.2-.46 6.45-.68 5.87-.88 5.44-1.03 5.1-1.2 4.9-1.38 4.82-1.56 4.84-1.8 5.07-2.13 5.7-2.7 7.8-4.1 25-13.8 5.7-2.7 5.1-2.13 4.82-1.8 4.8-1.56 4.9-1.37 5.1-1.2 5.45-1.03 5.87-.87 6.45-.67 7.2-.45 5.7-.12" stroke="#ba23f6" stroke-width="5" stroke-linejoin="round" fill="none"/><path d="M-98.9 416.33l-2.63.06v-5.02l2.52-.05zM58.48 370.58H55.9v-5h2.58z" stroke="#ba23f6" stroke-width=".05" fill="#ba23f6"/><path d="M-649.94 826.08h.36l2.73-.18 2.64-.28 2.53-.37 2.47-.48 2.42-.56 2.36-.65 2.33-.76 2.32-.87 2.3-.96 2.28-1.08 2.3-1.2 2.32-1.35 2.36-1.5 2.4-1.67 2.48-1.88 2.56-2.12 2.68-2.42 2.84-2.77 3.03-3.25 3.32-3.85 3.7-4.7 4.4-6.05 5.73-8.65 30.98-50.8 4.4-6.05 3.72-4.7 3.32-3.86 3.04-3.24 2.83-2.78 2.7-2.4 2.55-2.14 2.47-1.88 2.4-1.67 2.37-1.5 2.3-1.34 2.3-1.2 2.3-1.1 2.3-.95 2.3-.85 2.33-.75 2.36-.66 2.4-.57 2.48-.47 2.55-.38 2.63-.27 2.74-.18h.36" stroke="#d916a8" stroke-width="5" stroke-linejoin="round" fill="none"/><path d="M-649.83 828.58l-2.62.05v-5l2.52-.05zM-492.44 691.2H-495v-5h2.56z" stroke="#d916a8" stroke-width=".05" fill="#d916a8"/><path d="M-963.76 585.48l.58-.1.76-.13.77-.18.77-.22.8-.25.78-.3.8-.34.84-.4.86-.44.88-.5.9-.58.96-.66 1-.76 1.03-.86 1.1-1 1.16-1.13 1.25-1.33 1.33-1.55 1.46-1.82 1.57-2.17 1.72-2.6 1.9-3.15 2.14-3.88 2.4-4.88 2.78-6.24 3.24-8.2 3.87-11.16 4.76-15.9 6.2-24.34 9.04-43 48.72-281.8 6.2-24.35 4.78-15.9 3.87-11.14 3.24-8.2 2.78-6.24 2.42-4.88 2.13-3.9 1.9-3.15 1.73-2.6 1.57-2.16 1.45-1.82 1.33-1.55 1.26-1.33 1.16-1.14 1.1-1 1.04-.85 1-.76.94-.66.9-.58.9-.5.85-.45.83-.4.8-.33.8-.3.8-.25.76-.22.77-.18.77-.14.58-.08" stroke="#635dff" stroke-width="5" stroke-linejoin="round" fill="none"/><path d="M-963.64 588.1l-2.8.06.2-2.5-.2-2.5 2.7-.06zM-806.25 72.85h-2.57v-5h2.57z" stroke="#635dff" stroke-width=".05" fill="#635dff"/><path d="M-378.43-135.83l5.7-.1 7.2-.46 6.45-.67 5.87-.87 5.43-1.03 5.1-1.2 4.9-1.37 4.82-1.56 4.83-1.8 5.08-2.13 5.7-2.7 7.8-4.1 25-13.8 5.7-2.7 5.1-2.13 4.82-1.8 4.8-1.56 4.9-1.37 5.12-1.2 5.44-1.02 5.87-.87 6.46-.66 7.2-.45 5.7-.13" stroke="#635dff" stroke-width="5" stroke-linejoin="round" fill="none"/><path d="M-378.32-133.33l-2.62.06v-5l2.52-.06zM-220.94-179.08h-2.56v-5h2.56z" stroke="#635dff" stroke-width=".05" fill="#635dff"/><path d="M-99.02 413.83h.36l2.73-.18 2.64-.27 2.55-.38 2.47-.47 2.42-.57 2.36-.66 2.33-.75 2.3-.86 2.3-.98 2.3-1.08 2.3-1.2 2.3-1.34 2.37-1.5 2.4-1.67 2.48-1.88 2.56-2.12 2.68-2.4 2.84-2.8 3.03-3.23 3.3-3.84 3.73-4.7 4.4-6.06 5.72-8.64 30.98-50.8 4.4-6.06 3.7-4.7 3.33-3.85 3.04-3.24 2.83-2.76 2.68-2.42 2.57-2.12 2.47-1.88 2.4-1.67 2.37-1.5 2.33-1.34 2.3-1.2 2.3-1.07 2.28-.96 2.32-.86 2.33-.75 2.36-.66 2.43-.58 2.47-.47 2.54-.37 2.64-.28 2.73-.17H56" stroke="#ba23f6" stroke-width="5" stroke-linejoin="round" fill="none"/><path d="M-98.9 416.33l-2.63.06v-5.02l2.52-.05zM58.48 278.97H55.9v-5h2.58z" stroke="#ba23f6" stroke-width=".05" fill="#ba23f6"/><path d="M-378.43-135.83h.36l2.73-.18 2.64-.28 2.54-.38 2.47-.47 2.43-.57 2.36-.66 2.32-.75 2.3-.87 2.3-.97 2.3-1.07 2.3-1.22 2.3-1.34 2.37-1.5 2.4-1.67 2.47-1.88 2.56-2.13 2.68-2.4 2.85-2.8 3.03-3.22 3.32-3.85 3.72-4.7 4.4-6.06 5.72-8.64 30.98-50.8 4.4-6.06 3.7-4.7 3.33-3.85 3.04-3.25 2.82-2.77 2.68-2.42 2.56-2.12 2.48-1.88 2.4-1.67 2.36-1.5 2.32-1.35 2.3-1.2 2.3-1.08 2.28-.96 2.3-.85 2.34-.76 2.36-.67 2.42-.57 2.47-.47 2.53-.38 2.64-.28 2.74-.17h.37" stroke="#635dff" stroke-width="5" stroke-linejoin="round" fill="none"/><path d="M-378.32-133.33l-2.62.06v-5l2.52-.06zM-220.94-270.7h-2.56v-5h2.56z" stroke="#635dff" stroke-width=".05" fill="#635dff"/><path d="M-99.02 413.8l.92-.06 1.65-.17 1.63-.24 1.6-.3 1.6-.38 1.57-.44 1.57-.5 1.58-.6 1.6-.66 1.6-.75 1.62-.87 1.66-.95 1.7-1.08 1.73-1.2 1.8-1.37 1.86-1.54 1.94-1.75 2.03-2 2.15-2.28 2.28-2.65 2.44-3.08 2.65-3.65 2.9-4.38 3.22-5.34 3.68-6.7 4.32-8.72 5.42-12.23 8.06-20.52 29.5-80.6 5.42-12.22L7 227.85l3.68-6.7 3.22-5.33 2.9-4.37 2.65-3.64 2.44-3.08 2.27-2.64 2.15-2.3 2.03-1.98 1.94-1.75 1.85-1.54 1.8-1.35 1.73-1.2 1.7-1.08 1.65-.96 1.63-.84 1.6-.76 1.6-.67 1.57-.58 1.58-.52 1.58-.44 1.6-.38 1.6-.3 1.62-.24 1.65-.18.93-.06" stroke="#ba23f6" stroke-width="5" stroke-linejoin="round" fill="none"/><path d="M-98.9 416.33l-2.63.06v-5.02l2.52-.05zM58.48 187.36H55.9v-5h2.58z" stroke="#ba23f6" stroke-width=".05" fill="#ba23f6"/><path d="M-378.43-135.86l.92-.06 1.64-.17 1.63-.23 1.6-.3 1.6-.38 1.57-.45 1.57-.5 1.6-.6 1.58-.67 1.6-.75 1.63-.85 1.67-.96 1.7-1.08 1.73-1.2 1.8-1.37 1.85-1.54 1.94-1.74 2.02-2 2.15-2.3 2.28-2.64 2.44-3.1 2.64-3.63 2.9-4.37 3.22-5.34 3.68-6.7 4.32-8.72 5.42-12.22 8.07-20.53 29.5-80.6 5.42-12.23 4.33-8.73 3.67-6.7 3.22-5.34 2.9-4.37 2.64-3.65 2.44-3.1 2.28-2.63 2.15-2.3 2.04-1.98 1.94-1.75 1.86-1.55 1.8-1.36 1.73-1.22 1.7-1.07 1.65-.95 1.63-.85 1.6-.76 1.6-.66 1.57-.6 1.57-.5 1.57-.45 1.6-.37 1.6-.3 1.62-.25 1.64-.16.93-.06" stroke="#635dff" stroke-width="5" stroke-linejoin="round" fill="none"/><path d="M-378.32-133.33l-2.62.06v-5l2.52-.06zM-220.94-362.3h-2.56v-5h2.56z" stroke="#635dff" stroke-width=".05" fill="#635dff"/><defs><path d="M177-190C167-65 218 103 67 71c-23-6-38-20-44-43l32-5c15 47 100 32 89-28v-30C133-14 115 1 83 1 29 1 15-40 15-95c0-56 16-97 71-98 29-1 48 16 59 35 1-10 0-23 2-32h30zM94-22c36 0 50-32 50-73 0-42-14-75-50-75-39 0-46 34-46 75s6 73 46 73" id="M"/><path d="M141-36C126-15 110 5 73 4 37 3 15-17 15-53c-1-64 63-63 125-63 3-35-9-54-41-54-24 1-41 7-42 31l-33-3c5-37 33-52 76-52 45 0 72 20 72 64v82c-1 20 7 32 28 27v20c-31 9-61-2-59-35zM48-53c0 20 12 33 32 33 41-3 63-29 60-74-43 2-92-5-92 41" id="N"/><path d="M84 4C-5 8 30-112 23-190h32v120c0 31 7 50 39 49 72-2 45-101 50-169h31l1 190h-30c-1-10 1-25-2-33-11 22-28 36-60 37" id="O"/><path d="M135-143c-3-34-86-38-87 0 15 53 115 12 119 90S17 21 10-45l28-5c4 36 97 45 98 0-10-56-113-15-118-90-4-57 82-63 122-42 12 7 21 19 24 35" id="P"/><path d="M24-231v-30h32v30H24zM24 0v-190h32V0H24" id="Q"/><path d="M117-194c89-4 53 116 60 194h-32v-121c0-31-8-49-39-48C34-167 62-67 57 0H25l-1-190h30c1 10-1 24 2 32 11-22 29-35 61-36" id="R"/><path d="M-5 72V49h209v23H-5" id="S"/><path d="M143 0L79-87 56-68V0H24v-261h32v163l83-92h37l-77 82L181 0h-38" id="T"/><path d="M85-194c31 0 48 13 60 33l-1-100h32l1 261h-30c-2-10 0-23-3-31C134-8 116 4 85 4 32 4 16-35 15-94c0-66 23-100 70-100zm9 24c-40 0-46 34-46 75 0 40 6 74 45 74 42 0 51-32 51-76 0-42-9-74-50-73" id="U"/><path d="M100-194c63 0 86 42 84 106H49c0 40 14 67 53 68 26 1 43-12 49-29l28 8c-11 28-37 45-77 45C44 4 14-33 15-96c1-61 26-98 85-98zm52 81c6-60-76-77-97-28-3 7-6 17-6 28h103" id="V"/><g id="a"><use transform="matrix(0.05,0,0,0.05,0,0)" xlink:href="#M"/><use transform="matrix(0.05,0,0,0.05,10,0)" xlink:href="#N"/><use transform="matrix(0.05,0,0,0.05,20,0)" xlink:href="#O"/><use transform="matrix(0.05,0,0,0.05,30,0)" xlink:href="#P"/><use transform="matrix(0.05,0,0,0.05,39,0)" xlink:href="#P"/><use transform="matrix(0.05,0,0,0.05,48,0)" xlink:href="#Q"/><use transform="matrix(0.05,0,0,0.05,51.95,0)" xlink:href="#N"/><use transform="matrix(0.05,0,0,0.05,61.95,0)" xlink:href="#R"/><use transform="matrix(0.05,0,0,0.05,71.95,0)" xlink:href="#S"/><use transform="matrix(0.05,0,0,0.05,81.95,0)" xlink:href="#T"/><use transform="matrix(0.05,0,0,0.05,90.95,0)" xlink:href="#U"/><use transform="matrix(0.05,0,0,0.05,100.95,0)" xlink:href="#V"/></g><path d="M190 0L58-211 59 0H30v-248h39L202-35l-2-213h31V0h-41" id="W"/><path d="M30 0v-248h33v221h125V0H30" id="X"/><path d="M30-248c87 1 191-15 191 75 0 78-77 80-158 76V0H30v-248zm33 125c57 0 124 11 124-50 0-59-68-47-124-48v98" id="Y"/><g id="b"><use transform="matrix(0.05,0,0,0.05,0,0)" xlink:href="#W"/><use transform="matrix(0.05,0,0,0.05,12.950000000000001,0)" xlink:href="#X"/><use transform="matrix(0.05,0,0,0.05,22.950000000000003,0)" xlink:href="#Y"/></g><path d="M24 0v-261h32V0H24" id="Z"/><path d="M115-194c53 0 69 39 70 98 0 66-23 100-70 100C84 3 66-7 56-30L54 0H23l1-261h32v101c10-23 28-34 59-34zm-8 174c40 0 45-34 45-75 0-40-5-75-45-74-42 0-51 32-51 76 0 43 10 73 51 73" id="aa"/><path d="M114-163C36-179 61-72 57 0H25l-1-190h30c1 12-1 29 2 39 6-27 23-49 58-41v29" id="ab"/><g id="c"><use transform="matrix(0.05,0,0,0.05,0,0)" xlink:href="#Z"/><use transform="matrix(0.05,0,0,0.05,3.95,0)" xlink:href="#Q"/><use transform="matrix(0.05,0,0,0.05,7.9,0)" xlink:href="#aa"/><use transform="matrix(0.05,0,0,0.05,17.9,0)" xlink:href="#ab"/><use transform="matrix(0.05,0,0,0.05,23.849999999999998,0)" xlink:href="#N"/><use transform="matrix(0.05,0,0,0.05,33.849999999999994,0)" xlink:href="#ab"/><use transform="matrix(0.05,0,0,0.05,39.8,0)" xlink:href="#Q"/><use transform="matrix(0.05,0,0,0.05,43.75,0)" xlink:href="#V"/><use transform="matrix(0.05,0,0,0.05,53.75,0)" xlink:href="#P"/></g><path d="M115-194c55 1 70 41 70 98S169 2 115 4C84 4 66-9 55-30l1 105H24l-1-265h31l2 30c10-21 28-34 59-34zm-8 174c40 0 45-34 45-75s-6-73-45-74c-42 0-51 32-51 76 0 43 10 73 51 73" id="ac"/><g id="d"><use transform="matrix(0.05,0,0,0.05,0,0)" xlink:href="#ac"/><use transform="matrix(0.05,0,0,0.05,10,0)" xlink:href="#N"/><use transform="matrix(0.05,0,0,0.05,20,0)" xlink:href="#R"/><use transform="matrix(0.05,0,0,0.05,30,0)" xlink:href="#U"/><use transform="matrix(0.05,0,0,0.05,40,0)" xlink:href="#N"/><use transform="matrix(0.05,0,0,0.05,50,0)" xlink:href="#P"/></g><path d="M100-194c62-1 85 37 85 99 1 63-27 99-86 99S16-35 15-95c0-66 28-99 85-99zM99-20c44 1 53-31 53-75 0-43-8-75-51-75s-53 32-53 75 10 74 51 75" id="ad"/><path d="M59-47c-2 24 18 29 38 22v24C64 9 27 4 27-40v-127H5v-23h24l9-43h21v43h35v23H59v120" id="ae"/><path d="M179-190L93 31C79 59 56 82 12 73V49c39 6 53-20 64-50L1-190h34L92-34l54-156h33" id="af"/><g id="e"><use transform="matrix(0.05,0,0,0.05,0,0)" xlink:href="#ac"/><use transform="matrix(0.05,0,0,0.05,10,0)" xlink:href="#Z"/><use transform="matrix(0.05,0,0,0.05,13.949999999999998,0)" xlink:href="#ad"/><use transform="matrix(0.05,0,0,0.05,23.95,0)" xlink:href="#ae"/><use transform="matrix(0.05,0,0,0.05,28.950000000000003,0)" xlink:href="#Z"/><use transform="matrix(0.05,0,0,0.05,32.9,0)" xlink:href="#af"/></g><g id="f"><use transform="matrix(0.05,0,0,0.05,0,0)" xlink:href="#P"/><use transform="matrix(0.05,0,0,0.05,9,0)" xlink:href="#ae"/><use transform="matrix(0.05,0,0,0.05,14,0)" xlink:href="#N"/><use transform="matrix(0.05,0,0,0.05,24,0)" xlink:href="#ae"/><use transform="matrix(0.05,0,0,0.05,29,0)" xlink:href="#P"/></g><path d="M127-220V0H93v-220H8v-28h204v28h-85" id="ag"/><path d="M101-234c-31-9-42 10-38 44h38v23H63V0H32v-167H5v-23h27c-7-52 17-82 69-68v24" id="ah"/><path d="M137 0h-34L2-248h35l83 218 83-218h36" id="ai"/><path d="M96-169c-40 0-48 33-48 73s9 75 48 75c24 0 41-14 43-38l32 2c-6 37-31 61-74 61-59 0-76-41-82-99-10-93 101-131 147-64 4 7 5 14 7 22l-32 3c-4-21-16-35-41-35" id="aj"/><path d="M9 0v-24l116-142H16v-24h144v24L44-24h123V0H9" id="ak"/><g id="g"><use transform="matrix(0.05,0,0,0.05,0,0)" xlink:href="#ag"/><use transform="matrix(0.05,0,0,0.05,10.950000000000001,0)" xlink:href="#ah"/><use transform="matrix(0.05,0,0,0.05,15.950000000000001,0)" xlink:href="#Q"/><use transform="matrix(0.05,0,0,0.05,19.900000000000002,0)" xlink:href="#U"/><use transform="matrix(0.05,0,0,0.05,29.900000000000002,0)" xlink:href="#ah"/><use transform="matrix(0.05,0,0,0.05,34.900000000000006,0)" xlink:href="#ai"/><use transform="matrix(0.05,0,0,0.05,45.900000000000006,0)" xlink:href="#V"/><use transform="matrix(0.05,0,0,0.05,55.900000000000006,0)" xlink:href="#aj"/><use transform="matrix(0.05,0,0,0.05,64.9,0)" xlink:href="#ae"/><use transform="matrix(0.05,0,0,0.05,69.9,0)" xlink:href="#ad"/><use transform="matrix(0.05,0,0,0.05,79.9,0)" xlink:href="#ab"/><use transform="matrix(0.05,0,0,0.05,85.85000000000001,0)" xlink:href="#Q"/><use transform="matrix(0.05,0,0,0.05,89.80000000000001,0)" xlink:href="#ak"/><use transform="matrix(0.05,0,0,0.05,98.80000000000001,0)" xlink:href="#V"/><use transform="matrix(0.05,0,0,0.05,108.80000000000001,0)" xlink:href="#ab"/></g><path d="M33 0v-248h34V0H33" id="al"/><path d="M106-169C34-169 62-67 57 0H25v-261h32l-1 103c12-21 28-36 61-36 89 0 53 116 60 194h-32v-121c2-32-8-49-39-48" id="am"/><g id="h"><use transform="matrix(0.05,0,0,0.05,0,0)" xlink:href="#al"/><use transform="matrix(0.05,0,0,0.05,5,0)" xlink:href="#Y"/><use transform="matrix(0.05,0,0,0.05,17,0)" xlink:href="#af"/><use transform="matrix(0.05,0,0,0.05,26,0)" xlink:href="#ae"/><use transform="matrix(0.05,0,0,0.05,31,0)" xlink:href="#am"/><use transform="matrix(0.05,0,0,0.05,41,0)" xlink:href="#ad"/><use transform="matrix(0.05,0,0,0.05,51,0)" xlink:href="#R"/></g><g id="i"><use transform="matrix(0.05,0,0,0.05,0,0)" xlink:href="#U"/><use transform="matrix(0.05,0,0,0.05,10,0)" xlink:href="#Q"/><use transform="matrix(0.05,0,0,0.05,13.949999999999998,0)" xlink:href="#P"/><use transform="matrix(0.05,0,0,0.05,22.95,0)" xlink:href="#ac"/><use transform="matrix(0.05,0,0,0.05,32.95,0)" xlink:href="#Z"/><use transform="matrix(0.05,0,0,0.05,36.900000000000006,0)" xlink:href="#N"/><use transform="matrix(0.05,0,0,0.05,46.900000000000006,0)" xlink:href="#af"/></g><path d="M141 0L90-78 38 0H4l68-98-65-92h35l48 74 47-74h35l-64 92 68 98h-35" id="an"/><g id="j"><use transform="matrix(0.05,0,0,0.05,0,0)" xlink:href="#ah"/><use transform="matrix(0.05,0,0,0.05,5,0)" xlink:href="#V"/><use transform="matrix(0.05,0,0,0.05,15,0)" xlink:href="#N"/><use transform="matrix(0.05,0,0,0.05,25,0)" xlink:href="#ae"/><use transform="matrix(0.05,0,0,0.05,30,0)" xlink:href="#O"/><use transform="matrix(0.05,0,0,0.05,40,0)" xlink:href="#ab"/><use transform="matrix(0.05,0,0,0.05,45.95,0)" xlink:href="#V"/><use transform="matrix(0.05,0,0,0.05,55.95,0)" xlink:href="#S"/><use transform="matrix(0.05,0,0,0.05,65.95,0)" xlink:href="#V"/><use transform="matrix(0.05,0,0,0.05,75.95,0)" xlink:href="#an"/><use transform="matrix(0.05,0,0,0.05,84.95,0)" xlink:href="#ae"/><use transform="matrix(0.05,0,0,0.05,89.95,0)" xlink:href="#ab"/><use transform="matrix(0.05,0,0,0.05,95.9,0)" xlink:href="#N"/><use transform="matrix(0.05,0,0,0.05,105.9,0)" xlink:href="#aj"/><use transform="matrix(0.05,0,0,0.05,114.9,0)" xlink:href="#ae"/><use transform="matrix(0.05,0,0,0.05,119.9,0)" xlink:href="#Q"/><use transform="matrix(0.05,0,0,0.05,123.85000000000001,0)" xlink:href="#ad"/><use transform="matrix(0.05,0,0,0.05,133.85000000000002,0)" xlink:href="#R"/></g><g id="k"><use transform="matrix(0.05,0,0,0.05,0,0)" xlink:href="#V"/><use transform="matrix(0.05,0,0,0.05,10,0)" xlink:href="#an"/><use transform="matrix(0.05,0,0,0.05,19,0)" xlink:href="#ac"/><use transform="matrix(0.05,0,0,0.05,29,0)" xlink:href="#ab"/><use transform="matrix(0.05,0,0,0.05,34.95,0)" xlink:href="#V"/><use transform="matrix(0.05,0,0,0.05,44.95,0)" xlink:href="#P"/><use transform="matrix(0.05,0,0,0.05,53.95,0)" xlink:href="#P"/></g><path d="M206 0h-36l-40-164L89 0H53L-1-190h32L70-26l43-164h34l41 164 42-164h31" id="ao"/><g id="l"><use transform="matrix(0.05,0,0,0.05,0,0)" xlink:href="#P"/><use transform="matrix(0.05,0,0,0.05,9,0)" xlink:href="#T"/><use transform="matrix(0.05,0,0,0.05,18,0)" xlink:href="#V"/><use transform="matrix(0.05,0,0,0.05,28,0)" xlink:href="#ao"/></g><g id="m"><use transform="matrix(0.05,0,0,0.05,0,0)" xlink:href="#N"/><use transform="matrix(0.05,0,0,0.05,10,0)" xlink:href="#R"/><use transform="matrix(0.05,0,0,0.05,20,0)" xlink:href="#U"/><use transform="matrix(0.05,0,0,0.05,30,0)" xlink:href="#V"/><use transform="matrix(0.05,0,0,0.05,40,0)" xlink:href="#ab"/><use transform="matrix(0.05,0,0,0.05,45.95,0)" xlink:href="#P"/><use transform="matrix(0.05,0,0,0.05,54.95,0)" xlink:href="#ad"/><use transform="matrix(0.05,0,0,0.05,64.95,0)" xlink:href="#R"/></g><g id="n"><use transform="matrix(0.05,0,0,0.05,0,0)" xlink:href="#P"/><use transform="matrix(0.05,0,0,0.05,9,0)" xlink:href="#am"/><use transform="matrix(0.05,0,0,0.05,19,0)" xlink:href="#N"/><use transform="matrix(0.05,0,0,0.05,29,0)" xlink:href="#ac"/><use transform="matrix(0.05,0,0,0.05,39,0)" xlink:href="#Q"/><use transform="matrix(0.05,0,0,0.05,42.95,0)" xlink:href="#ab"/><use transform="matrix(0.05,0,0,0.05,48.900000000000006,0)" xlink:href="#ad"/></g><g id="o"><use transform="matrix(0.05,0,0,0.05,0,0)" xlink:href="#U"/><use transform="matrix(0.05,0,0,0.05,10,0)" xlink:href="#N"/><use transform="matrix(0.05,0,0,0.05,20,0)" xlink:href="#ae"/><use transform="matrix(0.05,0,0,0.05,25,0)" xlink:href="#N"/><use transform="matrix(0.05,0,0,0.05,35,0)" xlink:href="#P"/><use transform="matrix(0.05,0,0,0.05,44,0)" xlink:href="#V"/><use transform="matrix(0.05,0,0,0.05,54,0)" xlink:href="#ae"/><use transform="matrix(0.05,0,0,0.05,59,0)" xlink:href="#P"/></g><path d="M30-248c118-7 216 8 213 122C240-48 200 0 122 0H30v-248zM63-27c89 8 146-16 146-99s-60-101-146-95v194" id="ap"/><g id="p"><use transform="matrix(0.05,0,0,0.05,0,0)" xlink:href="#ap"/><use transform="matrix(0.05,0,0,0.05,12.950000000000001,0)" xlink:href="#N"/><use transform="matrix(0.05,0,0,0.05,22.950000000000003,0)" xlink:href="#ae"/><use transform="matrix(0.05,0,0,0.05,27.950000000000003,0)" xlink:href="#N"/></g><g id="q"><use transform="matrix(0.05,0,0,0.05,0,0)" xlink:href="#ai"/><use transform="matrix(0.05,0,0,0.05,11.65,0)" xlink:href="#Q"/><use transform="matrix(0.05,0,0,0.05,15.600000000000001,0)" xlink:href="#P"/><use transform="matrix(0.05,0,0,0.05,24.6,0)" xlink:href="#O"/><use transform="matrix(0.05,0,0,0.05,34.6,0)" xlink:href="#N"/><use transform="matrix(0.05,0,0,0.05,44.6,0)" xlink:href="#Z"/><use transform="matrix(0.05,0,0,0.05,48.550000000000004,0)" xlink:href="#Q"/><use transform="matrix(0.05,0,0,0.05,52.5,0)" xlink:href="#ak"/><use transform="matrix(0.05,0,0,0.05,61.5,0)" xlink:href="#N"/><use transform="matrix(0.05,0,0,0.05,71.5,0)" xlink:href="#ae"/><use transform="matrix(0.05,0,0,0.05,76.5,0)" xlink:href="#Q"/><use transform="matrix(0.05,0,0,0.05,80.45,0)" xlink:href="#ad"/><use transform="matrix(0.05,0,0,0.05,90.45,0)" xlink:href="#R"/></g><g id="r"><use transform="matrix(0.05,0,0,0.05,0,0)" xlink:href="#ap"/><use transform="matrix(0.05,0,0,0.05,12.950000000000001,0)" xlink:href="#N"/><use transform="matrix(0.05,0,0,0.05,22.950000000000003,0)" xlink:href="#ae"/><use transform="matrix(0.05,0,0,0.05,27.950000000000003,0)" xlink:href="#N"/></g><path d="M197 0v-115H63V0H30v-248h33v105h134v-105h34V0h-34" id="aq"/><g id="s"><use transform="matrix(0.05,0,0,0.05,0,0)" xlink:href="#aq"/><use transform="matrix(0.05,0,0,0.05,12.950000000000001,0)" xlink:href="#N"/><use transform="matrix(0.05,0,0,0.05,22.950000000000003,0)" xlink:href="#R"/><use transform="matrix(0.05,0,0,0.05,32.95,0)" xlink:href="#U"/><use transform="matrix(0.05,0,0,0.05,42.95,0)" xlink:href="#Z"/><use transform="matrix(0.05,0,0,0.05,46.900000000000006,0)" xlink:href="#Q"/><use transform="matrix(0.05,0,0,0.05,50.85000000000001,0)" xlink:href="#R"/><use transform="matrix(0.05,0,0,0.05,60.85,0)" xlink:href="#M"/></g><g id="t"><use transform="matrix(0.05,0,0,0.05,0,0)" xlink:href="#ae"/><use transform="matrix(0.05,0,0,0.05,5,0)" xlink:href="#V"/><use transform="matrix(0.05,0,0,0.05,15,0)" xlink:href="#an"/><use transform="matrix(0.05,0,0,0.05,24,0)" xlink:href="#ae"/><use transform="matrix(0.05,0,0,0.05,29,0)" xlink:href="#aa"/><use transform="matrix(0.05,0,0,0.05,39,0)" xlink:href="#Z"/><use transform="matrix(0.05,0,0,0.05,42.95,0)" xlink:href="#ad"/><use transform="matrix(0.05,0,0,0.05,52.95,0)" xlink:href="#aa"/></g><g id="u"><use transform="matrix(0.05,0,0,0.05,0,0)" xlink:href="#P"/><use transform="matrix(0.05,0,0,0.05,9,0)" xlink:href="#aj"/><use transform="matrix(0.05,0,0,0.05,18,0)" xlink:href="#Q"/><use transform="matrix(0.05,0,0,0.05,21.95,0)" xlink:href="#ac"/><use transform="matrix(0.05,0,0,0.05,31.950000000000003,0)" xlink:href="#af"/></g><path d="M210-169c-67 3-38 105-44 169h-31v-121c0-29-5-50-35-48C34-165 62-65 56 0H25l-1-190h30c1 10-1 24 2 32 10-44 99-50 107 0 11-21 27-35 58-36 85-2 47 119 55 194h-31v-121c0-29-5-49-35-48" id="ar"/><g id="v"><use transform="matrix(0.05,0,0,0.05,0,0)" xlink:href="#ar"/><use transform="matrix(0.05,0,0,0.05,14.950000000000001,0)" xlink:href="#N"/><use transform="matrix(0.05,0,0,0.05,24.950000000000003,0)" xlink:href="#ae"/><use transform="matrix(0.05,0,0,0.05,29.950000000000003,0)" xlink:href="#am"/></g><g id="w"><use transform="matrix(0.05,0,0,0.05,0,0)" xlink:href="#P"/><use transform="matrix(0.05,0,0,0.05,9,0)" xlink:href="#ae"/><use transform="matrix(0.05,0,0,0.05,14,0)" xlink:href="#N"/><use transform="matrix(0.05,0,0,0.05,24,0)" xlink:href="#ae"/><use transform="matrix(0.05,0,0,0.05,29,0)" xlink:href="#P"/><use transform="matrix(0.05,0,0,0.05,38,0)" xlink:href="#ar"/><use transform="matrix(0.05,0,0,0.05,52.95,0)" xlink:href="#ad"/><use transform="matrix(0.05,0,0,0.05,62.95,0)" xlink:href="#U"/><use transform="matrix(0.05,0,0,0.05,72.95,0)" xlink:href="#V"/><use transform="matrix(0.05,0,0,0.05,82.95,0)" xlink:href="#Z"/><use transform="matrix(0.05,0,0,0.05,86.9,0)" xlink:href="#P"/></g><g id="x"><use transform="matrix(0.05,0,0,0.05,0,0)" xlink:href="#T"/><use transform="matrix(0.05,0,0,0.05,9,0)" xlink:href="#P"/><use transform="matrix(0.05,0,0,0.05,18,0)" xlink:href="#ae"/><use transform="matrix(0.05,0,0,0.05,23,0)" xlink:href="#V"/><use transform="matrix(0.05,0,0,0.05,33,0)" xlink:href="#P"/><use transform="matrix(0.05,0,0,0.05,42,0)" xlink:href="#ae"/></g><g id="y"><use transform="matrix(0.05,0,0,0.05,0,0)" xlink:href="#ah"/><use transform="matrix(0.05,0,0,0.05,5,0)" xlink:href="#Q"/><use transform="matrix(0.05,0,0,0.05,8.95,0)" xlink:href="#M"/><use transform="matrix(0.05,0,0,0.05,18.95,0)" xlink:href="#O"/><use transform="matrix(0.05,0,0,0.05,28.950000000000003,0)" xlink:href="#ab"/><use transform="matrix(0.05,0,0,0.05,34.9,0)" xlink:href="#V"/><use transform="matrix(0.05,0,0,0.05,44.9,0)" xlink:href="#S"/><use transform="matrix(0.05,0,0,0.05,54.900000000000006,0)" xlink:href="#ah"/><use transform="matrix(0.05,0,0,0.05,59.900000000000006,0)" xlink:href="#N"/><use transform="matrix(0.05,0,0,0.05,69.9,0)" xlink:href="#aj"/><use transform="matrix(0.05,0,0,0.05,78.9,0)" xlink:href="#ae"/><use transform="matrix(0.05,0,0,0.05,83.9,0)" xlink:href="#ad"/><use transform="matrix(0.05,0,0,0.05,93.9,0)" xlink:href="#ab"/><use transform="matrix(0.05,0,0,0.05,99.85000000000001,0)" xlink:href="#af"/></g><g id="z"><use transform="matrix(0.05,0,0,0.05,0,0)" xlink:href="#Q"/><use transform="matrix(0.05,0,0,0.05,3.95,0)" xlink:href="#R"/><use transform="matrix(0.05,0,0,0.05,13.949999999999998,0)" xlink:href="#Q"/><use transform="matrix(0.05,0,0,0.05,17.9,0)" xlink:href="#ae"/><use transform="matrix(0.05,0,0,0.05,22.9,0)" xlink:href="#S"/><use transform="matrix(0.05,0,0,0.05,32.9,0)" xlink:href="#R"/><use transform="matrix(0.05,0,0,0.05,42.9,0)" xlink:href="#ad"/><use transform="matrix(0.05,0,0,0.05,52.900000000000006,0)" xlink:href="#ae"/><use transform="matrix(0.05,0,0,0.05,57.900000000000006,0)" xlink:href="#V"/><use transform="matrix(0.05,0,0,0.05,67.9,0)" xlink:href="#aa"/><use transform="matrix(0.05,0,0,0.05,77.9,0)" xlink:href="#ad"/><use transform="matrix(0.05,0,0,0.05,87.9,0)" xlink:href="#ad"/><use transform="matrix(0.05,0,0,0.05,97.9,0)" xlink:href="#T"/><use transform="matrix(0.05,0,0,0.05,106.9,0)" xlink:href="#S"/><use transform="matrix(0.05,0,0,0.05,116.9,0)" xlink:href="#ar"/><use transform="matrix(0.05,0,0,0.05,131.85,0)" xlink:href="#ad"/><use transform="matrix(0.05,0,0,0.05,141.85,0)" xlink:href="#U"/><use transform="matrix(0.05,0,0,0.05,151.85,0)" xlink:href="#V"/></g><g id="A"><use transform="matrix(0.05,0,0,0.05,0,0)" xlink:href="#ac"/><use transform="matrix(0.05,0,0,0.05,10,0)" xlink:href="#Q"/><use transform="matrix(0.05,0,0,0.05,13.949999999999998,0)" xlink:href="#ad"/></g><g id="B"><use transform="matrix(0.05,0,0,0.05,0,0)" xlink:href="#R"/><use transform="matrix(0.05,0,0,0.05,10,0)" xlink:href="#O"/><use transform="matrix(0.05,0,0,0.05,20,0)" xlink:href="#ar"/><use transform="matrix(0.05,0,0,0.05,34.95,0)" xlink:href="#ac"/><use transform="matrix(0.05,0,0,0.05,44.95,0)" xlink:href="#af"/></g><g id="C"><use transform="matrix(0.05,0,0,0.05,0,0)" xlink:href="#P"/><use transform="matrix(0.05,0,0,0.05,9,0)" xlink:href="#am"/><use transform="matrix(0.05,0,0,0.05,19,0)" xlink:href="#O"/><use transform="matrix(0.05,0,0,0.05,29,0)" xlink:href="#ae"/><use transform="matrix(0.05,0,0,0.05,34,0)" xlink:href="#Q"/><use transform="matrix(0.05,0,0,0.05,37.95,0)" xlink:href="#Z"/></g><g id="D"><use transform="matrix(0.05,0,0,0.05,0,0)" xlink:href="#P"/><use transform="matrix(0.05,0,0,0.05,9,0)" xlink:href="#ac"/><use transform="matrix(0.05,0,0,0.05,19,0)" xlink:href="#V"/><use transform="matrix(0.05,0,0,0.05,29,0)" xlink:href="#N"/><use transform="matrix(0.05,0,0,0.05,39,0)" xlink:href="#ab"/><use transform="matrix(0.05,0,0,0.05,44.95,0)" xlink:href="#ar"/><use transform="matrix(0.05,0,0,0.05,59.900000000000006,0)" xlink:href="#N"/><use transform="matrix(0.05,0,0,0.05,69.9,0)" xlink:href="#R"/><use transform="matrix(0.05,0,0,0.05,79.9,0)" xlink:href="#ab"/></g><path d="M24-248c120-7 223 5 221 122C244-46 201 0 124 0H24v-248zM76-40c74 7 117-18 117-86 0-67-45-88-117-82v168" id="as"/><path d="M133-34C117-15 103 5 69 4 32 3 11-16 11-54c-1-60 55-63 116-61 1-26-3-47-28-47-18 1-26 9-28 27l-52-2c7-38 36-58 82-57s74 22 75 68l1 82c-1 14 12 18 25 15v27c-30 8-71 5-69-32zm-48 3c29 0 43-24 42-57-32 0-66-3-65 30 0 17 8 27 23 27" id="at"/><path d="M115-3C79 11 28 4 28-45v-112H4v-33h27l15-45h31v45h36v33H77v99c-1 23 16 31 38 25v30" id="au"/><g id="E"><use transform="matrix(0.05555555555555555,0,0,0.05555555555555555,0,0)" xlink:href="#as"/><use transform="matrix(0.05555555555555555,0,0,0.05555555555555555,14.388888888888888,0)" xlink:href="#at"/><use transform="matrix(0.05555555555555555,0,0,0.05555555555555555,25.5,0)" xlink:href="#au"/><use transform="matrix(0.05555555555555555,0,0,0.05555555555555555,32.111111111111114,0)" xlink:href="#at"/></g><path d="M169-182c-1-43-94-46-97-3 18 66 151 10 154 114 3 95-165 93-204 36-6-8-10-19-12-30l50-8c3 46 112 56 116 5-17-69-150-10-154-114-4-87 153-88 188-35 5 8 8 18 10 28" id="av"/><path d="M190-63c-7 42-38 67-86 67-59 0-84-38-90-98-12-110 154-137 174-36l-49 2c-2-19-15-32-35-32-30 0-35 28-38 64-6 74 65 87 74 30" id="aw"/><path d="M25-224v-37h50v37H25zM25 0v-190h50V0H25" id="ax"/><path d="M185-48c-13 30-37 53-82 52C43 2 14-33 14-96s30-98 90-98c62 0 83 45 84 108H66c0 31 8 55 39 56 18 0 30-7 34-22zm-45-69c5-46-57-63-70-21-2 6-4 13-4 21h74" id="ay"/><path d="M135-194c87-1 58 113 63 194h-50c-7-57 23-157-34-157-59 0-34 97-39 157H25l-1-190h47c2 12-1 28 3 38 12-26 28-41 61-42" id="az"/><g id="F"><use transform="matrix(0.05555555555555555,0,0,0.05555555555555555,0,0)" xlink:href="#av"/><use transform="matrix(0.05555555555555555,0,0,0.05555555555555555,13.333333333333332,0)" xlink:href="#aw"/><use transform="matrix(0.05555555555555555,0,0,0.05555555555555555,24.444444444444443,0)" xlink:href="#ax"/><use transform="matrix(0.05555555555555555,0,0,0.05555555555555555,30,0)" xlink:href="#ay"/><use transform="matrix(0.05555555555555555,0,0,0.05555555555555555,41.111111111111114,0)" xlink:href="#az"/><use transform="matrix(0.05555555555555555,0,0,0.05555555555555555,53.27777777777778,0)" xlink:href="#aw"/><use transform="matrix(0.05555555555555555,0,0,0.05555555555555555,64.38888888888889,0)" xlink:href="#ay"/></g><g id="G"><use transform="matrix(0.05,0,0,0.05,0,0)" xlink:href="#ad"/><use transform="matrix(0.05,0,0,0.05,10,0)" xlink:href="#ah"/><use transform="matrix(0.05,0,0,0.05,14.65,0)" xlink:href="#ah"/><use transform="matrix(0.05,0,0,0.05,19.65,0)" xlink:href="#Z"/><use transform="matrix(0.05,0,0,0.05,23.599999999999998,0)" xlink:href="#Q"/><use transform="matrix(0.05,0,0,0.05,27.549999999999997,0)" xlink:href="#R"/><use transform="matrix(0.05,0,0,0.05,37.55,0)" xlink:href="#V"/></g><path d="M185-189c-5-48-123-54-124 2 14 75 158 14 163 119 3 78-121 87-175 55-17-10-28-26-33-46l33-7c5 56 141 63 141-1 0-78-155-14-162-118-5-82 145-84 179-34 5 7 8 16 11 25" id="aA"/><g id="H"><use transform="matrix(0.05,0,0,0.05,0,0)" xlink:href="#aA"/><use transform="matrix(0.05,0,0,0.05,12,0)" xlink:href="#V"/><use transform="matrix(0.05,0,0,0.05,22,0)" xlink:href="#N"/><use transform="matrix(0.05,0,0,0.05,32,0)" xlink:href="#aa"/><use transform="matrix(0.05,0,0,0.05,42,0)" xlink:href="#ad"/><use transform="matrix(0.05,0,0,0.05,52,0)" xlink:href="#ab"/><use transform="matrix(0.05,0,0,0.05,57.95,0)" xlink:href="#R"/></g><g id="I"><use transform="matrix(0.05,0,0,0.05,0,0)" xlink:href="#P"/><use transform="matrix(0.05,0,0,0.05,9,0)" xlink:href="#T"/><use transform="matrix(0.05,0,0,0.05,18,0)" xlink:href="#Z"/><use transform="matrix(0.05,0,0,0.05,21.95,0)" xlink:href="#V"/><use transform="matrix(0.05,0,0,0.05,31.950000000000003,0)" xlink:href="#N"/><use transform="matrix(0.05,0,0,0.05,41.95,0)" xlink:href="#ab"/><use transform="matrix(0.05,0,0,0.05,47.900000000000006,0)" xlink:href="#R"/></g><path d="M234-2c-28 10-62 0-77-18C117 19 8 12 13-65c3-43 29-61 60-76-25-40-17-114 47-108 35 3 59 15 59 50 0 44-40 53-71 69 14 26 32 50 51 72 14-21 24-43 30-72l26 8c-9 33-21 57-38 82 13 13 33 22 57 15v23zM97-151c25-10 52-18 56-48-1-18-13-29-33-29-42 0-39 50-23 77zM42-66c-3 51 71 58 98 28-20-24-41-51-56-80-23 10-40 24-42 52" id="aB"/><path d="M240 0l2-218c-23 76-54 145-80 218h-23L58-218 59 0H30v-248h44l77 211c21-75 51-140 76-211h43V0h-30" id="aC"/><g id="J"><use transform="matrix(0.05,0,0,0.05,0,0)" xlink:href="#aA"/><use transform="matrix(0.05,0,0,0.05,12,0)" xlink:href="#ae"/><use transform="matrix(0.05,0,0,0.05,17,0)" xlink:href="#N"/><use transform="matrix(0.05,0,0,0.05,27,0)" xlink:href="#ae"/><use transform="matrix(0.05,0,0,0.05,32,0)" xlink:href="#Q"/><use transform="matrix(0.05,0,0,0.05,35.95,0)" xlink:href="#P"/><use transform="matrix(0.05,0,0,0.05,44.95,0)" xlink:href="#ae"/><use transform="matrix(0.05,0,0,0.05,49.95,0)" xlink:href="#Q"/><use transform="matrix(0.05,0,0,0.05,53.900000000000006,0)" xlink:href="#aj"/><use transform="matrix(0.05,0,0,0.05,62.900000000000006,0)" xlink:href="#P"/><use transform="matrix(0.05,0,0,0.05,71.9,0)" xlink:href="#aB"/><use transform="matrix(0.05,0,0,0.05,83.9,0)" xlink:href="#aC"/><use transform="matrix(0.05,0,0,0.05,98.85000000000001,0)" xlink:href="#N"/><use transform="matrix(0.05,0,0,0.05,108.85000000000001,0)" xlink:href="#ae"/><use transform="matrix(0.05,0,0,0.05,113.85000000000001,0)" xlink:href="#am"/><use transform="matrix(0.05,0,0,0.05,123.85000000000001,0)" xlink:href="#V"/><use transform="matrix(0.05,0,0,0.05,133.85000000000002,0)" xlink:href="#ar"/><use transform="matrix(0.05,0,0,0.05,148.8,0)" xlink:href="#N"/><use transform="matrix(0.05,0,0,0.05,158.8,0)" xlink:href="#ae"/><use transform="matrix(0.05,0,0,0.05,163.8,0)" xlink:href="#Q"/><use transform="matrix(0.05,0,0,0.05,167.75,0)" xlink:href="#aj"/><use transform="matrix(0.05,0,0,0.05,176.75,0)" xlink:href="#P"/></g><g id="K"><use transform="matrix(0.05,0,0,0.05,0,0)" xlink:href="#P"/><use transform="matrix(0.05,0,0,0.05,9,0)" xlink:href="#O"/><use transform="matrix(0.05,0,0,0.05,19,0)" xlink:href="#aa"/><use transform="matrix(0.05,0,0,0.05,29,0)" xlink:href="#ac"/><use transform="matrix(0.05,0,0,0.05,39,0)" xlink:href="#Z"/><use transform="matrix(0.05,0,0,0.05,42.95,0)" xlink:href="#ad"/><use transform="matrix(0.05,0,0,0.05,52.95,0)" xlink:href="#ae"/><use transform="matrix(0.05,0,0,0.05,57.95,0)" xlink:href="#P"/></g><path d="M24-231v-30h32v30H24zM-9 49c24 4 33-6 33-30v-209h32V24c2 40-23 58-65 49V49" id="aD"/><g id="L"><use transform="matrix(0.05,0,0,0.05,0,0)" xlink:href="#M"/><use transform="matrix(0.05,0,0,0.05,10,0)" xlink:href="#ab"/><use transform="matrix(0.05,0,0,0.05,15.949999999999998,0)" xlink:href="#N"/><use transform="matrix(0.05,0,0,0.05,25.950000000000003,0)" xlink:href="#ac"/><use transform="matrix(0.05,0,0,0.05,35.95,0)" xlink:href="#am"/><use transform="matrix(0.05,0,0,0.05,45.95,0)" xlink:href="#S"/><use transform="matrix(0.05,0,0,0.05,55.95,0)" xlink:href="#ad"/><use transform="matrix(0.05,0,0,0.05,65.95,0)" xlink:href="#aa"/><use transform="matrix(0.05,0,0,0.05,75.95,0)" xlink:href="#aD"/><use transform="matrix(0.05,0,0,0.05,79.9,0)" xlink:href="#P"/></g></defs></g></svg>