<svg xmlns="http://www.w3.org/2000/svg" xmlns:xlink="http://www.w3.org/1999/xlink" xmlns:lucid="lucid" width="1589.39" height="742.88"><g transform="translate(188.19333333333338 -25.657500000000084)" lucid:page-tab-id="_VkMPIZkk.Be"><path d="M-500 0h2000v1000H-500z" fill="#f2f3f5"/><path d="M761.93 626.12h155" stroke="#fc9432" stroke-width="5" stroke-linejoin="round" fill="none"/><path d="M762 628.6h-2.57v-4.95H762zM919.43 628.6h-2.57v-4.95h2.57z" stroke="#fc9432" stroke-width=".05" fill="#fc9432"/><path d="M-168.2 488.7a40 40 0 0 1 40-40h160a40 40 0 0 1 40 40 40 40 0 0 1-40 40h-160a40 40 0 0 1-40-40z" fill="#fff"/><use xlink:href="#a" transform="matrix(1,0,0,1,-168.19333333333338,448.70750000000004) translate(59.61111111111111 44)"/><path d="M872.18 137.27h90.96v61.6h-90.96z" fill="none"/><use xlink:href="#b" transform="matrix(1,0,0,1,892.1766666666665,160.26750000000015) translate(0 14.6)"/><path d="M872.18 412.1h145.96v61.6H872.18z" fill="none"/><use xlink:href="#c" transform="matrix(1,0,0,1,892.1766666666665,435.0975000000001) translate(0 14.6)"/><path d="M635.22 366.3h75.6v61.6h-75.6z" fill="none"/><use xlink:href="#d" transform="matrix(1,0,0,1,655.2166666666666,389.2925) translate(0 14.6)"/><path d="M1178.4 686.93h182.8v61.6h-182.8z" fill="none"/><use xlink:href="#e" transform="matrix(1,0,0,1,1198.3866666666665,709.9275) translate(0 14.6)"/><use xlink:href="#f" transform="matrix(1,0,0,1,1198.3866666666665,709.9275) translate(57 14.6)"/><path d="M74.3 488.76h.37l2.73.18 2.64.27 2.54.4 2.48.46 2.4.57 2.37.66 2.33.75 2.3.85 2.3.97 2.3 1.08 2.3 1.2 2.3 1.34 2.37 1.5 2.4 1.66 2.48 1.88 2.57 2.12 2.68 2.4 2.84 2.8 3.02 3.23 3.32 3.83 3.72 4.7 4.4 6.06 5.72 8.64 30.98 50.8 4.4 6.05 3.7 4.7 3.33 3.84 3.03 3.24 2.83 2.78 2.68 2.4 2.56 2.13 2.48 1.87 2.4 1.67 2.36 1.5 2.32 1.34 2.3 1.2 2.3 1.08 2.28.97 2.3.85 2.34.76 2.37.66 2.4.57 2.48.47 2.55.38 2.63.27 2.75.16h.36" stroke="#fc9432" stroke-width="5" stroke-linejoin="round" fill="none"/><path d="M74.42 486.3l-.1 4.94-2.7-.06.2-2.47-.2-2.47zM231.8 623.65v4.95h-2.56v-4.95z" stroke="#fc9432" stroke-width=".05" fill="#fc9432"/><path d="M1020.9 626.17l1.73.04 3.96.26 3.74.4 3.55.52 3.38.64 3.26.77 3.15.87 3.06 1 3 1.12 3 1.24 2.94 1.4 2.96 1.53 3 1.74 3.06 1.95 3.18 2.2 3.34 2.55 3.62 3 4.04 3.64 4.86 4.77 7.17 7.68 22.08 24.57 4.87 4.77 4.05 3.64 3.6 3 3.36 2.54 3.17 2.2 3.06 1.95 3 1.73 2.97 1.55 2.96 1.4 2.97 1.24 3 1.12 3.08 1 3.16.87 3.26.76 3.4.65 3.54.52 3.74.4 3.97.25 1.74.03" stroke="#fc9432" stroke-width="5" stroke-linejoin="round" fill="none"/><path d="M1021 623.7l-.1 4.95-2.5-.05v-4.95zM1178.4 715.26v4.95h-2.58v-4.94z" stroke="#fc9432" stroke-width=".05" fill="#fc9432"/><path d="M231.8 320.5h243.42v61.6h-243.4z" fill="none"/><use xlink:href="#g" transform="matrix(1,0,0,1,251.80666666666662,343.48750000000007) translate(0 14.6)"/><use xlink:href="#h" transform="matrix(1,0,0,1,251.80666666666662,343.48750000000007) translate(60.55 14.6)"/><use xlink:href="#i" transform="matrix(1,0,0,1,251.80666666666662,343.48750000000007) translate(102.5 14.6)"/><path d="M919.43 595.32h98.96v61.6h-98.97z" fill="none"/><use xlink:href="#j" transform="matrix(1,0,0,1,939.4266666666665,618.3175000000001) translate(0 14.6)"/><path d="M635.22 274.68h76.96v61.6h-76.96z" fill="none"/><use xlink:href="#k" transform="matrix(1,0,0,1,655.2166666666666,297.6825000000001) translate(0 14.6)"/><path d="M444.07 626.12h155" stroke="#fc9432" stroke-width="5" stroke-linejoin="round" fill="none"/><path d="M444.13 628.6h-2.56v-4.95h2.56zM601.57 628.6H599v-4.95h2.57z" stroke="#fc9432" stroke-width=".05" fill="#fc9432"/><path d="M872.18 320.5h74v61.6h-74z" fill="none"/><use xlink:href="#l" transform="matrix(1,0,0,1,892.1766666666665,343.48750000000007) translate(0 14.6)"/><path d="M872.18 228.88h90.96v61.6h-90.96z" fill="none"/><use xlink:href="#m" transform="matrix(1,0,0,1,892.1766666666665,251.87750000000005) translate(0 14.6)"/><path d="M601.57 595.32h157.86v61.6H601.57z" fill="none"/><use xlink:href="#n" transform="matrix(1,0,0,1,621.5666666666666,618.3175000000001) translate(0 14.6)"/><path d="M714.68 305.57l.92.06 1.65.17 1.63.24 1.6.3 1.6.38 1.57.44 1.57.5 1.58.6 1.6.67 1.6.76 1.62.84 1.66.95 1.7 1.07 1.73 1.2 1.8 1.37 1.86 1.54 1.94 1.75 2.03 2 2.15 2.27 2.28 2.65 2.44 3.1 2.65 3.63 2.9 4.37 3.23 5.34 3.67 6.68 4.32 8.73 5.42 12.24 8.06 20.52 29.5 80.6 5.42 12.23 4.33 8.72 3.68 6.7 3.23 5.33 2.9 4.37 2.65 3.64 2.44 3.1 2.27 2.63 2.15 2.28 2.03 2 1.94 1.74 1.85 1.54 1.8 1.36 1.73 1.2 1.7 1.1 1.65.94 1.63.85 1.6.77 1.6.67 1.57.6 1.58.5 1.58.44 1.6.37 1.6.3 1.62.25 1.65.17.93.06" stroke="#e81313" stroke-width="5" stroke-linejoin="round" fill="none"/><path d="M714.8 303.07l-.1 4.95-2.52-.06V303zM872.18 532.04V537h-2.57v-4.96z" stroke="#e81313" stroke-width=".05" fill="#e81313"/><path d="M477.72 351.34l5.7.12 7.2.45 6.45.7 5.88.85 5.43 1.04 5.1 1.2 4.9 1.36 4.82 1.56 4.84 1.8 5.07 2.13 5.72 2.7 7.8 4.08 25 13.82 5.7 2.7 5.08 2.12 4.84 1.8 4.8 1.56 4.9 1.37 5.1 1.2 5.45 1.04 5.86.86 6.46.68 7.2.45 5.7.12" stroke="#e81313" stroke-width="5" stroke-linejoin="round" fill="none"/><path d="M477.83 348.87l-.1 4.95-2.5-.05v-4.95zM635.22 394.62v4.95h-2.57v-4.95z" stroke="#e81313" stroke-width=".05" fill="#e81313"/><path d="M1178.4 503.7h73.9v61.62h-73.9z" fill="none"/><use xlink:href="#o" transform="matrix(1,0,0,1,1198.3866666666665,526.7075) translate(0 14.6)"/><path d="M872.18 503.7h129.96v61.62H872.18z" fill="none"/><use xlink:href="#p" transform="matrix(1,0,0,1,892.1766666666665,526.7075000000001) translate(0 14.6)"/><path d="M231.8 595.32h209.77v61.6H231.8z" fill="none"/><use xlink:href="#q" transform="matrix(1,0,0,1,251.80666666666662,618.3175000000001) translate(0 14.6)"/><use xlink:href="#r" transform="matrix(1,0,0,1,251.80666666666662,618.3175000000001) translate(94.80000000000001 14.6)"/><path d="M872.18 45.66h82.3v61.6h-82.3z" fill="none"/><use xlink:href="#s" transform="matrix(1,0,0,1,892.1766666666665,68.65750000000008) translate(0 14.6)"/><path d="M1178.4 595.32h202.8v61.6h-202.8z" fill="none"/><use xlink:href="#t" transform="matrix(1,0,0,1,1198.3866666666665,618.3175000000001) translate(0 14.6)"/><use xlink:href="#u" transform="matrix(1,0,0,1,1198.3866666666665,618.3175000000001) translate(61.900000000000006 14.6)"/><path d="M1020.9 626.12h155" stroke="#fc9432" stroke-width="5" stroke-linejoin="round" fill="none"/><path d="M1020.95 628.6h-2.56v-4.95h2.55zM1178.4 628.6h-2.58v-4.95h2.57z" stroke="#fc9432" stroke-width=".05" fill="#fc9432"/><path d="M74.3 488.65h.37l2.73-.17 2.64-.28 2.54-.38 2.48-.47 2.4-.56 2.37-.67 2.33-.76 2.3-.86 2.3-.95 2.3-1.08 2.3-1.2 2.3-1.34 2.37-1.5 2.4-1.67 2.48-1.88 2.57-2.12 2.68-2.42 2.84-2.77 3.02-3.24 3.32-3.85 3.72-4.7 4.4-6.05 5.72-8.65 30.98-50.8 4.4-6.06 3.7-4.7 3.33-3.85 3.03-3.24 2.83-2.77 2.68-2.42 2.56-2.12 2.48-1.88 2.4-1.67 2.36-1.5 2.32-1.34 2.3-1.2 2.3-1.08 2.28-.96 2.3-.87 2.34-.76 2.37-.66 2.4-.55 2.48-.47 2.55-.38 2.63-.28 2.75-.17h.36" stroke="#e81313" stroke-width="5" stroke-linejoin="round" fill="none"/><path d="M74.42 491.13l-2.8.06.2-2.5-.2-2.46 2.7-.06zM231.8 353.77h-2.56v-4.95h2.57z" stroke="#e81313" stroke-width=".05" fill="#e81313"/><path d="M477.72 351.24l5.7-.12 7.2-.45 6.45-.67 5.88-.87 5.43-1.03 5.1-1.2 4.9-1.37 4.82-1.56 4.84-1.8 5.07-2.14 5.72-2.7 7.8-4.08 25-13.8 5.7-2.7 5.08-2.14 4.84-1.8 4.8-1.55 4.9-1.37 5.1-1.2 5.45-1.03 5.86-.87 6.46-.67 7.2-.45 5.7-.1" stroke="#e81313" stroke-width="5" stroke-linejoin="round" fill="none"/><path d="M477.83 353.7l-2.6.07v-4.95l2.5-.05zM635.22 307.96h-2.57V303h2.57z" stroke="#e81313" stroke-width=".05" fill="#e81313"/><path d="M714.68 305.54h.36l2.73.18 2.64.27 2.55.37 2.47.47 2.42.57 2.36.67 2.33.76 2.3.85 2.3.97 2.3 1.08 2.3 1.2 2.3 1.34 2.37 1.5 2.4 1.67 2.48 1.88 2.56 2.12 2.68 2.4 2.84 2.8 3.03 3.23 3.3 3.84 3.73 4.72 4.4 6.05 5.72 8.65 30.98 50.8 4.4 6.05 3.7 4.7 3.33 3.85 3.04 3.24 2.83 2.78 2.68 2.4 2.57 2.13 2.48 1.88 2.4 1.67 2.36 1.5 2.33 1.34 2.3 1.2 2.3 1.08 2.28.97 2.32.86 2.33.76 2.37.66 2.4.57 2.48.47 2.55.38 2.63.27 2.74.17h.36" stroke="#e81313" stroke-width="5" stroke-linejoin="round" fill="none"/><path d="M714.8 303.07l-.1 4.94-2.52-.04V303zM872.18 440.43v4.95h-2.57v-4.95z" stroke="#e81313" stroke-width=".05" fill="#e81313"/><path d="M714.68 305.54l5.7.1 7.2.47 6.45.68 5.88.87 5.44 1.03 5.1 1.2 4.9 1.37 4.82 1.56 4.84 1.8 5.07 2.15 5.7 2.7 7.8 4.08 25 13.8 5.7 2.7 5.1 2.14 4.83 1.8 4.8 1.56 4.9 1.37 5.1 1.2 5.45 1.03 5.87.87 6.45.67 7.2.45 5.7.12" stroke="#e81313" stroke-width="5" stroke-linejoin="round" fill="none"/><path d="M714.8 303.07l-.1 4.94-2.52-.04V303zM872.18 348.82v4.95h-2.57v-4.95z" stroke="#e81313" stroke-width=".05" fill="#e81313"/><path d="M1020.9 626.07l1.73-.04 3.96-.24 3.74-.4 3.55-.53 3.38-.65 3.26-.76 3.15-.88 3.06-1 3-1.12 3-1.25 2.94-1.38 2.96-1.55 3-1.73 3.06-1.95 3.18-2.2 3.34-2.55 3.62-3 4.04-3.64 4.86-4.76 7.17-7.67L1113 564.2l4.87-4.77 4.05-3.65 3.6-3 3.36-2.53 3.17-2.2 3.06-1.95 3-1.74 2.97-1.54 2.96-1.4 2.97-1.25 3-1.12 3.08-1 3.16-.87 3.26-.77 3.4-.63 3.54-.53 3.74-.4 3.97-.24 1.74-.04" stroke="#fc9432" stroke-width="5" stroke-linejoin="round" fill="none"/><path d="M1021 628.54l-2.6.06v-4.95l2.5-.05zM1178.4 537h-2.58v-4.96h2.57z" stroke="#fc9432" stroke-width=".05" fill="#fc9432"/><path d="M714.68 305.44l5.7-.12 7.2-.45 6.45-.68 5.88-.87 5.44-1.04 5.1-1.2 4.9-1.38 4.82-1.56 4.84-1.8 5.07-2.13 5.7-2.7 7.8-4.08 25-13.82 5.7-2.7 5.1-2.12 4.83-1.8 4.8-1.56 4.9-1.36 5.1-1.2 5.45-1.04 5.87-.86 6.45-.68 7.2-.45 5.7-.12" stroke="#e81313" stroke-width="5" stroke-linejoin="round" fill="none"/><path d="M714.8 307.9l-2.62.06V303l2.5-.04zM872.18 262.16h-2.57v-4.95h2.58z" stroke="#e81313" stroke-width=".05" fill="#e81313"/><path d="M714.68 305.44h.36l2.73-.18 2.64-.28 2.55-.38 2.47-.47 2.42-.56 2.36-.66 2.33-.75 2.3-.86 2.3-.97 2.3-1.08 2.3-1.2 2.3-1.35 2.37-1.5 2.4-1.66 2.48-1.88 2.56-2.12 2.68-2.42 2.84-2.77 3.03-3.24 3.3-3.84 3.73-4.7 4.4-6.05 5.72-8.64 30.98-50.8 4.4-6.06 3.7-4.7 3.33-3.85 3.04-3.23 2.83-2.78 2.68-2.42 2.57-2.12 2.48-1.88 2.4-1.67 2.36-1.5 2.33-1.34 2.3-1.2 2.3-1.07 2.28-.96 2.32-.86 2.33-.75 2.37-.66 2.4-.57 2.48-.47 2.55-.38 2.63-.28 2.74-.17h.36" stroke="#e81313" stroke-width="5" stroke-linejoin="round" fill="none"/><path d="M714.8 307.9l-2.62.06V303l2.5-.04zM872.18 170.55h-2.57v-4.95h2.58z" stroke="#e81313" stroke-width=".05" fill="#e81313"/><path d="M714.68 305.4l.92-.05 1.65-.18 1.63-.24 1.6-.3 1.6-.38 1.57-.44 1.57-.5 1.58-.6 1.6-.66 1.6-.75 1.62-.86 1.66-.96 1.7-1.07 1.73-1.2 1.8-1.36 1.86-1.54 1.94-1.75 2.03-2 2.15-2.28 2.28-2.64 2.44-3.1 2.65-3.64 2.9-4.38 3.23-5.33 3.67-6.7 4.32-8.74 5.42-12.22 8.06-20.52 29.5-80.6 5.42-12.23 4.33-8.74 3.68-6.7 3.23-5.33 2.9-4.37 2.65-3.65 2.44-3.08 2.27-2.64 2.15-2.3 2.03-1.98 1.94-1.75 1.85-1.54 1.8-1.35 1.73-1.2 1.7-1.08 1.65-.96 1.63-.84 1.6-.75 1.6-.66 1.57-.6 1.58-.5 1.58-.44 1.6-.38 1.6-.3 1.62-.24 1.65-.17.93-.05" stroke="#e81313" stroke-width="5" stroke-linejoin="round" fill="none"/><path d="M714.8 307.9l-2.62.06V303l2.5-.04zM872.18 78.94h-2.57V74h2.58z" stroke="#e81313" stroke-width=".05" fill="#e81313"/><path d="M761.93 626.12h155" stroke="#fc9432" stroke-width="5" stroke-linejoin="round" fill="none"/><path d="M762 628.6h-2.57v-4.95H762zM919.43 628.6h-2.57v-4.95h2.57z" stroke="#fc9432" stroke-width=".05" fill="#fc9432"/><path d="M-168.2 488.7a40 40 0 0 1 40-40h160a40 40 0 0 1 40 40 40 40 0 0 1-40 40h-160a40 40 0 0 1-40-40z" fill="#fff"/><use xlink:href="#a" transform="matrix(1,0,0,1,-168.19333333333338,448.70750000000004) translate(59.61111111111111 44)"/><path d="M872.18 137.27h90.96v61.6h-90.96z" fill="none"/><use xlink:href="#b" transform="matrix(1,0,0,1,892.1766666666665,160.26750000000015) translate(0 14.6)"/><path d="M872.18 412.1h145.96v61.6H872.18z" fill="none"/><use xlink:href="#c" transform="matrix(1,0,0,1,892.1766666666665,435.0975000000001) translate(0 14.6)"/><path d="M635.22 366.3h75.6v61.6h-75.6z" fill="none"/><use xlink:href="#d" transform="matrix(1,0,0,1,655.2166666666666,389.2925) translate(0 14.6)"/><path d="M1178.4 686.93h182.8v61.6h-182.8z" fill="none"/><use xlink:href="#e" transform="matrix(1,0,0,1,1198.3866666666665,709.9275) translate(0 14.6)"/><use xlink:href="#f" transform="matrix(1,0,0,1,1198.3866666666665,709.9275) translate(57 14.6)"/><path d="M74.3 488.76h.37l2.73.18 2.64.27 2.54.4 2.48.46 2.4.57 2.37.66 2.33.75 2.3.85 2.3.97 2.3 1.08 2.3 1.2 2.3 1.34 2.37 1.5 2.4 1.66 2.48 1.88 2.57 2.12 2.68 2.4 2.84 2.8 3.02 3.23 3.32 3.83 3.72 4.7 4.4 6.06 5.72 8.64 30.98 50.8 4.4 6.05 3.7 4.7 3.33 3.84 3.03 3.24 2.83 2.78 2.68 2.4 2.56 2.13 2.48 1.87 2.4 1.67 2.36 1.5 2.32 1.34 2.3 1.2 2.3 1.08 2.28.97 2.3.85 2.34.76 2.37.66 2.4.57 2.48.47 2.55.38 2.63.27 2.75.16h.36" stroke="#fc9432" stroke-width="5" stroke-linejoin="round" fill="none"/><path d="M74.42 486.3l-.1 4.94-2.7-.06.2-2.47-.2-2.47zM231.8 623.65v4.95h-2.56v-4.95z" stroke="#fc9432" stroke-width=".05" fill="#fc9432"/><path d="M1020.9 626.17l1.73.04 3.96.26 3.74.4 3.55.52 3.38.64 3.26.77 3.15.87 3.06 1 3 1.12 3 1.24 2.94 1.4 2.96 1.53 3 1.74 3.06 1.95 3.18 2.2 3.34 2.55 3.62 3 4.04 3.64 4.86 4.77 7.17 7.68 22.08 24.57 4.87 4.77 4.05 3.64 3.6 3 3.36 2.54 3.17 2.2 3.06 1.95 3 1.73 2.97 1.55 2.96 1.4 2.97 1.24 3 1.12 3.08 1 3.16.87 3.26.76 3.4.65 3.54.52 3.74.4 3.97.25 1.74.03" stroke="#fc9432" stroke-width="5" stroke-linejoin="round" fill="none"/><path d="M1021 623.7l-.1 4.95-2.5-.05v-4.95zM1178.4 715.26v4.95h-2.58v-4.94z" stroke="#fc9432" stroke-width=".05" fill="#fc9432"/><path d="M231.8 320.5h243.42v61.6h-243.4z" fill="none"/><use xlink:href="#g" transform="matrix(1,0,0,1,251.80666666666662,343.48750000000007) translate(0 14.6)"/><use xlink:href="#h" transform="matrix(1,0,0,1,251.80666666666662,343.48750000000007) translate(60.55 14.6)"/><use xlink:href="#i" transform="matrix(1,0,0,1,251.80666666666662,343.48750000000007) translate(102.5 14.6)"/><path d="M919.43 595.32h98.96v61.6h-98.97z" fill="none"/><use xlink:href="#j" transform="matrix(1,0,0,1,939.4266666666665,618.3175000000001) translate(0 14.6)"/><path d="M635.22 274.68h76.96v61.6h-76.96z" fill="none"/><use xlink:href="#k" transform="matrix(1,0,0,1,655.2166666666666,297.6825000000001) translate(0 14.6)"/><path d="M444.07 626.12h155" stroke="#fc9432" stroke-width="5" stroke-linejoin="round" fill="none"/><path d="M444.13 628.6h-2.56v-4.95h2.56zM601.57 628.6H599v-4.95h2.57z" stroke="#fc9432" stroke-width=".05" fill="#fc9432"/><path d="M872.18 320.5h74v61.6h-74z" fill="none"/><use xlink:href="#l" transform="matrix(1,0,0,1,892.1766666666665,343.48750000000007) translate(0 14.6)"/><path d="M872.18 228.88h90.96v61.6h-90.96z" fill="none"/><use xlink:href="#m" transform="matrix(1,0,0,1,892.1766666666665,251.87750000000005) translate(0 14.6)"/><path d="M601.57 595.32h157.86v61.6H601.57z" fill="none"/><use xlink:href="#n" transform="matrix(1,0,0,1,621.5666666666666,618.3175000000001) translate(0 14.6)"/><path d="M714.68 305.57l.92.06 1.65.17 1.63.24 1.6.3 1.6.38 1.57.44 1.57.5 1.58.6 1.6.67 1.6.76 1.62.84 1.66.95 1.7 1.07 1.73 1.2 1.8 1.37 1.86 1.54 1.94 1.75 2.03 2 2.15 2.27 2.28 2.65 2.44 3.1 2.65 3.63 2.9 4.37 3.23 5.34 3.67 6.68 4.32 8.73 5.42 12.24 8.06 20.52 29.5 80.6 5.42 12.23 4.33 8.72 3.68 6.7 3.23 5.33 2.9 4.37 2.65 3.64 2.44 3.1 2.27 2.63 2.15 2.28 2.03 2 1.94 1.74 1.85 1.54 1.8 1.36 1.73 1.2 1.7 1.1 1.65.94 1.63.85 1.6.77 1.6.67 1.57.6 1.58.5 1.58.44 1.6.37 1.6.3 1.62.25 1.65.17.93.06" stroke="#e81313" stroke-width="5" stroke-linejoin="round" fill="none"/><path d="M714.8 303.07l-.1 4.95-2.52-.06V303zM872.18 532.04V537h-2.57v-4.96z" stroke="#e81313" stroke-width=".05" fill="#e81313"/><path d="M477.72 351.34l5.7.12 7.2.45 6.45.7 5.88.85 5.43 1.04 5.1 1.2 4.9 1.36 4.82 1.56 4.84 1.8 5.07 2.13 5.72 2.7 7.8 4.08 25 13.82 5.7 2.7 5.08 2.12 4.84 1.8 4.8 1.56 4.9 1.37 5.1 1.2 5.45 1.04 5.86.86 6.46.68 7.2.45 5.7.12" stroke="#e81313" stroke-width="5" stroke-linejoin="round" fill="none"/><path d="M477.83 348.87l-.1 4.95-2.5-.05v-4.95zM635.22 394.62v4.95h-2.57v-4.95z" stroke="#e81313" stroke-width=".05" fill="#e81313"/><path d="M1178.4 503.7h73.9v61.62h-73.9z" fill="none"/><use xlink:href="#o" transform="matrix(1,0,0,1,1198.3866666666665,526.7075) translate(0 14.6)"/><path d="M872.18 503.7h129.96v61.62H872.18z" fill="none"/><use xlink:href="#p" transform="matrix(1,0,0,1,892.1766666666665,526.7075000000001) translate(0 14.6)"/><path d="M231.8 595.32h209.77v61.6H231.8z" fill="none"/><use xlink:href="#q" transform="matrix(1,0,0,1,251.80666666666662,618.3175000000001) translate(0 14.6)"/><use xlink:href="#r" transform="matrix(1,0,0,1,251.80666666666662,618.3175000000001) translate(94.80000000000001 14.6)"/><path d="M872.18 45.66h82.3v61.6h-82.3z" fill="none"/><use xlink:href="#s" transform="matrix(1,0,0,1,892.1766666666665,68.65750000000008) translate(0 14.6)"/><path d="M1178.4 595.32h202.8v61.6h-202.8z" fill="none"/><use xlink:href="#t" transform="matrix(1,0,0,1,1198.3866666666665,618.3175000000001) translate(0 14.6)"/><use xlink:href="#u" transform="matrix(1,0,0,1,1198.3866666666665,618.3175000000001) translate(61.900000000000006 14.6)"/><path d="M1020.9 626.12h155" stroke="#fc9432" stroke-width="5" stroke-linejoin="round" fill="none"/><path d="M1020.95 628.6h-2.56v-4.95h2.55zM1178.4 628.6h-2.58v-4.95h2.57z" stroke="#fc9432" stroke-width=".05" fill="#fc9432"/><path d="M74.3 488.65h.37l2.73-.17 2.64-.28 2.54-.38 2.48-.47 2.4-.56 2.37-.67 2.33-.76 2.3-.86 2.3-.95 2.3-1.08 2.3-1.2 2.3-1.34 2.37-1.5 2.4-1.67 2.48-1.88 2.57-2.12 2.68-2.42 2.84-2.77 3.02-3.24 3.32-3.85 3.72-4.7 4.4-6.05 5.72-8.65 30.98-50.8 4.4-6.06 3.7-4.7 3.33-3.85 3.03-3.24 2.83-2.77 2.68-2.42 2.56-2.12 2.48-1.88 2.4-1.67 2.36-1.5 2.32-1.34 2.3-1.2 2.3-1.08 2.28-.96 2.3-.87 2.34-.76 2.37-.66 2.4-.55 2.48-.47 2.55-.38 2.63-.28 2.75-.17h.36" stroke="#e81313" stroke-width="5" stroke-linejoin="round" fill="none"/><path d="M74.42 491.13l-2.8.06.2-2.5-.2-2.46 2.7-.06zM231.8 353.77h-2.56v-4.95h2.57z" stroke="#e81313" stroke-width=".05" fill="#e81313"/><path d="M477.72 351.24l5.7-.12 7.2-.45 6.45-.67 5.88-.87 5.43-1.03 5.1-1.2 4.9-1.37 4.82-1.56 4.84-1.8 5.07-2.14 5.72-2.7 7.8-4.08 25-13.8 5.7-2.7 5.08-2.14 4.84-1.8 4.8-1.55 4.9-1.37 5.1-1.2 5.45-1.03 5.86-.87 6.46-.67 7.2-.45 5.7-.1" stroke="#e81313" stroke-width="5" stroke-linejoin="round" fill="none"/><path d="M477.83 353.7l-2.6.07v-4.95l2.5-.05zM635.22 307.96h-2.57V303h2.57z" stroke="#e81313" stroke-width=".05" fill="#e81313"/><path d="M714.68 305.54h.36l2.73.18 2.64.27 2.55.37 2.47.47 2.42.57 2.36.67 2.33.76 2.3.85 2.3.97 2.3 1.08 2.3 1.2 2.3 1.34 2.37 1.5 2.4 1.67 2.48 1.88 2.56 2.12 2.68 2.4 2.84 2.8 3.03 3.23 3.3 3.84 3.73 4.72 4.4 6.05 5.72 8.65 30.98 50.8 4.4 6.05 3.7 4.7 3.33 3.85 3.04 3.24 2.83 2.78 2.68 2.4 2.57 2.13 2.48 1.88 2.4 1.67 2.36 1.5 2.33 1.34 2.3 1.2 2.3 1.08 2.28.97 2.32.86 2.33.76 2.37.66 2.4.57 2.48.47 2.55.38 2.63.27 2.74.17h.36" stroke="#e81313" stroke-width="5" stroke-linejoin="round" fill="none"/><path d="M714.8 303.07l-.1 4.94-2.52-.04V303zM872.18 440.43v4.95h-2.57v-4.95z" stroke="#e81313" stroke-width=".05" fill="#e81313"/><path d="M714.68 305.54l5.7.1 7.2.47 6.45.68 5.88.87 5.44 1.03 5.1 1.2 4.9 1.37 4.82 1.56 4.84 1.8 5.07 2.15 5.7 2.7 7.8 4.08 25 13.8 5.7 2.7 5.1 2.14 4.83 1.8 4.8 1.56 4.9 1.37 5.1 1.2 5.45 1.03 5.87.87 6.45.67 7.2.45 5.7.12" stroke="#e81313" stroke-width="5" stroke-linejoin="round" fill="none"/><path d="M714.8 303.07l-.1 4.94-2.52-.04V303zM872.18 348.82v4.95h-2.57v-4.95z" stroke="#e81313" stroke-width=".05" fill="#e81313"/><path d="M1020.9 626.07l1.73-.04 3.96-.24 3.74-.4 3.55-.53 3.38-.65 3.26-.76 3.15-.88 3.06-1 3-1.12 3-1.25 2.94-1.38 2.96-1.55 3-1.73 3.06-1.95 3.18-2.2 3.34-2.55 3.62-3 4.04-3.64 4.86-4.76 7.17-7.67L1113 564.2l4.87-4.77 4.05-3.65 3.6-3 3.36-2.53 3.17-2.2 3.06-1.95 3-1.74 2.97-1.54 2.96-1.4 2.97-1.25 3-1.12 3.08-1 3.16-.87 3.26-.77 3.4-.63 3.54-.53 3.74-.4 3.97-.24 1.74-.04" stroke="#fc9432" stroke-width="5" stroke-linejoin="round" fill="none"/><path d="M1021 628.54l-2.6.06v-4.95l2.5-.05zM1178.4 537h-2.58v-4.96h2.57z" stroke="#fc9432" stroke-width=".05" fill="#fc9432"/><path d="M714.68 305.44l5.7-.12 7.2-.45 6.45-.68 5.88-.87 5.44-1.04 5.1-1.2 4.9-1.38 4.82-1.56 4.84-1.8 5.07-2.13 5.7-2.7 7.8-4.08 25-13.82 5.7-2.7 5.1-2.12 4.83-1.8 4.8-1.56 4.9-1.36 5.1-1.2 5.45-1.04 5.87-.86 6.45-.68 7.2-.45 5.7-.12" stroke="#e81313" stroke-width="5" stroke-linejoin="round" fill="none"/><path d="M714.8 307.9l-2.62.06V303l2.5-.04zM872.18 262.16h-2.57v-4.95h2.58z" stroke="#e81313" stroke-width=".05" fill="#e81313"/><path d="M714.68 305.44h.36l2.73-.18 2.64-.28 2.55-.38 2.47-.47 2.42-.56 2.36-.66 2.33-.75 2.3-.86 2.3-.97 2.3-1.08 2.3-1.2 2.3-1.35 2.37-1.5 2.4-1.66 2.48-1.88 2.56-2.12 2.68-2.42 2.84-2.77 3.03-3.24 3.3-3.84 3.73-4.7 4.4-6.05 5.72-8.64 30.98-50.8 4.4-6.06 3.7-4.7 3.33-3.85 3.04-3.23 2.83-2.78 2.68-2.42 2.57-2.12 2.48-1.88 2.4-1.67 2.36-1.5 2.33-1.34 2.3-1.2 2.3-1.07 2.28-.96 2.32-.86 2.33-.75 2.37-.66 2.4-.57 2.48-.47 2.55-.38 2.63-.28 2.74-.17h.36" stroke="#e81313" stroke-width="5" stroke-linejoin="round" fill="none"/><path d="M714.8 307.9l-2.62.06V303l2.5-.04zM872.18 170.55h-2.57v-4.95h2.58z" stroke="#e81313" stroke-width=".05" fill="#e81313"/><path d="M714.68 305.4l.92-.05 1.65-.18 1.63-.24 1.6-.3 1.6-.38 1.57-.44 1.57-.5 1.58-.6 1.6-.66 1.6-.75 1.62-.86 1.66-.96 1.7-1.07 1.73-1.2 1.8-1.36 1.86-1.54 1.94-1.75 2.03-2 2.15-2.28 2.28-2.64 2.44-3.1 2.65-3.64 2.9-4.38 3.23-5.33 3.67-6.7 4.32-8.74 5.42-12.22 8.06-20.52 29.5-80.6 5.42-12.23 4.33-8.74 3.68-6.7 3.23-5.33 2.9-4.37 2.65-3.65 2.44-3.08 2.27-2.64 2.15-2.3 2.03-1.98 1.94-1.75 1.85-1.54 1.8-1.35 1.73-1.2 1.7-1.08 1.65-.96 1.63-.84 1.6-.75 1.6-.66 1.57-.6 1.58-.5 1.58-.44 1.6-.38 1.6-.3 1.62-.24 1.65-.17.93-.05" stroke="#e81313" stroke-width="5" stroke-linejoin="round" fill="none"/><path d="M714.8 307.9l-2.62.06V303l2.5-.04zM872.18 78.94h-2.57V74h2.58z" stroke="#e81313" stroke-width=".05" fill="#e81313"/><defs><path d="M140-251c80 0 125 45 125 126 0 70-33 111-92 124 6 28 34 38 68 31l-1 36C177 83 129 55 120 2 51-6 15-50 15-125c0-81 44-126 125-126zm-1 214c52 0 73-35 73-88 0-50-21-86-72-86-52 0-73 35-73 86s22 88 72 88" id="v"/><path d="M85 4C-2 5 27-109 22-190h50c7 57-23 150 33 157 60-5 35-97 40-157h50l1 190h-47c-2-12 1-28-3-38-12 25-28 42-61 42" id="w"/><path d="M133-34C117-15 103 5 69 4 32 3 11-16 11-54c-1-60 55-63 116-61 1-26-3-47-28-47-18 1-26 9-28 27l-52-2c7-38 36-58 82-57s74 22 75 68l1 82c-1 14 12 18 25 15v27c-30 8-71 5-69-32zm-48 3c29 0 43-24 42-57-32 0-66-3-65 30 0 17 8 27 23 27" id="x"/><path d="M135-194c87-1 58 113 63 194h-50c-7-57 23-157-34-157-59 0-34 97-39 157H25l-1-190h47c2 12-1 28 3 38 12-26 28-41 61-42" id="y"/><path d="M115-3C79 11 28 4 28-45v-112H4v-33h27l15-45h31v45h36v33H77v99c-1 23 16 31 38 25v30" id="z"/><path d="M25-224v-37h50v37H25zM25 0v-190h50V0H25" id="A"/><path d="M12 0v-35l95-120H19v-35h142v35L67-36h103V0H12" id="B"/><path d="M110-194c64 0 96 36 96 99 0 64-35 99-97 99-61 0-95-36-95-99 0-62 34-99 96-99zm-1 164c35 0 45-28 45-65 0-40-10-65-43-65-34 0-45 26-45 65 0 36 10 65 43 65" id="C"/><g id="a"><use transform="matrix(0.05555555555555555,0,0,0.05555555555555555,0,0)" xlink:href="#v"/><use transform="matrix(0.05555555555555555,0,0,0.05555555555555555,15.555555555555555,0)" xlink:href="#w"/><use transform="matrix(0.05555555555555555,0,0,0.05555555555555555,27.72222222222222,0)" xlink:href="#x"/><use transform="matrix(0.05555555555555555,0,0,0.05555555555555555,38.83333333333333,0)" xlink:href="#y"/><use transform="matrix(0.05555555555555555,0,0,0.05555555555555555,50.99999999999999,0)" xlink:href="#z"/><use transform="matrix(0.05555555555555555,0,0,0.05555555555555555,57.61111111111109,0)" xlink:href="#A"/><use transform="matrix(0.05555555555555555,0,0,0.05555555555555555,63.166666666666664,0)" xlink:href="#B"/><use transform="matrix(0.05555555555555555,0,0,0.05555555555555555,73.16666666666666,0)" xlink:href="#x"/><use transform="matrix(0.05555555555555555,0,0,0.05555555555555555,84.27777777777777,0)" xlink:href="#z"/><use transform="matrix(0.05555555555555555,0,0,0.05555555555555555,90.88888888888889,0)" xlink:href="#A"/><use transform="matrix(0.05555555555555555,0,0,0.05555555555555555,96.44444444444444,0)" xlink:href="#C"/><use transform="matrix(0.05555555555555555,0,0,0.05555555555555555,108.61111111111111,0)" xlink:href="#y"/></g><path d="M143 4C61 4 22-44 18-125c-5-107 100-154 193-111 17 8 29 25 37 43l-32 9c-13-25-37-40-76-40-61 0-88 39-88 99 0 61 29 100 91 101 35 0 62-11 79-27v-45h-74v-28h105v86C228-13 192 4 143 4" id="D"/><path d="M30-248c87 1 191-15 191 75 0 78-77 80-158 76V0H30v-248zm33 125c57 0 124 11 124-50 0-59-68-47-124-48v98" id="E"/><path d="M127-220V0H93v-220H8v-28h204v28h-85" id="F"/><path d="M140-251c81 0 123 46 123 126C263-53 228-8 163 1c7 30 30 48 69 40v23c-55 16-95-15-103-61C56-3 17-48 17-125c0-80 42-126 123-126zm0 227c63 0 89-41 89-101s-29-99-89-99c-61 0-89 39-89 99S79-25 140-24" id="G"/><g id="b"><use transform="matrix(0.05,0,0,0.05,0,0)" xlink:href="#D"/><use transform="matrix(0.05,0,0,0.05,14,0)" xlink:href="#E"/><use transform="matrix(0.05,0,0,0.05,26,0)" xlink:href="#F"/><use transform="matrix(0.05,0,0,0.05,36.95,0)" xlink:href="#G"/></g><path d="M185-189c-5-48-123-54-124 2 14 75 158 14 163 119 3 78-121 87-175 55-17-10-28-26-33-46l33-7c5 56 141 63 141-1 0-78-155-14-162-118-5-82 145-84 179-34 5 7 8 16 11 25" id="H"/><path d="M145-31C134-9 116 4 85 4 32 4 16-35 15-94c0-59 17-99 70-100 32-1 48 14 60 33 0-11-1-24 2-32h30l-1 268h-32zM93-21c41 0 51-33 51-76s-8-73-50-73c-40 0-46 35-46 75s5 74 45 74" id="I"/><path d="M84 4C-5 8 30-112 23-190h32v120c0 31 7 50 39 49 72-2 45-101 50-169h31l1 190h-30c-1-10 1-25-2-33-11 22-28 36-60 37" id="J"/><path d="M100-194c63 0 86 42 84 106H49c0 40 14 67 53 68 26 1 43-12 49-29l28 8c-11 28-37 45-77 45C44 4 14-33 15-96c1-61 26-98 85-98zm52 81c6-60-76-77-97-28-3 7-6 17-6 28h103" id="K"/><path d="M9 0v-24l116-142H16v-24h144v24L44-24h123V0H9" id="L"/><path d="M30 0v-248h33v221h125V0H30" id="M"/><path d="M240 0l2-218c-23 76-54 145-80 218h-23L58-218 59 0H30v-248h44l77 211c21-75 51-140 76-211h43V0h-30" id="N"/><g id="c"><use transform="matrix(0.05,0,0,0.05,0,0)" xlink:href="#H"/><use transform="matrix(0.05,0,0,0.05,12,0)" xlink:href="#I"/><use transform="matrix(0.05,0,0,0.05,22,0)" xlink:href="#J"/><use transform="matrix(0.05,0,0,0.05,32,0)" xlink:href="#K"/><use transform="matrix(0.05,0,0,0.05,42,0)" xlink:href="#K"/><use transform="matrix(0.05,0,0,0.05,52,0)" xlink:href="#L"/><use transform="matrix(0.05,0,0,0.05,61,0)" xlink:href="#K"/><use transform="matrix(0.05,0,0,0.05,71,0)" xlink:href="#M"/><use transform="matrix(0.05,0,0,0.05,81,0)" xlink:href="#M"/><use transform="matrix(0.05,0,0,0.05,91,0)" xlink:href="#N"/></g><path d="M205 0l-28-72H64L36 0H1l101-248h38L239 0h-34zm-38-99l-47-123c-12 45-31 82-46 123h93" id="O"/><g id="d"><use transform="matrix(0.05,0,0,0.05,0,0)" xlink:href="#G"/><use transform="matrix(0.05,0,0,0.05,14,0)" xlink:href="#O"/><use transform="matrix(0.05,0,0,0.05,24.65,0)" xlink:href="#F"/></g><path d="M141-36C126-15 110 5 73 4 37 3 15-17 15-53c-1-64 63-63 125-63 3-35-9-54-41-54-24 1-41 7-42 31l-33-3c5-37 33-52 76-52 45 0 72 20 72 64v82c-1 20 7 32 28 27v20c-31 9-61-2-59-35zM48-53c0 20 12 33 32 33 41-3 63-29 60-74-43 2-92-5-92 41" id="P"/><path d="M177-190C167-65 218 103 67 71c-23-6-38-20-44-43l32-5c15 47 100 32 89-28v-30C133-14 115 1 83 1 29 1 15-40 15-95c0-56 16-97 71-98 29-1 48 16 59 35 1-10 0-23 2-32h30zM94-22c36 0 50-32 50-73 0-42-14-75-50-75-39 0-46 34-46 75s6 73 46 73" id="Q"/><path d="M85-194c31 0 48 13 60 33l-1-100h32l1 261h-30c-2-10 0-23-3-31C134-8 116 4 85 4 32 4 16-35 15-94c0-66 23-100 70-100zm9 24c-40 0-46 34-46 75 0 40 6 74 45 74 42 0 51-32 51-76 0-42-9-74-50-73" id="R"/><g id="e"><use transform="matrix(0.05,0,0,0.05,0,0)" xlink:href="#E"/><use transform="matrix(0.05,0,0,0.05,12,0)" xlink:href="#P"/><use transform="matrix(0.05,0,0,0.05,22,0)" xlink:href="#Q"/><use transform="matrix(0.05,0,0,0.05,32,0)" xlink:href="#K"/><use transform="matrix(0.05,0,0,0.05,42,0)" xlink:href="#R"/></g><path d="M140-251c81 0 123 46 123 126C263-46 219 4 140 4 59 4 17-45 17-125s42-126 123-126zm0 227c63 0 89-41 89-101s-29-99-89-99c-61 0-89 39-89 99S79-25 140-24" id="S"/><path d="M115-194c55 1 70 41 70 98S169 2 115 4C84 4 66-9 55-30l1 105H24l-1-265h31l2 30c10-21 28-34 59-34zm-8 174c40 0 45-34 45-75s-6-73-45-74c-42 0-51 32-51 76 0 43 10 73 51 73" id="T"/><path d="M59-47c-2 24 18 29 38 22v24C64 9 27 4 27-40v-127H5v-23h24l9-43h21v43h35v23H59v120" id="U"/><path d="M24-231v-30h32v30H24zM24 0v-190h32V0H24" id="V"/><path d="M210-169c-67 3-38 105-44 169h-31v-121c0-29-5-50-35-48C34-165 62-65 56 0H25l-1-190h30c1 10-1 24 2 32 10-44 99-50 107 0 11-21 27-35 58-36 85-2 47 119 55 194h-31v-121c0-29-5-49-35-48" id="W"/><path d="M114-163C36-179 61-72 57 0H25l-1-190h30c1 12-1 29 2 39 6-27 23-49 58-41v29" id="X"/><path d="M135-143c-3-34-86-38-87 0 15 53 115 12 119 90S17 21 10-45l28-5c4 36 97 45 98 0-10-56-113-15-118-90-4-57 82-63 122-42 12 7 21 19 24 35" id="Y"/><g id="f"><use transform="matrix(0.05,0,0,0.05,0,0)" xlink:href="#S"/><use transform="matrix(0.05,0,0,0.05,14,0)" xlink:href="#T"/><use transform="matrix(0.05,0,0,0.05,24,0)" xlink:href="#U"/><use transform="matrix(0.05,0,0,0.05,29,0)" xlink:href="#V"/><use transform="matrix(0.05,0,0,0.05,32.95,0)" xlink:href="#W"/><use transform="matrix(0.05,0,0,0.05,47.900000000000006,0)" xlink:href="#V"/><use transform="matrix(0.05,0,0,0.05,51.85,0)" xlink:href="#L"/><use transform="matrix(0.05,0,0,0.05,60.85,0)" xlink:href="#K"/><use transform="matrix(0.05,0,0,0.05,70.85000000000001,0)" xlink:href="#X"/><use transform="matrix(0.05,0,0,0.05,76.80000000000001,0)" xlink:href="#Y"/></g><path d="M266 0h-40l-56-210L115 0H75L2-248h35L96-30l15-64 43-154h32l59 218 59-218h35" id="Z"/><path d="M106-169C34-169 62-67 57 0H25v-261h32l-1 103c12-21 28-36 61-36 89 0 53 116 60 194h-32v-121c2-32-8-49-39-48" id="aa"/><g id="g"><use transform="matrix(0.05,0,0,0.05,0,0)" xlink:href="#Z"/><use transform="matrix(0.05,0,0,0.05,16.599999999999998,0)" xlink:href="#K"/><use transform="matrix(0.05,0,0,0.05,26.599999999999994,0)" xlink:href="#V"/><use transform="matrix(0.05,0,0,0.05,30.549999999999997,0)" xlink:href="#Q"/><use transform="matrix(0.05,0,0,0.05,40.55,0)" xlink:href="#aa"/><use transform="matrix(0.05,0,0,0.05,50.55,0)" xlink:href="#U"/></g><path d="M117-194c89-4 53 116 60 194h-32v-121c0-31-8-49-39-48C34-167 62-67 57 0H25l-1-190h30c1 10-1 24 2 32 11-22 29-35 61-36" id="ab"/><path d="M24 0v-261h32V0H24" id="ac"/><path d="M179-190L93 31C79 59 56 82 12 73V49c39 6 53-20 64-50L1-190h34L92-34l54-156h33" id="ad"/><g id="h"><use transform="matrix(0.05,0,0,0.05,0,0)" xlink:href="#S"/><use transform="matrix(0.05,0,0,0.05,14,0)" xlink:href="#ab"/><use transform="matrix(0.05,0,0,0.05,24,0)" xlink:href="#ac"/><use transform="matrix(0.05,0,0,0.05,27.950000000000003,0)" xlink:href="#ad"/></g><path d="M100-194c62-1 85 37 85 99 1 63-27 99-86 99S16-35 15-95c0-66 28-99 85-99zM99-20c44 1 53-31 53-75 0-43-8-75-51-75s-53 32-53 75 10 74 51 75" id="ae"/><g id="i"><use transform="matrix(0.05,0,0,0.05,0,0)" xlink:href="#G"/><use transform="matrix(0.05,0,0,0.05,14,0)" xlink:href="#J"/><use transform="matrix(0.05,0,0,0.05,24,0)" xlink:href="#P"/><use transform="matrix(0.05,0,0,0.05,34,0)" xlink:href="#ab"/><use transform="matrix(0.05,0,0,0.05,44,0)" xlink:href="#U"/><use transform="matrix(0.05,0,0,0.05,49,0)" xlink:href="#V"/><use transform="matrix(0.05,0,0,0.05,52.95,0)" xlink:href="#L"/><use transform="matrix(0.05,0,0,0.05,61.95,0)" xlink:href="#P"/><use transform="matrix(0.05,0,0,0.05,71.95,0)" xlink:href="#U"/><use transform="matrix(0.05,0,0,0.05,76.95,0)" xlink:href="#V"/><use transform="matrix(0.05,0,0,0.05,80.9,0)" xlink:href="#ae"/><use transform="matrix(0.05,0,0,0.05,90.9,0)" xlink:href="#ab"/></g><path d="M233-177c-1 41-23 64-60 70L243 0h-38l-65-103H63V0H30v-248c88 3 205-21 203 71zM63-129c60-2 137 13 137-47 0-61-80-42-137-45v92" id="af"/><g id="j"><use transform="matrix(0.05,0,0,0.05,0,0)" xlink:href="#G"/><use transform="matrix(0.05,0,0,0.05,14,0)" xlink:href="#M"/><use transform="matrix(0.05,0,0,0.05,24,0)" xlink:href="#ae"/><use transform="matrix(0.05,0,0,0.05,34,0)" xlink:href="#af"/><use transform="matrix(0.05,0,0,0.05,46.95,0)" xlink:href="#O"/></g><g id="k"><use transform="matrix(0.05,0,0,0.05,0,0)" xlink:href="#E"/><use transform="matrix(0.05,0,0,0.05,12,0)" xlink:href="#F"/><use transform="matrix(0.05,0,0,0.05,22.950000000000003,0)" xlink:href="#G"/></g><path d="M160-131c35 5 61 23 61 61C221 17 115-2 30 0v-248c76 3 177-17 177 60 0 33-19 50-47 57zm-97-11c50-1 110 9 110-42 0-47-63-36-110-37v79zm0 115c55-2 124 14 124-45 0-56-70-42-124-44v89" id="ag"/><g id="l"><use transform="matrix(0.05,0,0,0.05,0,0)" xlink:href="#ag"/><use transform="matrix(0.05,0,0,0.05,12,0)" xlink:href="#ab"/><use transform="matrix(0.05,0,0,0.05,22,0)" xlink:href="#ag"/></g><g id="m"><use transform="matrix(0.05,0,0,0.05,0,0)" xlink:href="#O"/><use transform="matrix(0.05,0,0,0.05,12,0)" xlink:href="#G"/><use transform="matrix(0.05,0,0,0.05,26,0)" xlink:href="#M"/><use transform="matrix(0.05,0,0,0.05,36,0)" xlink:href="#N"/></g><path d="M16-82v-28h88v28H16" id="ah"/><g id="n"><use transform="matrix(0.05,0,0,0.05,0,0)" xlink:href="#O"/><use transform="matrix(0.05,0,0,0.05,12,0)" xlink:href="#R"/><use transform="matrix(0.05,0,0,0.05,22,0)" xlink:href="#P"/><use transform="matrix(0.05,0,0,0.05,32,0)" xlink:href="#T"/><use transform="matrix(0.05,0,0,0.05,42,0)" xlink:href="#U"/><use transform="matrix(0.05,0,0,0.05,47,0)" xlink:href="#K"/><use transform="matrix(0.05,0,0,0.05,57,0)" xlink:href="#X"/><use transform="matrix(0.05,0,0,0.05,62.95,0)" xlink:href="#ah"/><use transform="matrix(0.05,0,0,0.05,68.9,0)" xlink:href="#U"/><use transform="matrix(0.05,0,0,0.05,73.9,0)" xlink:href="#J"/><use transform="matrix(0.05,0,0,0.05,83.9,0)" xlink:href="#ab"/><use transform="matrix(0.05,0,0,0.05,93.9,0)" xlink:href="#V"/><use transform="matrix(0.05,0,0,0.05,97.85000000000001,0)" xlink:href="#ab"/><use transform="matrix(0.05,0,0,0.05,107.85000000000001,0)" xlink:href="#Q"/></g><path d="M190 0L58-211 59 0H30v-248h39L202-35l-2-213h31V0h-41" id="ai"/><path d="M63-220v92h138v28H63V0H30v-248h175v28H63" id="aj"/><path d="M155-56V0h-30v-56H8v-25l114-167h33v167h35v25h-35zm-30-156c-27 46-58 90-88 131h88v-131" id="ak"/><g id="o"><use transform="matrix(0.05,0,0,0.05,0,0)" xlink:href="#ai"/><use transform="matrix(0.05,0,0,0.05,12.950000000000001,0)" xlink:href="#aj"/><use transform="matrix(0.05,0,0,0.05,23.900000000000002,0)" xlink:href="#ak"/></g><g id="p"><use transform="matrix(0.05,0,0,0.05,0,0)" xlink:href="#O"/><use transform="matrix(0.05,0,0,0.05,12,0)" xlink:href="#J"/><use transform="matrix(0.05,0,0,0.05,22,0)" xlink:href="#U"/><use transform="matrix(0.05,0,0,0.05,27,0)" xlink:href="#ae"/><use transform="matrix(0.05,0,0,0.05,37,0)" xlink:href="#af"/><use transform="matrix(0.05,0,0,0.05,49.95,0)" xlink:href="#ae"/><use transform="matrix(0.05,0,0,0.05,59.95,0)" xlink:href="#J"/><use transform="matrix(0.05,0,0,0.05,69.95,0)" xlink:href="#ab"/><use transform="matrix(0.05,0,0,0.05,79.95,0)" xlink:href="#R"/></g><g id="q"><use transform="matrix(0.05,0,0,0.05,0,0)" xlink:href="#aj"/><use transform="matrix(0.05,0,0,0.05,10.950000000000001,0)" xlink:href="#V"/><use transform="matrix(0.05,0,0,0.05,14.9,0)" xlink:href="#ab"/><use transform="matrix(0.05,0,0,0.05,24.900000000000002,0)" xlink:href="#K"/><use transform="matrix(0.05,0,0,0.05,34.900000000000006,0)" xlink:href="#ah"/><use transform="matrix(0.05,0,0,0.05,40.85000000000001,0)" xlink:href="#U"/><use transform="matrix(0.05,0,0,0.05,45.85000000000001,0)" xlink:href="#J"/><use transform="matrix(0.05,0,0,0.05,55.85,0)" xlink:href="#ab"/><use transform="matrix(0.05,0,0,0.05,65.85000000000001,0)" xlink:href="#V"/><use transform="matrix(0.05,0,0,0.05,69.80000000000001,0)" xlink:href="#ab"/><use transform="matrix(0.05,0,0,0.05,79.80000000000001,0)" xlink:href="#Q"/></g><path d="M96-169c-40 0-48 33-48 73s9 75 48 75c24 0 41-14 43-38l32 2c-6 37-31 61-74 61-59 0-76-41-82-99-10-93 101-131 147-64 4 7 5 14 7 22l-32 3c-4-21-16-35-41-35" id="al"/><g id="r"><use transform="matrix(0.05,0,0,0.05,0,0)" xlink:href="#P"/><use transform="matrix(0.05,0,0,0.05,10,0)" xlink:href="#T"/><use transform="matrix(0.05,0,0,0.05,20,0)" xlink:href="#T"/><use transform="matrix(0.05,0,0,0.05,30,0)" xlink:href="#X"/><use transform="matrix(0.05,0,0,0.05,35.95,0)" xlink:href="#ae"/><use transform="matrix(0.05,0,0,0.05,45.95,0)" xlink:href="#P"/><use transform="matrix(0.05,0,0,0.05,55.95,0)" xlink:href="#al"/><use transform="matrix(0.05,0,0,0.05,64.95,0)" xlink:href="#aa"/></g><g id="s"><use transform="matrix(0.05,0,0,0.05,0,0)" xlink:href="#O"/><use transform="matrix(0.05,0,0,0.05,11.35,0)" xlink:href="#Z"/><use transform="matrix(0.05,0,0,0.05,28.299999999999997,0)" xlink:href="#G"/></g><path d="M30-248c118-7 216 8 213 122C240-48 200 0 122 0H30v-248zM63-27c89 8 146-16 146-99s-60-101-146-95v194" id="am"/><path d="M115-194c53 0 69 39 70 98 0 66-23 100-70 100C84 3 66-7 56-30L54 0H23l1-261h32v101c10-23 28-34 59-34zm-8 174c40 0 45-34 45-75 0-40-5-75-45-74-42 0-51 32-51 76 0 43 10 73 51 73" id="an"/><g id="t"><use transform="matrix(0.05,0,0,0.05,0,0)" xlink:href="#am"/><use transform="matrix(0.05,0,0,0.05,12.950000000000001,0)" xlink:href="#ae"/><use transform="matrix(0.05,0,0,0.05,22.950000000000003,0)" xlink:href="#J"/><use transform="matrix(0.05,0,0,0.05,32.95,0)" xlink:href="#an"/><use transform="matrix(0.05,0,0,0.05,42.95,0)" xlink:href="#ac"/><use transform="matrix(0.05,0,0,0.05,46.900000000000006,0)" xlink:href="#K"/></g><g id="u"><use transform="matrix(0.05,0,0,0.05,0,0)" xlink:href="#G"/><use transform="matrix(0.05,0,0,0.05,14,0)" xlink:href="#J"/><use transform="matrix(0.05,0,0,0.05,24,0)" xlink:href="#P"/><use transform="matrix(0.05,0,0,0.05,34,0)" xlink:href="#ab"/><use transform="matrix(0.05,0,0,0.05,44,0)" xlink:href="#U"/><use transform="matrix(0.05,0,0,0.05,49,0)" xlink:href="#V"/><use transform="matrix(0.05,0,0,0.05,52.95,0)" xlink:href="#L"/><use transform="matrix(0.05,0,0,0.05,61.95,0)" xlink:href="#P"/><use transform="matrix(0.05,0,0,0.05,71.95,0)" xlink:href="#U"/><use transform="matrix(0.05,0,0,0.05,76.95,0)" xlink:href="#V"/><use transform="matrix(0.05,0,0,0.05,80.9,0)" xlink:href="#ae"/><use transform="matrix(0.05,0,0,0.05,90.9,0)" xlink:href="#ab"/></g></defs></g></svg>