<svg xmlns="http://www.w3.org/2000/svg" xmlns:xlink="http://www.w3.org/1999/xlink" xmlns:lucid="lucid" width="1424" height="993"><g transform="translate(237 -242)" lucid:page-tab-id="frxcLnOFS73H"><path d="M-500 0h2000v1500H-500z" fill="#f2f3f5"/><path d="M706.9 754.9c0-254.05-205.94-460-460-460-254.04 0-460 205.95-460 460s205.96 460 460 460c254.06 0 460-205.95 460-460z" stroke="#000" stroke-opacity="0" fill="#635dff" opacity=".95"/><path d="M633.7 815.04c0-187.85-149.27-340.14-333.4-340.14-184.13 0-333.4 152.3-333.4 340.14 0 187.86 149.27 340.15 333.4 340.15 184.13 0 333.4-152.3 333.4-340.16z" stroke="#000" stroke-opacity="0" fill="#9391ff" opacity=".95"/><path d="M526.9 914.9c0 110.46-94 200-210 200-115.97 0-210-89.55-210-200 0-110.46 94.03-200 210-200 116 0 210 89.54 210 200z" stroke="#000" stroke-opacity="0" fill="#dedeff"/><path d="M446.9 966.02c0 61.37-49.24 111.12-110 111.12-60.74 0-110-49.75-110-111.12 0-61.37 49.26-111.12 110-111.12 60.76 0 110 49.75 110 111.12z" stroke="#000" stroke-opacity="0" fill="#f2f2ff"/><path d="M46.9 362.9a8 8 0 0 1 8-8h384a8 8 0 0 1 8 8v93.8a8 8 0 0 1-8 8h-384a8 8 0 0 1-8-8z" stroke="#000" stroke-opacity="0" fill="#fff" fill-opacity="0"/><use xlink:href="#a" transform="matrix(1,0,0,1,51.90819100091824,359.897842056933) translate(9.591666666666868 58.52499999999998)"/><use xlink:href="#b" transform="matrix(1,0,0,1,51.90819100091824,359.897842056933) translate(171.8305555555556 58.52499999999998)"/><path d="M166.9 585.7a8 8 0 0 1 8-8h304a8 8 0 0 1 8 8v81.2a8 8 0 0 1-8 8h-304a8 8 0 0 1-8-8z" stroke="#000" stroke-opacity="0" fill="#fff" fill-opacity="0"/><use xlink:href="#c" transform="matrix(1,0,0,1,171.90819100091824,582.7093902807673) translate(3.292283950617332 50.62222222222221)"/><use xlink:href="#d" transform="matrix(1,0,0,1,171.90819100091824,582.7093902807673) translate(156.0435185185185 50.62222222222221)"/><path d="M166.9 774.45a8 8 0 0 1 8-8h304a8 8 0 0 1 8 8v81.2a8 8 0 0 1-8 8h-304a8 8 0 0 1-8-8z" stroke="#000" stroke-opacity="0" fill="#fff" fill-opacity="0"/><use xlink:href="#e" transform="matrix(1,0,0,1,171.90819100091824,771.4486083399588) translate(31.06975308641981 50.62222222222221)"/><use xlink:href="#d" transform="matrix(1,0,0,1,171.90819100091824,771.4486083399588) translate(128.26604938271606 50.62222222222221)"/><path d="M176.9 922.9a8 8 0 0 1 8-8h304a8 8 0 0 1 8 8v81.2a8 8 0 0 1-8 8h-304a8 8 0 0 1-8-8z" stroke="#000" stroke-opacity="0" fill="#fff" fill-opacity="0"/><use xlink:href="#f" transform="matrix(1,0,0,1,181.90819100091824,919.897842056933) translate(108.43919753086422 50.62222222222221)"/><path d="M487.35 626.06l219.12-122.32" stroke="#d916a8" fill="none"/><path d="M487.6 626.47l-.7.38v-1.1l.22-.1zM706.9 504.04l-.2.12-.47-.83.68-.38z" stroke="#d916a8" stroke-width=".05" fill="#d916a8"/><path d="M706.9 462.9a8 8 0 0 1 8-8h304a8 8 0 0 1 8 8v81.2a8 8 0 0 1-8 8h-304a8 8 0 0 1-8-8z" stroke="#000" stroke-opacity="0" fill="#fff" fill-opacity="0"/><use xlink:href="#g" transform="matrix(1,0,0,1,711.9081910009182,459.897842056933) translate(17.126543209876615 31.538888888888874)"/><use xlink:href="#h" transform="matrix(1,0,0,1,711.9081910009182,459.897842056933) translate(125.24197530864198 31.538888888888874)"/><use xlink:href="#i" transform="matrix(1,0,0,1,711.9081910009182,459.897842056933) translate(155 66.47222222222219)"/><path d="M447.37 368.1l179.08-78.47" stroke="#d916a8" fill="none"/><path d="M447.57 368.52l-.66.3v-1.04l.3-.13zM626.9 289.95l-.27.12-.38-.87.66-.3z" stroke="#d916a8" stroke-width=".05" fill="#d916a8"/><path d="M626.9 242.53a8 8 0 0 1 8-8h384a8 8 0 0 1 8 8v93.8a8 8 0 0 1-8 8h-384a8 8 0 0 1-8-8z" stroke="#000" stroke-opacity="0" fill="#fff" fill-opacity="0"/><use xlink:href="#j" transform="matrix(1,0,0,1,631.9081910009182,239.52603331533987) translate(56.23703703703711 54.53888888888888)"/><use xlink:href="#k" transform="matrix(1,0,0,1,631.9081910009182,239.52603331533987) translate(201.38827160493824 54.53888888888888)"/><path d="M726.9 492.63a8 8 0 0 1 8-8h284a8 8 0 0 1 8 8v57.8a8 8 0 0 1-8 8h-284a8 8 0 0 1-8-8z" stroke="#000" stroke-opacity="0" fill="#fff" fill-opacity="0"/><use xlink:href="#l" transform="matrix(1,0,0,1,731.9081910009182,489.62475302724334) translate(2.1750000000000114 34.4)"/><use xlink:href="#m" transform="matrix(1,0,0,1,731.9081910009182,489.62475302724334) translate(77.07500000000002 34.4)"/><use xlink:href="#n" transform="matrix(1,0,0,1,731.9081910009182,489.62475302724334) translate(141.97500000000002 34.4)"/><use xlink:href="#o" transform="matrix(1,0,0,1,731.9081910009182,489.62475302724334) translate(211.925 34.4)"/><use xlink:href="#p" transform="matrix(1,0,0,1,731.9081910009182,489.62475302724334) translate(252.82500000000002 34.4)"/><path d="M487.33 814.77l259.16-164.6" stroke="#d916a8" fill="none"/><path d="M487.6 815.17l-.7.44v-1.12l.2-.1zM746.9 650.46l-.17.1-.5-.8.68-.43z" stroke="#d916a8" stroke-width=".05" fill="#d916a8"/><path d="M746.9 602.9a8 8 0 0 1 8-8h304a8 8 0 0 1 8 8v81.2a8 8 0 0 1-8 8h-304a8 8 0 0 1-8-8z" stroke="#000" stroke-opacity="0" fill="#fff" fill-opacity="0"/><use xlink:href="#q" transform="matrix(1,0,0,1,751.9081910009182,599.897842056933) translate(31.625000000000085 49.81666666666665)"/><use xlink:href="#r" transform="matrix(1,0,0,1,751.9081910009182,599.897842056933) translate(137.63611111111112 49.81666666666665)"/><path d="M766.9 654.97a8 8 0 0 1 8-8h364a8 8 0 0 1 8 8v44a8 8 0 0 1-8 8h-364a8 8 0 0 1-8-8z" stroke="#000" stroke-opacity="0" fill="#fff" fill-opacity="0"/><g><use xlink:href="#l" transform="matrix(1,0,0,1,771.9081910009182,651.9738344708222) translate(8.675000000000011 30.025)"/><use xlink:href="#m" transform="matrix(1,0,0,1,771.9081910009182,651.9738344708222) translate(83.57500000000002 30.025)"/><use xlink:href="#n" transform="matrix(1,0,0,1,771.9081910009182,651.9738344708222) translate(148.47500000000002 30.025)"/><use xlink:href="#s" transform="matrix(1,0,0,1,771.9081910009182,651.9738344708222) translate(218.425 30.025)"/><use xlink:href="#t" transform="matrix(1,0,0,1,771.9081910009182,651.9738344708222) translate(237.375 30.025)"/><use xlink:href="#p" transform="matrix(1,0,0,1,771.9081910009182,651.9738344708222) translate(326.325 30.025)"/></g><path d="M400.13 959.05L766.45 796.5M400.14 959.05l-.46.2" stroke="#d916a8" fill="none"/><path d="M766.9 796.82l-.27.13-.38-.87.66-.3z" stroke="#d916a8" stroke-width=".05" fill="#d916a8"/><path d="M766.9 765.7a8 8 0 0 1 8-8h344a8 8 0 0 1 8 8v61.2a8 8 0 0 1-8 8h-344a8 8 0 0 1-8-8z" stroke="#000" stroke-opacity="0" fill="#fff" fill-opacity="0"/><g><use xlink:href="#u" transform="matrix(1,0,0,1,771.9081910009182,762.7093902807673) translate(8.824074074074161 40.28888888888888)"/><use xlink:href="#v" transform="matrix(1,0,0,1,771.9081910009182,762.7093902807673) translate(95.99567901234572 40.28888888888888)"/><use xlink:href="#w" transform="matrix(1,0,0,1,771.9081910009182,762.7093902807673) translate(241.1469135802469 40.28888888888888)"/></g><path d="M770.17 810.83a8 8 0 0 1 8-8h360.74a8 8 0 0 1 8 8v62.27a8 8 0 0 1-8 8H778.18a8 8 0 0 1-8-8z" stroke="#000" stroke-opacity="0" fill="#fff" fill-opacity="0"/><g><use xlink:href="#l" transform="matrix(1,0,0,1,775.1706610162609,807.8289126974212) translate(4.649999999999977 38.11875)"/><use xlink:href="#x" transform="matrix(1,0,0,1,775.1706610162609,807.8289126974212) translate(79.54999999999998 38.11875)"/><use xlink:href="#y" transform="matrix(1,0,0,1,775.1706610162609,807.8289126974212) translate(99.54999999999998 38.11875)"/><use xlink:href="#z" transform="matrix(1,0,0,1,775.1706610162609,807.8289126974212) translate(194.5 38.11875)"/><use xlink:href="#A" transform="matrix(1,0,0,1,775.1706610162609,807.8289126974212) translate(254.4 38.11875)"/><use xlink:href="#B" transform="matrix(1,0,0,1,775.1706610162609,807.8289126974212) translate(333.35 38.11875)"/></g><defs><path d="M199 0l-22-63H83L61 0H9l90-248h61L250 0h-51zm-33-102l-36-108c-10 38-24 72-36 108h72" id="C"/><path d="M135-150c-39-12-60 13-60 57V0H25l-1-190h47c2 13-1 29 3 40 6-28 27-53 61-41v41" id="D"/><path d="M115-3C79 11 28 4 28-45v-112H4v-33h27l15-45h31v45h36v33H77v99c-1 23 16 31 38 25v30" id="E"/><path d="M25-224v-37h50v37H25zM25 0v-190h50V0H25" id="F"/><path d="M121-226c-27-7-43 5-38 36h38v33H83V0H34v-157H6v-33h28c-9-59 32-81 87-68v32" id="G"/><path d="M190-63c-7 42-38 67-86 67-59 0-84-38-90-98-12-110 154-137 174-36l-49 2c-2-19-15-32-35-32-30 0-35 28-38 64-6 74 65 87 74 30" id="H"/><path d="M133-34C117-15 103 5 69 4 32 3 11-16 11-54c-1-60 55-63 116-61 1-26-3-47-28-47-18 1-26 9-28 27l-52-2c7-38 36-58 82-57s74 22 75 68l1 82c-1 14 12 18 25 15v27c-30 8-71 5-69-32zm-48 3c29 0 43-24 42-57-32 0-66-3-65 30 0 17 8 27 23 27" id="I"/><path d="M25 0v-261h50V0H25" id="J"/><g id="a"><use transform="matrix(0.10555555555555546,0,0,0.10555555555555546,0,0)" xlink:href="#C"/><use transform="matrix(0.10555555555555546,0,0,0.10555555555555546,27.338888888888864,0)" xlink:href="#D"/><use transform="matrix(0.10555555555555546,0,0,0.10555555555555546,42.11666666666663,0)" xlink:href="#E"/><use transform="matrix(0.10555555555555546,0,0,0.10555555555555546,54.67777777777774,0)" xlink:href="#F"/><use transform="matrix(0.10555555555555546,0,0,0.10555555555555546,65.23333333333328,0)" xlink:href="#G"/><use transform="matrix(0.10555555555555546,0,0,0.10555555555555546,77.79444444444438,0)" xlink:href="#F"/><use transform="matrix(0.10555555555555546,0,0,0.10555555555555546,88.34999999999992,0)" xlink:href="#H"/><use transform="matrix(0.10555555555555546,0,0,0.10555555555555546,109.46111111111104,0)" xlink:href="#F"/><use transform="matrix(0.10555555555555546,0,0,0.10555555555555546,120.01666666666655,0)" xlink:href="#I"/><use transform="matrix(0.10555555555555546,0,0,0.10555555555555546,141.12777777777765,0)" xlink:href="#J"/></g><path d="M24 0v-248h52V0H24" id="K"/><path d="M135-194c87-1 58 113 63 194h-50c-7-57 23-157-34-157-59 0-34 97-39 157H25l-1-190h47c2 12-1 28 3 38 12-26 28-41 61-42" id="L"/><path d="M185-48c-13 30-37 53-82 52C43 2 14-33 14-96s30-98 90-98c62 0 83 45 84 108H66c0 31 8 55 39 56 18 0 30-7 34-22zm-45-69c5-46-57-63-70-21-2 6-4 13-4 21h74" id="M"/><path d="M195-6C206 82 75 100 31 46c-4-6-6-13-8-21l49-6c3 16 16 24 34 25 40 0 42-37 40-79-11 22-30 35-61 35-53 0-70-43-70-97 0-56 18-96 73-97 30 0 46 14 59 34l2-30h47zm-90-29c32 0 41-27 41-63 0-35-9-62-40-62-32 0-39 29-40 63 0 36 9 62 39 62" id="N"/><g id="b"><use transform="matrix(0.10555555555555546,0,0,0.10555555555555546,0,0)" xlink:href="#K"/><use transform="matrix(0.10555555555555546,0,0,0.10555555555555546,10.555555555555546,0)" xlink:href="#L"/><use transform="matrix(0.10555555555555546,0,0,0.10555555555555546,33.67222222222219,0)" xlink:href="#E"/><use transform="matrix(0.10555555555555546,0,0,0.10555555555555546,46.23333333333329,0)" xlink:href="#M"/><use transform="matrix(0.10555555555555546,0,0,0.10555555555555546,67.34444444444438,0)" xlink:href="#J"/><use transform="matrix(0.10555555555555546,0,0,0.10555555555555546,77.89999999999992,0)" xlink:href="#J"/><use transform="matrix(0.10555555555555546,0,0,0.10555555555555546,88.45555555555546,0)" xlink:href="#F"/><use transform="matrix(0.10555555555555546,0,0,0.10555555555555546,99.011111111111,0)" xlink:href="#N"/><use transform="matrix(0.10555555555555546,0,0,0.10555555555555546,122.12777777777764,0)" xlink:href="#M"/><use transform="matrix(0.10555555555555546,0,0,0.10555555555555546,143.23888888888874,0)" xlink:href="#L"/><use transform="matrix(0.10555555555555546,0,0,0.10555555555555546,166.35555555555538,0)" xlink:href="#H"/><use transform="matrix(0.10555555555555546,0,0,0.10555555555555546,187.46666666666647,0)" xlink:href="#M"/></g><path d="M230 0l2-204L168 0h-37L68-204 70 0H24v-248h70l56 185 57-185h69V0h-46" id="O"/><path d="M114-157C55-157 80-60 75 0H25v-261h50l-1 109c12-26 28-41 61-42 86-1 58 113 63 194h-50c-7-57 23-157-34-157" id="P"/><g id="c"><use transform="matrix(0.09938271604938267,0,0,0.09938271604938267,0,0)" xlink:href="#O"/><use transform="matrix(0.09938271604938267,0,0,0.09938271604938267,29.71543209876542,0)" xlink:href="#I"/><use transform="matrix(0.09938271604938267,0,0,0.09938271604938267,49.59197530864195,0)" xlink:href="#H"/><use transform="matrix(0.09938271604938267,0,0,0.09938271604938267,69.46851851851848,0)" xlink:href="#P"/><use transform="matrix(0.09938271604938267,0,0,0.09938271604938267,91.23333333333329,0)" xlink:href="#F"/><use transform="matrix(0.09938271604938267,0,0,0.09938271604938267,101.17160493827156,0)" xlink:href="#L"/><use transform="matrix(0.09938271604938267,0,0,0.09938271604938267,122.93641975308637,0)" xlink:href="#M"/></g><path d="M24 0v-248h52v208h133V0H24" id="Q"/><g id="d"><use transform="matrix(0.09938271604938267,0,0,0.09938271604938267,0,0)" xlink:href="#Q"/><use transform="matrix(0.09938271604938267,0,0,0.09938271604938267,21.764814814814805,0)" xlink:href="#M"/><use transform="matrix(0.09938271604938267,0,0,0.09938271604938267,41.64135802469134,0)" xlink:href="#I"/><use transform="matrix(0.09938271604938267,0,0,0.09938271604938267,61.51790123456787,0)" xlink:href="#D"/><use transform="matrix(0.09938271604938267,0,0,0.09938271604938267,75.43148148148144,0)" xlink:href="#L"/><use transform="matrix(0.09938271604938267,0,0,0.09938271604938267,97.19629629629625,0)" xlink:href="#F"/><use transform="matrix(0.09938271604938267,0,0,0.09938271604938267,107.13456790123452,0)" xlink:href="#L"/><use transform="matrix(0.09938271604938267,0,0,0.09938271604938267,128.89938271604933,0)" xlink:href="#N"/></g><path d="M24-248c120-7 223 5 221 122C244-46 201 0 124 0H24v-248zM76-40c74 7 117-18 117-86 0-67-45-88-117-82v168" id="R"/><path d="M135-194c53 0 70 44 70 98 0 56-19 98-73 100-31 1-45-17-59-34 3 33 2 69 2 105H25l-1-265h48c2 10 0 23 3 31 11-24 29-35 60-35zM114-30c33 0 39-31 40-66 0-38-9-64-40-64-56 0-55 130 0 130" id="S"/><g id="e"><use transform="matrix(0.09938271604938267,0,0,0.09938271604938267,0,0)" xlink:href="#R"/><use transform="matrix(0.09938271604938267,0,0,0.09938271604938267,25.740123456790112,0)" xlink:href="#M"/><use transform="matrix(0.09938271604938267,0,0,0.09938271604938267,45.616666666666646,0)" xlink:href="#M"/><use transform="matrix(0.09938271604938267,0,0,0.09938271604938267,65.49320987654318,0)" xlink:href="#S"/></g><path d="M137-138c1-29-70-34-71-4 15 46 118 7 119 86 1 83-164 76-172 9l43-7c4 19 20 25 44 25 33 8 57-30 24-41C81-84 22-81 20-136c-2-80 154-74 161-7" id="T"/><g id="f"><use transform="matrix(0.09938271604938267,0,0,0.09938271604938267,0,0)" xlink:href="#Q"/><use transform="matrix(0.09938271604938267,0,0,0.09938271604938267,21.764814814814805,0)" xlink:href="#Q"/><use transform="matrix(0.09938271604938267,0,0,0.09938271604938267,43.52962962962961,0)" xlink:href="#O"/><use transform="matrix(0.09938271604938267,0,0,0.09938271604938267,73.24506172839503,0)" xlink:href="#T"/></g><path d="M24-248c93 1 206-16 204 79-1 75-69 88-152 82V0H24v-248zm52 121c47 0 100 7 100-41 0-47-54-39-100-39v80" id="U"/><g id="g"><use transform="matrix(0.08086419753086414,0,0,0.08086419753086414,0,0)" xlink:href="#U"/><use transform="matrix(0.08086419753086414,0,0,0.08086419753086414,19.407407407407394,0)" xlink:href="#I"/><use transform="matrix(0.08086419753086414,0,0,0.08086419753086414,35.580246913580226,0)" xlink:href="#E"/><use transform="matrix(0.08086419753086414,0,0,0.08086419753086414,45.203086419753056,0)" xlink:href="#E"/><use transform="matrix(0.08086419753086414,0,0,0.08086419753086414,54.82592592592589,0)" xlink:href="#M"/><use transform="matrix(0.08086419753086414,0,0,0.08086419753086414,70.99876543209871,0)" xlink:href="#D"/><use transform="matrix(0.08086419753086414,0,0,0.08086419753086414,82.3197530864197,0)" xlink:href="#L"/></g><path d="M240-174c0 40-23 61-54 70L253 0h-59l-57-94H76V0H24v-248c93 4 217-23 216 74zM76-134c48-2 112 12 112-38 0-48-66-32-112-35v73" id="V"/><path d="M110-194c64 0 96 36 96 99 0 64-35 99-97 99-61 0-95-36-95-99 0-62 34-99 96-99zm-1 164c35 0 45-28 45-65 0-40-10-65-43-65-34 0-45 26-45 65 0 36 10 65 43 65" id="W"/><g id="h"><use transform="matrix(0.08086419753086414,0,0,0.08086419753086414,0,0)" xlink:href="#V"/><use transform="matrix(0.08086419753086414,0,0,0.08086419753086414,20.943827160493814,0)" xlink:href="#M"/><use transform="matrix(0.08086419753086414,0,0,0.08086419753086414,37.116666666666646,0)" xlink:href="#H"/><use transform="matrix(0.08086419753086414,0,0,0.08086419753086414,53.289506172839474,0)" xlink:href="#W"/><use transform="matrix(0.08086419753086414,0,0,0.08086419753086414,70.99876543209872,0)" xlink:href="#N"/><use transform="matrix(0.08086419753086414,0,0,0.08086419753086414,88.70802469135796,0)" xlink:href="#L"/><use transform="matrix(0.08086419753086414,0,0,0.08086419753086414,106.41728395061722,0)" xlink:href="#F"/><use transform="matrix(0.08086419753086414,0,0,0.08086419753086414,114.50370370370362,0)" xlink:href="#E"/><use transform="matrix(0.08086419753086414,0,0,0.08086419753086414,124.12654320987647,0)" xlink:href="#F"/><use transform="matrix(0.08086419753086414,0,0,0.08086419753086414,132.21296296296288,0)" xlink:href="#W"/><use transform="matrix(0.08086419753086414,0,0,0.08086419753086414,149.92222222222213,0)" xlink:href="#L"/></g><g id="j"><use transform="matrix(0.08086419753086414,0,0,0.08086419753086414,0,0)" xlink:href="#K"/><use transform="matrix(0.08086419753086414,0,0,0.08086419753086414,8.086419753086414,0)" xlink:href="#L"/><use transform="matrix(0.08086419753086414,0,0,0.08086419753086414,25.795679012345662,0)" xlink:href="#E"/><use transform="matrix(0.08086419753086414,0,0,0.08086419753086414,35.418518518518496,0)" xlink:href="#M"/><use transform="matrix(0.08086419753086414,0,0,0.08086419753086414,51.591358024691324,0)" xlink:href="#J"/><use transform="matrix(0.08086419753086414,0,0,0.08086419753086414,59.677777777777735,0)" xlink:href="#J"/><use transform="matrix(0.08086419753086414,0,0,0.08086419753086414,67.76419753086415,0)" xlink:href="#F"/><use transform="matrix(0.08086419753086414,0,0,0.08086419753086414,75.85061728395057,0)" xlink:href="#N"/><use transform="matrix(0.08086419753086414,0,0,0.08086419753086414,93.55987654320981,0)" xlink:href="#M"/><use transform="matrix(0.08086419753086414,0,0,0.08086419753086414,109.73271604938265,0)" xlink:href="#L"/><use transform="matrix(0.08086419753086414,0,0,0.08086419753086414,127.44197530864191,0)" xlink:href="#E"/></g><g id="k"><use transform="matrix(0.08086419753086414,0,0,0.08086419753086414,0,0)" xlink:href="#O"/><use transform="matrix(0.08086419753086414,0,0,0.08086419753086414,24.178395061728377,0)" xlink:href="#I"/><use transform="matrix(0.08086419753086414,0,0,0.08086419753086414,40.3512345679012,0)" xlink:href="#H"/><use transform="matrix(0.08086419753086414,0,0,0.08086419753086414,56.52407407407403,0)" xlink:href="#P"/><use transform="matrix(0.08086419753086414,0,0,0.08086419753086414,74.23333333333328,0)" xlink:href="#F"/><use transform="matrix(0.08086419753086414,0,0,0.08086419753086414,82.3197530864197,0)" xlink:href="#L"/><use transform="matrix(0.08086419753086414,0,0,0.08086419753086414,100.02901234567895,0)" xlink:href="#M"/><use transform="matrix(0.08086419753086414,0,0,0.08086419753086414,116.20185185185179,0)" xlink:href="#T"/></g><path d="M30 0v-248h33v221h125V0H30" id="X"/><path d="M100-194c63 0 86 42 84 106H49c0 40 14 67 53 68 26 1 43-12 49-29l28 8c-11 28-37 45-77 45C44 4 14-33 15-96c1-61 26-98 85-98zm52 81c6-60-76-77-97-28-3 7-6 17-6 28h103" id="Y"/><path d="M141-36C126-15 110 5 73 4 37 3 15-17 15-53c-1-64 63-63 125-63 3-35-9-54-41-54-24 1-41 7-42 31l-33-3c5-37 33-52 76-52 45 0 72 20 72 64v82c-1 20 7 32 28 27v20c-31 9-61-2-59-35zM48-53c0 20 12 33 32 33 41-3 63-29 60-74-43 2-92-5-92 41" id="Z"/><path d="M114-163C36-179 61-72 57 0H25l-1-190h30c1 12-1 29 2 39 6-27 23-49 58-41v29" id="aa"/><path d="M117-194c89-4 53 116 60 194h-32v-121c0-31-8-49-39-48C34-167 62-67 57 0H25l-1-190h30c1 10-1 24 2 32 11-22 29-35 61-36" id="ab"/><path d="M24-231v-30h32v30H24zM24 0v-190h32V0H24" id="ac"/><path d="M177-190C167-65 218 103 67 71c-23-6-38-20-44-43l32-5c15 47 100 32 89-28v-30C133-14 115 1 83 1 29 1 15-40 15-95c0-56 16-97 71-98 29-1 48 16 59 35 1-10 0-23 2-32h30zM94-22c36 0 50-32 50-73 0-42-14-75-50-75-39 0-46 34-46 75s6 73 46 73" id="ad"/><g id="l"><use transform="matrix(0.05,0,0,0.05,0,0)" xlink:href="#X"/><use transform="matrix(0.05,0,0,0.05,10,0)" xlink:href="#Y"/><use transform="matrix(0.05,0,0,0.05,20,0)" xlink:href="#Z"/><use transform="matrix(0.05,0,0,0.05,30,0)" xlink:href="#aa"/><use transform="matrix(0.05,0,0,0.05,35.95,0)" xlink:href="#ab"/><use transform="matrix(0.05,0,0,0.05,45.95,0)" xlink:href="#ac"/><use transform="matrix(0.05,0,0,0.05,49.900000000000006,0)" xlink:href="#ab"/><use transform="matrix(0.05,0,0,0.05,59.900000000000006,0)" xlink:href="#ad"/></g><path d="M24 0v-261h32V0H24" id="ae"/><g id="m"><use transform="matrix(0.05,0,0,0.05,0,0)" xlink:href="#ad"/><use transform="matrix(0.05,0,0,0.05,10,0)" xlink:href="#Y"/><use transform="matrix(0.05,0,0,0.05,20,0)" xlink:href="#ab"/><use transform="matrix(0.05,0,0,0.05,30,0)" xlink:href="#Y"/><use transform="matrix(0.05,0,0,0.05,40,0)" xlink:href="#aa"/><use transform="matrix(0.05,0,0,0.05,45.95,0)" xlink:href="#Z"/><use transform="matrix(0.05,0,0,0.05,55.95,0)" xlink:href="#ae"/></g><path d="M115-194c55 1 70 41 70 98S169 2 115 4C84 4 66-9 55-30l1 105H24l-1-265h31l2 30c10-21 28-34 59-34zm-8 174c40 0 45-34 45-75s-6-73-45-74c-42 0-51 32-51 76 0 43 10 73 51 73" id="af"/><path d="M59-47c-2 24 18 29 38 22v24C64 9 27 4 27-40v-127H5v-23h24l9-43h21v43h35v23H59v120" id="ag"/><path d="M135-143c-3-34-86-38-87 0 15 53 115 12 119 90S17 21 10-45l28-5c4 36 97 45 98 0-10-56-113-15-118-90-4-57 82-63 122-42 12 7 21 19 24 35" id="ah"/><g id="n"><use transform="matrix(0.05,0,0,0.05,0,0)" xlink:href="#af"/><use transform="matrix(0.05,0,0,0.05,10,0)" xlink:href="#Z"/><use transform="matrix(0.05,0,0,0.05,20,0)" xlink:href="#ag"/><use transform="matrix(0.05,0,0,0.05,25,0)" xlink:href="#ag"/><use transform="matrix(0.05,0,0,0.05,30,0)" xlink:href="#Y"/><use transform="matrix(0.05,0,0,0.05,40,0)" xlink:href="#aa"/><use transform="matrix(0.05,0,0,0.05,45.95,0)" xlink:href="#ab"/><use transform="matrix(0.05,0,0,0.05,55.95,0)" xlink:href="#ah"/></g><path d="M101-234c-31-9-42 10-38 44h38v23H63V0H32v-167H5v-23h27c-7-52 17-82 69-68v24" id="ai"/><path d="M100-194c62-1 85 37 85 99 1 63-27 99-86 99S16-35 15-95c0-66 28-99 85-99zM99-20c44 1 53-31 53-75 0-43-8-75-51-75s-53 32-53 75 10 74 51 75" id="aj"/><path d="M210-169c-67 3-38 105-44 169h-31v-121c0-29-5-50-35-48C34-165 62-65 56 0H25l-1-190h30c1 10-1 24 2 32 10-44 99-50 107 0 11-21 27-35 58-36 85-2 47 119 55 194h-31v-121c0-29-5-49-35-48" id="ak"/><g id="o"><use transform="matrix(0.05,0,0,0.05,0,0)" xlink:href="#ai"/><use transform="matrix(0.05,0,0,0.05,5,0)" xlink:href="#aa"/><use transform="matrix(0.05,0,0,0.05,10.95,0)" xlink:href="#aj"/><use transform="matrix(0.05,0,0,0.05,20.95,0)" xlink:href="#ak"/></g><path d="M85-194c31 0 48 13 60 33l-1-100h32l1 261h-30c-2-10 0-23-3-31C134-8 116 4 85 4 32 4 16-35 15-94c0-66 23-100 70-100zm9 24c-40 0-46 34-46 75 0 40 6 74 45 74 42 0 51-32 51-76 0-42-9-74-50-73" id="al"/><g id="p"><use transform="matrix(0.05,0,0,0.05,0,0)" xlink:href="#al"/><use transform="matrix(0.05,0,0,0.05,10,0)" xlink:href="#Z"/><use transform="matrix(0.05,0,0,0.05,20,0)" xlink:href="#ag"/><use transform="matrix(0.05,0,0,0.05,25,0)" xlink:href="#Z"/></g><path d="M175 0L67-191c6 58 2 128 3 191H24v-248h59L193-55c-6-58-2-129-3-193h46V0h-61" id="am"/><path d="M85 4C-2 5 27-109 22-190h50c7 57-23 150 33 157 60-5 35-97 40-157h50l1 190h-47c-2-12 1-28-3-38-12 25-28 42-61 42" id="an"/><g id="q"><use transform="matrix(0.08703703703703697,0,0,0.08703703703703697,0,0)" xlink:href="#am"/><use transform="matrix(0.08703703703703697,0,0,0.08703703703703697,22.542592592592573,0)" xlink:href="#M"/><use transform="matrix(0.08703703703703697,0,0,0.08703703703703697,39.94999999999997,0)" xlink:href="#an"/><use transform="matrix(0.08703703703703697,0,0,0.08703703703703697,59.01111111111106,0)" xlink:href="#D"/><use transform="matrix(0.08703703703703697,0,0,0.08703703703703697,71.19629629629624,0)" xlink:href="#I"/><use transform="matrix(0.08703703703703697,0,0,0.08703703703703697,88.60370370370363,0)" xlink:href="#J"/></g><path d="M231 0h-52l-39-155L100 0H48L-1-190h46L77-45c9-52 24-97 36-145h53l37 145 32-145h46" id="ao"/><path d="M147 0L96-86 75-71V0H25v-261h50v150l67-79h53l-66 74L201 0h-54" id="ap"/><g id="r"><use transform="matrix(0.08703703703703697,0,0,0.08703703703703697,0,0)" xlink:href="#am"/><use transform="matrix(0.08703703703703697,0,0,0.08703703703703697,22.542592592592573,0)" xlink:href="#M"/><use transform="matrix(0.08703703703703697,0,0,0.08703703703703697,39.94999999999997,0)" xlink:href="#E"/><use transform="matrix(0.08703703703703697,0,0,0.08703703703703697,50.30740740740737,0)" xlink:href="#ao"/><use transform="matrix(0.08703703703703697,0,0,0.08703703703703697,74.67777777777772,0)" xlink:href="#W"/><use transform="matrix(0.08703703703703697,0,0,0.08703703703703697,93.73888888888881,0)" xlink:href="#D"/><use transform="matrix(0.08703703703703697,0,0,0.08703703703703697,105.92407407407399,0)" xlink:href="#ap"/><use transform="matrix(0.08703703703703697,0,0,0.08703703703703697,123.33148148148139,0)" xlink:href="#T"/></g><g id="s"><use transform="matrix(0.05,0,0,0.05,0,0)" xlink:href="#ac"/><use transform="matrix(0.05,0,0,0.05,3.95,0)" xlink:href="#ab"/></g><path d="M84 4C-5 8 30-112 23-190h32v120c0 31 7 50 39 49 72-2 45-101 50-169h31l1 190h-30c-1-10 1-25-2-33-11 22-28 36-60 37" id="aq"/><path d="M96-169c-40 0-48 33-48 73s9 75 48 75c24 0 41-14 43-38l32 2c-6 37-31 61-74 61-59 0-76-41-82-99-10-93 101-131 147-64 4 7 5 14 7 22l-32 3c-4-21-16-35-41-35" id="ar"/><g id="t"><use transform="matrix(0.05,0,0,0.05,0,0)" xlink:href="#aq"/><use transform="matrix(0.05,0,0,0.05,10,0)" xlink:href="#ab"/><use transform="matrix(0.05,0,0,0.05,20,0)" xlink:href="#ah"/><use transform="matrix(0.05,0,0,0.05,29,0)" xlink:href="#ag"/><use transform="matrix(0.05,0,0,0.05,34,0)" xlink:href="#aa"/><use transform="matrix(0.05,0,0,0.05,39.95,0)" xlink:href="#aq"/><use transform="matrix(0.05,0,0,0.05,49.95,0)" xlink:href="#ar"/><use transform="matrix(0.05,0,0,0.05,58.95,0)" xlink:href="#ag"/><use transform="matrix(0.05,0,0,0.05,63.95,0)" xlink:href="#Y"/><use transform="matrix(0.05,0,0,0.05,73.95,0)" xlink:href="#al"/></g><g id="u"><use transform="matrix(0.08086419753086414,0,0,0.08086419753086414,0,0)" xlink:href="#Q"/><use transform="matrix(0.08086419753086414,0,0,0.08086419753086414,17.709259259259248,0)" xlink:href="#I"/><use transform="matrix(0.08086419753086414,0,0,0.08086419753086414,33.882098765432076,0)" xlink:href="#D"/><use transform="matrix(0.08086419753086414,0,0,0.08086419753086414,45.203086419753056,0)" xlink:href="#N"/><use transform="matrix(0.08086419753086414,0,0,0.08086419753086414,62.912345679012304,0)" xlink:href="#M"/></g><g id="v"><use transform="matrix(0.08086419753086414,0,0,0.08086419753086414,0,0)" xlink:href="#Q"/><use transform="matrix(0.08086419753086414,0,0,0.08086419753086414,17.709259259259248,0)" xlink:href="#I"/><use transform="matrix(0.08086419753086414,0,0,0.08086419753086414,33.882098765432076,0)" xlink:href="#L"/><use transform="matrix(0.08086419753086414,0,0,0.08086419753086414,51.591358024691324,0)" xlink:href="#N"/><use transform="matrix(0.08086419753086414,0,0,0.08086419753086414,69.30061728395057,0)" xlink:href="#an"/><use transform="matrix(0.08086419753086414,0,0,0.08086419753086414,87.00987654320984,0)" xlink:href="#I"/><use transform="matrix(0.08086419753086414,0,0,0.08086419753086414,103.18271604938266,0)" xlink:href="#N"/><use transform="matrix(0.08086419753086414,0,0,0.08086419753086414,120.89197530864192,0)" xlink:href="#M"/></g><path d="M88-194c31-1 46 15 58 34l-1-101h50l1 261h-48c-2-10 0-23-3-31C134-8 116 4 84 4 32 4 16-41 15-95c0-56 19-97 73-99zm17 164c33 0 40-30 41-66 1-37-9-64-41-64s-38 30-39 65c0 43 13 65 39 65" id="as"/><g id="w"><use transform="matrix(0.08086419753086414,0,0,0.08086419753086414,0,0)" xlink:href="#O"/><use transform="matrix(0.08086419753086414,0,0,0.08086419753086414,24.178395061728377,0)" xlink:href="#W"/><use transform="matrix(0.08086419753086414,0,0,0.08086419753086414,41.88765432098763,0)" xlink:href="#as"/><use transform="matrix(0.08086419753086414,0,0,0.08086419753086414,59.59691358024687,0)" xlink:href="#M"/><use transform="matrix(0.08086419753086414,0,0,0.08086419753086414,75.7697530864197,0)" xlink:href="#J"/><use transform="matrix(0.08086419753086414,0,0,0.08086419753086414,83.85617283950612,0)" xlink:href="#T"/></g><g id="x"><use transform="matrix(0.05,0,0,0.05,0,0)" xlink:href="#ag"/><use transform="matrix(0.05,0,0,0.05,5,0)" xlink:href="#aj"/></g><g id="y"><use transform="matrix(0.05,0,0,0.05,0,0)" xlink:href="#aq"/><use transform="matrix(0.05,0,0,0.05,10,0)" xlink:href="#ab"/><use transform="matrix(0.05,0,0,0.05,20,0)" xlink:href="#al"/><use transform="matrix(0.05,0,0,0.05,30,0)" xlink:href="#Y"/><use transform="matrix(0.05,0,0,0.05,40,0)" xlink:href="#aa"/><use transform="matrix(0.05,0,0,0.05,45.95,0)" xlink:href="#ah"/><use transform="matrix(0.05,0,0,0.05,54.95,0)" xlink:href="#ag"/><use transform="matrix(0.05,0,0,0.05,59.95,0)" xlink:href="#Z"/><use transform="matrix(0.05,0,0,0.05,69.95,0)" xlink:href="#ab"/><use transform="matrix(0.05,0,0,0.05,79.95,0)" xlink:href="#al"/></g><g id="z"><use transform="matrix(0.05,0,0,0.05,0,0)" xlink:href="#ab"/><use transform="matrix(0.05,0,0,0.05,10,0)" xlink:href="#Z"/><use transform="matrix(0.05,0,0,0.05,20,0)" xlink:href="#ag"/><use transform="matrix(0.05,0,0,0.05,25,0)" xlink:href="#aq"/><use transform="matrix(0.05,0,0,0.05,35,0)" xlink:href="#aa"/><use transform="matrix(0.05,0,0,0.05,40.95,0)" xlink:href="#Z"/><use transform="matrix(0.05,0,0,0.05,50.95,0)" xlink:href="#ae"/></g><g id="A"><use transform="matrix(0.05,0,0,0.05,0,0)" xlink:href="#ae"/><use transform="matrix(0.05,0,0,0.05,3.95,0)" xlink:href="#Z"/><use transform="matrix(0.05,0,0,0.05,13.949999999999998,0)" xlink:href="#ab"/><use transform="matrix(0.05,0,0,0.05,23.95,0)" xlink:href="#ad"/><use transform="matrix(0.05,0,0,0.05,33.95,0)" xlink:href="#aq"/><use transform="matrix(0.05,0,0,0.05,43.95,0)" xlink:href="#Z"/><use transform="matrix(0.05,0,0,0.05,53.95,0)" xlink:href="#ad"/><use transform="matrix(0.05,0,0,0.05,63.95,0)" xlink:href="#Y"/></g><path d="M33 0v-38h34V0H33" id="at"/><g id="B"><use transform="matrix(0.05,0,0,0.05,0,0)" xlink:href="#Y"/><use transform="matrix(0.05,0,0,0.05,10,0)" xlink:href="#ag"/><use transform="matrix(0.05,0,0,0.05,15,0)" xlink:href="#ar"/><use transform="matrix(0.05,0,0,0.05,24,0)" xlink:href="#at"/></g></defs></g></svg>